<svg width="25" height="25" viewBox="0 0 25 25" fill="none" xmlns="http://www.w3.org/2000/svg">
<path d="M11.25 23.75V14.2678L9.63388 15.8839C9.14573 16.372 8.35426 16.372 7.86611 15.8839C7.37795 15.3957 7.37796 14.6043 7.86611 14.1161L11.6161 10.3661L11.6392 10.3436C12.1289 9.87808 12.9034 9.88559 13.3839 10.3661L17.1339 14.1161C17.622 14.6043 17.622 15.3957 17.1339 15.8839C16.6457 16.372 15.8543 16.372 15.3661 15.8839L13.75 14.2678V23.75C13.75 24.4404 13.1904 25 12.5 25C11.8096 25 11.25 24.4404 11.25 23.75ZM0 12.0616C7.0239e-06 8.5963 2.39699 5.41714 6.01107 4.52644C7.37961 1.89637 10.1426 1.14822e-06 13.3616 0C17.5111 0 20.9595 3.03615 21.548 7.0098C23.6338 8.2321 25 10.5979 25 13.1211C25 16.662 22.3269 19.5776 18.8875 19.958C18.2013 20.0339 17.5835 19.5392 17.5076 18.8531C17.4317 18.1669 17.9264 17.5491 18.6126 17.4732C20.7981 17.2314 22.5 15.375 22.5 13.1211C22.5 11.2898 21.3879 9.61963 19.8742 8.95782C19.4429 8.76922 19.1541 8.35424 19.1271 7.88424C18.955 4.89166 16.4479 2.49998 13.3616 2.49998C10.9814 2.49998 8.90644 4.0193 8.02724 6.10961C7.86018 6.50681 7.5003 6.78999 7.07495 6.85892C4.30651 7.30751 2.49999 9.61197 2.49998 12.0616C2.49998 14.5678 4.21829 16.6909 6.57045 17.3148C7.23774 17.4917 7.63521 18.1762 7.45822 18.8435C7.28123 19.5107 6.59682 19.9082 5.92955 19.7312C2.52261 18.8276 0 15.7437 0 12.0616Z" fill="#FE2B2B"/>
</svg>
