<svg width="33" height="36" viewBox="0 0 33 36" fill="none" xmlns="http://www.w3.org/2000/svg">
<path d="M31.1666 0C32.1792 0 33 0.805871 33 1.79998C33 2.7941 32.1792 3.59997 31.1666 3.59997H31.0619C30.5515 7.97093 28.1988 11.9658 24.5304 14.5798L24.4316 14.6496L19.6542 17.9999L24.4316 21.3503L24.4317 21.3503C28.1565 23.9628 30.5469 27.99 31.0619 32.4H31.1666C32.1792 32.4 33 33.2059 33 34.2C33 35.1941 32.1792 36 31.1666 36H1.83332C0.820793 36 0 35.1941 0 34.2C0 33.2059 0.820793 32.4 1.83332 32.4H1.93805C2.45301 27.99 4.84342 23.9628 8.5684 21.3503L8.56845 21.3503L13.3457 17.9999L8.5684 14.6496C4.84339 12.0373 2.453 8.01002 1.93805 3.59997H1.83332C0.820793 3.59997 0 2.7941 0 1.79998C0 0.805871 0.820793 0 1.83332 0H31.1666ZM10.6996 24.2797L10.6996 24.2797C7.9398 26.2153 6.12893 29.1568 5.636 32.4H27.364C26.871 29.1568 25.0602 26.2153 22.3004 24.2797L16.4999 20.212L10.6996 24.2797ZM22 27C23.0125 27 23.8333 27.8059 23.8333 28.8C23.8333 29.7941 23.0125 30.6 22 30.6H11C9.98748 30.6 9.16663 29.7941 9.16663 28.8C9.16663 27.8059 9.98748 27 11 27H22ZM5.636 3.59997C6.12893 6.84323 7.93978 9.78472 10.6996 11.7202H10.6996L16.4999 15.7879L22.3004 11.7202C25.0602 9.78471 26.871 6.84322 27.364 3.59997H5.636ZM20.1666 5.40001C21.1792 5.40001 22 6.20588 22 7.19999C22 8.1941 21.1792 8.99997 20.1666 8.99997H12.8333C11.8208 8.99997 11 8.1941 11 7.19999C11 6.20588 11.8208 5.40001 12.8333 5.40001H20.1666Z" fill="#FE2B2B"/>
</svg>
