<svg width="1440" height="1024" viewBox="0 0 1440 1024" fill="none" xmlns="http://www.w3.org/2000/svg">
<path d="M42.6791 39.6848H0V0H42.6791V39.6848ZM0.342309 39.3665H42.3368V0.318293H0.342309V39.3665ZM85.0297 39.6848H42.3505V0H85.0297V39.6848ZM42.6791 39.3665H84.6737V0.318293H42.6791V39.3665ZM127.366 39.6848H84.6873V0H127.366V39.6848ZM85.0297 39.3665H127.024V0.318293H85.0297V39.3665ZM169.717 39.6848H127.038V0H169.717V39.6848ZM127.366 39.3665H169.361V0.318293H127.366V39.3665ZM212.054 39.6848H169.375V0H212.054V39.6848ZM169.717 39.3665H211.712V0.318293H169.717V39.3665ZM254.404 39.6848H211.725V0H254.404V39.6848ZM212.054 39.3665H254.048V0.318293H212.054V39.3665ZM296.741 39.6848H254.062V0H296.741V39.6848ZM254.404 39.3665H296.399V0.318293H254.404V39.3665ZM339.092 39.6848H296.413V0H339.092V39.6848ZM296.741 39.3665H338.736V0.318293H296.741V39.3665ZM381.429 39.6848H338.749V0H381.429V39.6848ZM339.092 39.3665H381.086V0.318293H339.092V39.3665ZM423.765 39.6848H381.086V0H423.765V39.6848ZM381.429 39.3665H423.423V0.318293H381.429V39.3665ZM466.116 39.6848H423.437V0H466.116V39.6848ZM423.765 39.3665H465.76V0.318293H423.765V39.3665ZM508.453 39.6848H465.774V0H508.453V39.6848ZM466.116 39.3665H508.11V0.318293H466.116V39.3665ZM550.803 39.6848H508.124V0H550.803V39.6848ZM508.453 39.3665H550.447V0.318293H508.453V39.3665ZM593.14 39.6848H550.461V0H593.14V39.6848ZM550.803 39.3665H592.798V0.318293H550.803V39.3665ZM635.491 39.6848H592.811V0H635.491V39.6848ZM593.14 39.3665H635.135V0.318293H593.14V39.3665ZM677.827 39.6848H635.148V0H677.827V39.6848ZM635.491 39.3665H677.485V0.318293H635.491V39.3665ZM720.164 39.6848H677.485V0H720.164V39.6848ZM677.827 39.3665H719.822V0.318293H677.827V39.3665ZM762.515 39.6848H719.836V0H762.515V39.6848ZM720.164 39.3665H762.159V0.318293H720.164V39.3665ZM804.852 39.6848H762.173V0H804.852V39.6848ZM762.515 39.3665H804.509V0.318293H762.515V39.3665ZM847.202 39.6848H804.523V0H847.202V39.6848ZM804.852 39.3665H846.846V0.318293H804.852V39.3665ZM889.539 39.6848H846.86V0H889.539V39.6848ZM847.202 39.3665H889.197V0.318293H847.202V39.3665ZM931.89 39.6848H889.21V0H931.89V39.6848ZM889.539 39.3665H931.534V0.318293H889.539V39.3665ZM974.226 39.6848H931.547V0H974.226V39.6848ZM931.89 39.3665H973.884V0.318293H931.89V39.3665ZM1016.56 39.6848H973.884V0H1016.56V39.6848ZM974.226 39.3665H1016.22V0.318293H974.226V39.3665ZM1058.91 39.6848H1016.23V0H1058.91V39.6848ZM1016.56 39.3665H1058.56V0.318293H1016.56V39.3665ZM1101.25 39.6848H1058.57V0H1101.25V39.6848ZM1058.91 39.3665H1100.91V0.318293H1058.91V39.3665ZM1143.6 39.6848H1100.92V0H1143.6V39.6848ZM1101.25 39.3665H1143.25V0.318293H1101.25V39.3665ZM1185.94 39.6848H1143.26V0H1185.94V39.6848ZM1143.6 39.3665H1185.6V0.318293H1143.6V39.3665ZM1228.29 39.6848H1185.61V0H1228.29V39.6848ZM1185.94 39.3665H1227.93V0.318293H1185.94V39.3665ZM1270.63 39.6848H1227.95V0H1270.63V39.6848ZM1228.29 39.3665H1270.28V0.318293H1228.29V39.3665ZM1312.98 39.6848H1270.3V0H1312.98V39.6848ZM1270.63 39.3665H1312.62V0.318293H1270.63V39.3665ZM1355.31 39.6848H1312.63V0H1355.31V39.6848ZM1312.98 39.3665H1354.97V0.318293H1312.98V39.3665ZM1397.65 39.6848H1354.97V0H1397.65V39.6848ZM1355.31 39.3665H1397.31V0.318293H1355.31V39.3665ZM1440 39.6848H1397.32V0H1440V39.6848ZM1397.65 39.3665H1439.64V0.318293H1397.65V39.3665ZM42.6791 79.064H0V39.3792H42.6791V79.064ZM0.342309 78.7457H42.3368V39.6975H0.342309V78.7457ZM85.0297 79.064H42.3505V39.3792H85.0297V79.064ZM42.6791 78.7457H84.6737V39.6975H42.6791V78.7457ZM127.366 79.064H84.6873V39.3792H127.366V79.064ZM85.0297 78.7457H127.024V39.6975H85.0297V78.7457ZM169.717 79.064H127.038V39.3792H169.717V79.064ZM127.366 78.7457H169.361V39.6975H127.366V78.7457ZM212.054 79.064H169.375V39.3792H212.054V79.064ZM169.717 78.7457H211.712V39.6975H169.717V78.7457ZM254.404 79.064H211.725V39.3792H254.404V79.064ZM212.054 78.7457H254.048V39.6975H212.054V78.7457ZM296.741 79.064H254.062V39.3792H296.741V79.064ZM254.404 78.7457H296.399V39.6975H254.404V78.7457ZM339.092 79.064H296.413V39.3792H339.092V79.064ZM296.741 78.7457H338.736V39.6975H296.741V78.7457ZM381.429 79.064H338.749V39.3792H381.429V79.064ZM339.092 78.7457H381.086V39.6975H339.092V78.7457ZM423.765 79.064H381.086V39.3792H423.765V79.064ZM381.429 78.7457H423.423V39.6975H381.429V78.7457ZM466.116 79.064H423.437V39.3792H466.116V79.064ZM423.765 78.7457H465.76V39.6975H423.765V78.7457ZM508.453 79.064H465.774V39.3792H508.453V79.064ZM466.116 78.7457H508.11V39.6975H466.116V78.7457ZM550.803 79.064H508.124V39.3792H550.803V79.064ZM508.453 78.7457H550.447V39.6975H508.453V78.7457ZM593.14 79.064H550.461V39.3792H593.14V79.064ZM550.803 78.7457H592.798V39.6975H550.803V78.7457ZM635.491 79.064H592.811V39.3792H635.491V79.064ZM593.14 78.7457H635.135V39.6975H593.14V78.7457ZM677.827 79.064H635.148V39.3792H677.827V79.064ZM635.491 78.7457H677.485V39.6975H635.491V78.7457ZM720.164 79.064H677.485V39.3792H720.164V79.064ZM677.827 78.7457H719.822V39.6975H677.827V78.7457ZM762.515 79.064H719.836V39.3792H762.515V79.064ZM720.164 78.7457H762.159V39.6975H720.164V78.7457ZM804.852 79.064H762.173V39.3792H804.852V79.064ZM762.515 78.7457H804.509V39.6975H762.515V78.7457ZM847.202 79.064H804.523V39.3792H847.202V79.064ZM804.852 78.7457H846.846V39.6975H804.852V78.7457ZM889.539 79.064H846.86V39.3792H889.539V79.064ZM847.202 78.7457H889.197V39.6975H847.202V78.7457ZM931.89 79.064H889.21V39.3792H931.89V79.064ZM889.539 78.7457H931.534V39.6975H889.539V78.7457ZM974.226 79.064H931.547V39.3792H974.226V79.064ZM931.89 78.7457H973.884V39.6975H931.89V78.7457ZM1016.56 79.064H973.884V39.3792H1016.56V79.064ZM974.226 78.7457H1016.22V39.6975H974.226V78.7457ZM1058.91 79.064H1016.23V39.3792H1058.91V79.064ZM1016.56 78.7457H1058.56V39.6975H1016.56V78.7457ZM1101.25 79.064H1058.57V39.3792H1101.25V79.064ZM1058.91 78.7457H1100.91V39.6975H1058.91V78.7457ZM1143.6 79.064H1100.92V39.3792H1143.6V79.064ZM1101.25 78.7457H1143.25V39.6975H1101.25V78.7457ZM1185.94 79.064H1143.26V39.3792H1185.94V79.064ZM1143.6 78.7457H1185.6V39.6975H1143.6V78.7457ZM1228.29 79.064H1185.61V39.3792H1228.29V79.064ZM1185.94 78.7457H1227.93V39.6975H1185.94V78.7457ZM1270.63 79.064H1227.95V39.3792H1270.63V79.064ZM1228.29 78.7457H1270.28V39.6975H1228.29V78.7457ZM1312.98 79.064H1270.3V39.3792H1312.98V79.064ZM1270.63 78.7457H1312.62V39.6975H1270.63V78.7457ZM1355.31 79.064H1312.63V39.3792H1355.31V79.064ZM1312.98 78.7457H1354.97V39.6975H1312.98V78.7457ZM1397.65 79.064H1354.97V39.3792H1397.65V79.064ZM1355.31 78.7457H1397.31V39.6975H1355.31V78.7457ZM1440 79.064H1397.32V39.3792H1440V79.064ZM1397.65 78.7457H1439.64V39.6975H1397.65V78.7457ZM42.6791 118.431H0V78.7457H42.6791V118.431ZM0.342309 118.112H42.3368V79.064H0.342309V118.112ZM85.0297 118.431H42.3505V78.7457H85.0297V118.431ZM42.6791 118.112H84.6737V79.064H42.6791V118.112ZM127.366 118.431H84.6873V78.7457H127.366V118.431ZM85.0297 118.112H127.024V79.064H85.0297V118.112ZM169.717 118.431H127.038V78.7457H169.717V118.431ZM127.366 118.112H169.361V79.064H127.366V118.112ZM212.054 118.431H169.375V78.7457H212.054V118.431ZM169.717 118.112H211.712V79.064H169.717V118.112ZM254.404 118.431H211.725V78.7457H254.404V118.431ZM212.054 118.112H254.048V79.064H212.054V118.112ZM296.741 118.431H254.062V78.7457H296.741V118.431ZM254.404 118.112H296.399V79.064H254.404V118.112ZM339.092 118.431H296.413V78.7457H339.092V118.431ZM296.741 118.112H338.736V79.064H296.741V118.112ZM381.429 118.431H338.749V78.7457H381.429V118.431ZM339.092 118.112H381.086V79.064H339.092V118.112ZM423.765 118.431H381.086V78.7457H423.765V118.431ZM381.429 118.112H423.423V79.064H381.429V118.112ZM466.116 118.431H423.437V78.7457H466.116V118.431ZM423.765 118.112H465.76V79.064H423.765V118.112ZM508.453 118.431H465.774V78.7457H508.453V118.431ZM466.116 118.112H508.11V79.064H466.116V118.112ZM550.803 118.431H508.124V78.7457H550.803V118.431ZM508.453 118.112H550.447V79.064H508.453V118.112ZM593.14 118.431H550.461V78.7457H593.14V118.431ZM550.803 118.112H592.798V79.064H550.803V118.112ZM635.491 118.431H592.811V78.7457H635.491V118.431ZM593.14 118.112H635.135V79.064H593.14V118.112ZM677.827 118.431H635.148V78.7457H677.827V118.431ZM635.491 118.112H677.485V79.064H635.491V118.112ZM720.164 118.431H677.485V78.7457H720.164V118.431ZM677.827 118.112H719.822V79.064H677.827V118.112ZM762.515 118.431H719.836V78.7457H762.515V118.431ZM720.164 118.112H762.159V79.064H720.164V118.112ZM804.852 118.431H762.173V78.7457H804.852V118.431ZM762.515 118.112H804.509V79.064H762.515V118.112ZM847.202 118.431H804.523V78.7457H847.202V118.431ZM804.852 118.112H846.846V79.064H804.852V118.112ZM889.539 118.431H846.86V78.7457H889.539V118.431ZM847.202 118.112H889.197V79.064H847.202V118.112ZM931.89 118.431H889.21V78.7457H931.89V118.431ZM889.539 118.112H931.534V79.064H889.539V118.112ZM974.226 118.431H931.547V78.7457H974.226V118.431ZM931.89 118.112H973.884V79.064H931.89V118.112ZM1016.56 118.431H973.884V78.7457H1016.56V118.431ZM974.226 118.112H1016.22V79.064H974.226V118.112ZM1058.91 118.431H1016.23V78.7457H1058.91V118.431ZM1016.56 118.112H1058.56V79.064H1016.56V118.112ZM1101.25 118.431H1058.57V78.7457H1101.25V118.431ZM1058.91 118.112H1100.91V79.064H1058.91V118.112ZM1143.6 118.431H1100.92V78.7457H1143.6V118.431ZM1101.25 118.112H1143.25V79.064H1101.25V118.112ZM1185.94 118.431H1143.26V78.7457H1185.94V118.431ZM1143.6 118.112H1185.6V79.064H1143.6V118.112ZM1228.29 118.431H1185.61V78.7457H1228.29V118.431ZM1185.94 118.112H1227.93V79.064H1185.94V118.112ZM1270.63 118.431H1227.95V78.7457H1270.63V118.431ZM1228.29 118.112H1270.28V79.064H1228.29V118.112ZM1312.98 118.431H1270.3V78.7457H1312.98V118.431ZM1270.63 118.112H1312.62V79.064H1270.63V118.112ZM1355.31 118.431H1312.63V78.7457H1355.31V118.431ZM1312.98 118.112H1354.97V79.064H1312.98V118.112ZM1397.65 118.431H1354.97V78.7457H1397.65V118.431ZM1355.31 118.112H1397.31V79.064H1355.31V118.112ZM1440 118.431H1397.32V78.7457H1440V118.431ZM1397.65 118.112H1439.64V79.064H1397.65V118.112ZM42.6791 157.81H0V118.125H42.6791V157.81ZM0.342309 157.491H42.3368V118.443H0.342309V157.491ZM85.0297 157.81H42.3505V118.125H85.0297V157.81ZM42.6791 157.491H84.6737V118.443H42.6791V157.491ZM127.366 157.81H84.6873V118.125H127.366V157.81ZM85.0297 157.491H127.024V118.443H85.0297V157.491ZM169.717 157.81H127.038V118.125H169.717V157.81ZM127.366 157.491H169.361V118.443H127.366V157.491ZM212.054 157.81H169.375V118.125H212.054V157.81ZM169.717 157.491H211.712V118.443H169.717V157.491ZM254.404 157.81H211.725V118.125H254.404V157.81ZM212.054 157.491H254.048V118.443H212.054V157.491ZM296.741 157.81H254.062V118.125H296.741V157.81ZM254.404 157.491H296.399V118.443H254.404V157.491ZM339.092 157.81H296.413V118.125H339.092V157.81ZM296.741 157.491H338.736V118.443H296.741V157.491ZM381.429 157.81H338.749V118.125H381.429V157.81ZM339.092 157.491H381.086V118.443H339.092V157.491ZM423.765 157.81H381.086V118.125H423.765V157.81ZM381.429 157.491H423.423V118.443H381.429V157.491ZM466.116 157.81H423.437V118.125H466.116V157.81ZM423.765 157.491H465.76V118.443H423.765V157.491ZM508.453 157.81H465.774V118.125H508.453V157.81ZM466.116 157.491H508.11V118.443H466.116V157.491ZM550.803 157.81H508.124V118.125H550.803V157.81ZM508.453 157.491H550.447V118.443H508.453V157.491ZM593.14 157.81H550.461V118.125H593.14V157.81ZM550.803 157.491H592.798V118.443H550.803V157.491ZM635.491 157.81H592.811V118.125H635.491V157.81ZM593.14 157.491H635.135V118.443H593.14V157.491ZM677.827 157.81H635.148V118.125H677.827V157.81ZM635.491 157.491H677.485V118.443H635.491V157.491ZM720.164 157.81H677.485V118.125H720.164V157.81ZM677.827 157.491H719.822V118.443H677.827V157.491ZM762.515 157.81H719.836V118.125H762.515V157.81ZM720.164 157.491H762.159V118.443H720.164V157.491ZM804.852 157.81H762.173V118.125H804.852V157.81ZM762.515 157.491H804.509V118.443H762.515V157.491ZM847.202 157.81H804.523V118.125H847.202V157.81ZM804.852 157.491H846.846V118.443H804.852V157.491ZM889.539 157.81H846.86V118.125H889.539V157.81ZM847.202 157.491H889.197V118.443H847.202V157.491ZM931.89 157.81H889.21V118.125H931.89V157.81ZM889.539 157.491H931.534V118.443H889.539V157.491ZM974.226 157.81H931.547V118.125H974.226V157.81ZM931.89 157.491H973.884V118.443H931.89V157.491ZM1016.56 157.81H973.884V118.125H1016.56V157.81ZM974.226 157.491H1016.22V118.443H974.226V157.491ZM1058.91 157.81H1016.23V118.125H1058.91V157.81ZM1016.56 157.491H1058.56V118.443H1016.56V157.491ZM1101.25 157.81H1058.57V118.125H1101.25V157.81ZM1058.91 157.491H1100.91V118.443H1058.91V157.491ZM1143.6 157.81H1100.92V118.125H1143.6V157.81ZM1101.25 157.491H1143.25V118.443H1101.25V157.491ZM1185.94 157.81H1143.26V118.125H1185.94V157.81ZM1143.6 157.491H1185.6V118.443H1143.6V157.491ZM1228.29 157.81H1185.61V118.125H1228.29V157.81ZM1185.94 157.491H1227.93V118.443H1185.94V157.491ZM1270.63 157.81H1227.95V118.125H1270.63V157.81ZM1228.29 157.491H1270.28V118.443H1228.29V157.491ZM1312.98 157.81H1270.3V118.125H1312.98V157.81ZM1270.63 157.491H1312.62V118.443H1270.63V157.491ZM1355.31 157.81H1312.63V118.125H1355.31V157.81ZM1312.98 157.491H1354.97V118.443H1312.98V157.491ZM1397.65 157.81H1354.97V118.125H1397.65V157.81ZM1355.31 157.491H1397.31V118.443H1355.31V157.491ZM1440 157.81H1397.32V118.125H1440V157.81ZM1397.65 157.491H1439.64V118.443H1397.65V157.491ZM42.6791 197.176H0V157.491H42.6791V197.176ZM0.342309 196.858H42.3368V157.81H0.342309V196.858ZM85.0297 197.176H42.3505V157.491H85.0297V197.176ZM42.6791 196.858H84.6737V157.81H42.6791V196.858ZM127.366 197.176H84.6873V157.491H127.366V197.176ZM85.0297 196.858H127.024V157.81H85.0297V196.858ZM169.717 197.176H127.038V157.491H169.717V197.176ZM127.366 196.858H169.361V157.81H127.366V196.858ZM212.054 197.176H169.375V157.491H212.054V197.176ZM169.717 196.858H211.712V157.81H169.717V196.858ZM254.404 197.176H211.725V157.491H254.404V197.176ZM212.054 196.858H254.048V157.81H212.054V196.858ZM296.741 197.176H254.062V157.491H296.741V197.176ZM254.404 196.858H296.399V157.81H254.404V196.858ZM339.092 197.176H296.413V157.491H339.092V197.176ZM296.741 196.858H338.736V157.81H296.741V196.858ZM381.429 197.176H338.749V157.491H381.429V197.176ZM339.092 196.858H381.086V157.81H339.092V196.858ZM423.765 197.176H381.086V157.491H423.765V197.176ZM381.429 196.858H423.423V157.81H381.429V196.858ZM466.116 197.176H423.437V157.491H466.116V197.176ZM423.765 196.858H465.76V157.81H423.765V196.858ZM508.453 197.176H465.774V157.491H508.453V197.176ZM466.116 196.858H508.11V157.81H466.116V196.858ZM550.803 197.176H508.124V157.491H550.803V197.176ZM508.453 196.858H550.447V157.81H508.453V196.858ZM593.14 197.176H550.461V157.491H593.14V197.176ZM550.803 196.858H592.798V157.81H550.803V196.858ZM635.491 197.176H592.811V157.491H635.491V197.176ZM593.14 196.858H635.135V157.81H593.14V196.858ZM677.827 197.176H635.148V157.491H677.827V197.176ZM635.491 196.858H677.485V157.81H635.491V196.858ZM720.164 197.176H677.485V157.491H720.164V197.176ZM677.827 196.858H719.822V157.81H677.827V196.858ZM762.515 197.176H719.836V157.491H762.515V197.176ZM720.164 196.858H762.159V157.81H720.164V196.858ZM804.852 197.176H762.173V157.491H804.852V197.176ZM762.515 196.858H804.509V157.81H762.515V196.858ZM847.202 197.176H804.523V157.491H847.202V197.176ZM804.852 196.858H846.846V157.81H804.852V196.858ZM889.539 197.176H846.86V157.491H889.539V197.176ZM847.202 196.858H889.197V157.81H847.202V196.858ZM931.89 197.176H889.21V157.491H931.89V197.176ZM889.539 196.858H931.534V157.81H889.539V196.858ZM974.226 197.176H931.547V157.491H974.226V197.176ZM931.89 196.858H973.884V157.81H931.89V196.858ZM1016.56 197.176H973.884V157.491H1016.56V197.176ZM974.226 196.858H1016.22V157.81H974.226V196.858ZM1058.91 197.176H1016.23V157.491H1058.91V197.176ZM1016.56 196.858H1058.56V157.81H1016.56V196.858ZM1101.25 197.176H1058.57V157.491H1101.25V197.176ZM1058.91 196.858H1100.91V157.81H1058.91V196.858ZM1143.6 197.176H1100.92V157.491H1143.6V197.176ZM1101.25 196.858H1143.25V157.81H1101.25V196.858ZM1185.94 197.176H1143.26V157.491H1185.94V197.176ZM1143.6 196.858H1185.6V157.81H1143.6V196.858ZM1228.29 197.176H1185.61V157.491H1228.29V197.176ZM1185.94 196.858H1227.93V157.81H1185.94V196.858ZM1270.63 197.176H1227.95V157.491H1270.63V197.176ZM1228.29 196.858H1270.28V157.81H1228.29V196.858ZM1312.98 197.176H1270.3V157.491H1312.98V197.176ZM1270.63 196.858H1312.62V157.81H1270.63V196.858ZM1355.31 197.176H1312.63V157.491H1355.31V197.176ZM1312.98 196.858H1354.97V157.81H1312.98V196.858ZM1397.65 197.176H1354.97V157.491H1397.65V197.176ZM1355.31 196.858H1397.31V157.81H1355.31V196.858ZM1440 197.176H1397.32V157.491H1440V197.176ZM1397.65 196.858H1439.64V157.81H1397.65V196.858ZM42.6791 236.555H0V196.871H42.6791V236.555ZM0.342309 236.237H42.3368V197.189H0.342309V236.237ZM85.0297 236.555H42.3505V196.871H85.0297V236.555ZM42.6791 236.237H84.6737V197.189H42.6791V236.237ZM127.366 236.555H84.6873V196.871H127.366V236.555ZM85.0297 236.237H127.024V197.189H85.0297V236.237ZM169.717 236.555H127.038V196.871H169.717V236.555ZM127.366 236.237H169.361V197.189H127.366V236.237ZM212.054 236.555H169.375V196.871H212.054V236.555ZM169.717 236.237H211.712V197.189H169.717V236.237ZM254.404 236.555H211.725V196.871H254.404V236.555ZM212.054 236.237H254.048V197.189H212.054V236.237ZM296.741 236.555H254.062V196.871H296.741V236.555ZM254.404 236.237H296.399V197.189H254.404V236.237ZM339.092 236.555H296.413V196.871H339.092V236.555ZM296.741 236.237H338.736V197.189H296.741V236.237ZM381.429 236.555H338.749V196.871H381.429V236.555ZM339.092 236.237H381.086V197.189H339.092V236.237ZM423.765 236.555H381.086V196.871H423.765V236.555ZM381.429 236.237H423.423V197.189H381.429V236.237ZM466.116 236.555H423.437V196.871H466.116V236.555ZM423.765 236.237H465.76V197.189H423.765V236.237ZM508.453 236.555H465.774V196.871H508.453V236.555ZM466.116 236.237H508.11V197.189H466.116V236.237ZM550.803 236.555H508.124V196.871H550.803V236.555ZM508.453 236.237H550.447V197.189H508.453V236.237ZM593.14 236.555H550.461V196.871H593.14V236.555ZM550.803 236.237H592.798V197.189H550.803V236.237ZM635.491 236.555H592.811V196.871H635.491V236.555ZM593.14 236.237H635.135V197.189H593.14V236.237ZM677.827 236.555H635.148V196.871H677.827V236.555ZM635.491 236.237H677.485V197.189H635.491V236.237ZM720.164 236.555H677.485V196.871H720.164V236.555ZM677.827 236.237H719.822V197.189H677.827V236.237ZM762.515 236.555H719.836V196.871H762.515V236.555ZM720.164 236.237H762.159V197.189H720.164V236.237ZM804.852 236.555H762.173V196.871H804.852V236.555ZM762.515 236.237H804.509V197.189H762.515V236.237ZM847.202 236.555H804.523V196.871H847.202V236.555ZM804.852 236.237H846.846V197.189H804.852V236.237ZM889.539 236.555H846.86V196.871H889.539V236.555ZM847.202 236.237H889.197V197.189H847.202V236.237ZM931.89 236.555H889.21V196.871H931.89V236.555ZM889.539 236.237H931.534V197.189H889.539V236.237ZM974.226 236.555H931.547V196.871H974.226V236.555ZM931.89 236.237H973.884V197.189H931.89V236.237ZM1016.56 236.555H973.884V196.871H1016.56V236.555ZM974.226 236.237H1016.22V197.189H974.226V236.237ZM1058.91 236.555H1016.23V196.871H1058.91V236.555ZM1016.56 236.237H1058.56V197.189H1016.56V236.237ZM1101.25 236.555H1058.57V196.871H1101.25V236.555ZM1058.91 236.237H1100.91V197.189H1058.91V236.237ZM1143.6 236.555H1100.92V196.871H1143.6V236.555ZM1101.25 236.237H1143.25V197.189H1101.25V236.237ZM1185.94 236.555H1143.26V196.871H1185.94V236.555ZM1143.6 236.237H1185.6V197.189H1143.6V236.237ZM1228.29 236.555H1185.61V196.871H1228.29V236.555ZM1185.94 236.237H1227.93V197.189H1185.94V236.237ZM1270.63 236.555H1227.95V196.871H1270.63V236.555ZM1228.29 236.237H1270.28V197.189H1228.29V236.237ZM1312.98 236.555H1270.3V196.871H1312.98V236.555ZM1270.63 236.237H1312.62V197.189H1270.63V236.237ZM1355.31 236.555H1312.63V196.871H1355.31V236.555ZM1312.98 236.237H1354.97V197.189H1312.98V236.237ZM1397.65 236.555H1354.97V196.871H1397.65V236.555ZM1355.31 236.237H1397.31V197.189H1355.31V236.237ZM1440 236.555H1397.32V196.871H1440V236.555ZM1397.65 236.237H1439.64V197.189H1397.65V236.237ZM42.6791 275.922H0V236.237H42.6791V275.922ZM0.342309 275.604H42.3368V236.555H0.342309V275.604ZM85.0297 275.922H42.3505V236.237H85.0297V275.922ZM42.6791 275.604H84.6737V236.555H42.6791V275.604ZM127.366 275.922H84.6873V236.237H127.366V275.922ZM85.0297 275.604H127.024V236.555H85.0297V275.604ZM169.717 275.922H127.038V236.237H169.717V275.922ZM127.366 275.604H169.361V236.555H127.366V275.604ZM212.054 275.922H169.375V236.237H212.054V275.922ZM169.717 275.604H211.712V236.555H169.717V275.604ZM254.404 275.922H211.725V236.237H254.404V275.922ZM212.054 275.604H254.048V236.555H212.054V275.604ZM296.741 275.922H254.062V236.237H296.741V275.922ZM254.404 275.604H296.399V236.555H254.404V275.604ZM339.092 275.922H296.413V236.237H339.092V275.922ZM296.741 275.604H338.736V236.555H296.741V275.604ZM381.429 275.922H338.749V236.237H381.429V275.922ZM339.092 275.604H381.086V236.555H339.092V275.604ZM423.765 275.922H381.086V236.237H423.765V275.922ZM381.429 275.604H423.423V236.555H381.429V275.604ZM466.116 275.922H423.437V236.237H466.116V275.922ZM423.765 275.604H465.76V236.555H423.765V275.604ZM508.453 275.922H465.774V236.237H508.453V275.922ZM466.116 275.604H508.11V236.555H466.116V275.604ZM550.803 275.922H508.124V236.237H550.803V275.922ZM508.453 275.604H550.447V236.555H508.453V275.604ZM593.14 275.922H550.461V236.237H593.14V275.922ZM550.803 275.604H592.798V236.555H550.803V275.604ZM635.491 275.922H592.811V236.237H635.491V275.922ZM593.14 275.604H635.135V236.555H593.14V275.604ZM677.827 275.922H635.148V236.237H677.827V275.922ZM635.491 275.604H677.485V236.555H635.491V275.604ZM720.164 275.922H677.485V236.237H720.164V275.922ZM677.827 275.604H719.822V236.555H677.827V275.604ZM762.515 275.922H719.836V236.237H762.515V275.922ZM720.164 275.604H762.159V236.555H720.164V275.604ZM804.852 275.922H762.173V236.237H804.852V275.922ZM762.515 275.604H804.509V236.555H762.515V275.604ZM847.202 275.922H804.523V236.237H847.202V275.922ZM804.852 275.604H846.846V236.555H804.852V275.604ZM889.539 275.922H846.86V236.237H889.539V275.922ZM847.202 275.604H889.197V236.555H847.202V275.604ZM931.89 275.922H889.21V236.237H931.89V275.922ZM889.539 275.604H931.534V236.555H889.539V275.604ZM974.226 275.922H931.547V236.237H974.226V275.922ZM931.89 275.604H973.884V236.555H931.89V275.604ZM1016.56 275.922H973.884V236.237H1016.56V275.922ZM974.226 275.604H1016.22V236.555H974.226V275.604ZM1058.91 275.922H1016.23V236.237H1058.91V275.922ZM1016.56 275.604H1058.56V236.555H1016.56V275.604ZM1101.25 275.922H1058.57V236.237H1101.25V275.922ZM1058.91 275.604H1100.91V236.555H1058.91V275.604ZM1143.6 275.922H1100.92V236.237H1143.6V275.922ZM1101.25 275.604H1143.25V236.555H1101.25V275.604ZM1185.94 275.922H1143.26V236.237H1185.94V275.922ZM1143.6 275.604H1185.6V236.555H1143.6V275.604ZM1228.29 275.922H1185.61V236.237H1228.29V275.922ZM1185.94 275.604H1227.93V236.555H1185.94V275.604ZM1270.63 275.922H1227.95V236.237H1270.63V275.922ZM1228.29 275.604H1270.28V236.555H1228.29V275.604ZM1312.98 275.922H1270.3V236.237H1312.98V275.922ZM1270.63 275.604H1312.62V236.555H1270.63V275.604ZM1355.31 275.922H1312.63V236.237H1355.31V275.922ZM1312.98 275.604H1354.97V236.555H1312.98V275.604ZM1397.65 275.922H1354.97V236.237H1397.65V275.922ZM1355.31 275.604H1397.31V236.555H1355.31V275.604ZM1440 275.922H1397.32V236.237H1440V275.922ZM1397.65 275.604H1439.64V236.555H1397.65V275.604ZM42.6791 315.301H0V275.616H42.6791V315.301ZM0.342309 314.983H42.3368V275.935H0.342309V314.983ZM85.0297 315.301H42.3505V275.616H85.0297V315.301ZM42.6791 314.983H84.6737V275.935H42.6791V314.983ZM127.366 315.301H84.6873V275.616H127.366V315.301ZM85.0297 314.983H127.024V275.935H85.0297V314.983ZM169.717 315.301H127.038V275.616H169.717V315.301ZM127.366 314.983H169.361V275.935H127.366V314.983ZM212.054 315.301H169.375V275.616H212.054V315.301ZM169.717 314.983H211.712V275.935H169.717V314.983ZM254.404 315.301H211.725V275.616H254.404V315.301ZM212.054 314.983H254.048V275.935H212.054V314.983ZM296.741 315.301H254.062V275.616H296.741V315.301ZM254.404 314.983H296.399V275.935H254.404V314.983ZM339.092 315.301H296.413V275.616H339.092V315.301ZM296.741 314.983H338.736V275.935H296.741V314.983ZM381.429 315.301H338.749V275.616H381.429V315.301ZM339.092 314.983H381.086V275.935H339.092V314.983ZM423.765 315.301H381.086V275.616H423.765V315.301ZM381.429 314.983H423.423V275.935H381.429V314.983ZM466.116 315.301H423.437V275.616H466.116V315.301ZM423.765 314.983H465.76V275.935H423.765V314.983ZM508.453 315.301H465.774V275.616H508.453V315.301ZM466.116 314.983H508.11V275.935H466.116V314.983ZM550.803 315.301H508.124V275.616H550.803V315.301ZM508.453 314.983H550.447V275.935H508.453V314.983ZM593.14 315.301H550.461V275.616H593.14V315.301ZM550.803 314.983H592.798V275.935H550.803V314.983ZM635.491 315.301H592.811V275.616H635.491V315.301ZM593.14 314.983H635.135V275.935H593.14V314.983ZM677.827 315.301H635.148V275.616H677.827V315.301ZM635.491 314.983H677.485V275.935H635.491V314.983ZM720.164 315.301H677.485V275.616H720.164V315.301ZM677.827 314.983H719.822V275.935H677.827V314.983ZM762.515 315.301H719.836V275.616H762.515V315.301ZM720.164 314.983H762.159V275.935H720.164V314.983ZM804.852 315.301H762.173V275.616H804.852V315.301ZM762.515 314.983H804.509V275.935H762.515V314.983ZM847.202 315.301H804.523V275.616H847.202V315.301ZM804.852 314.983H846.846V275.935H804.852V314.983ZM889.539 315.301H846.86V275.616H889.539V315.301ZM847.202 314.983H889.197V275.935H847.202V314.983ZM931.89 315.301H889.21V275.616H931.89V315.301ZM889.539 314.983H931.534V275.935H889.539V314.983ZM974.226 315.301H931.547V275.616H974.226V315.301ZM931.89 314.983H973.884V275.935H931.89V314.983ZM1016.56 315.301H973.884V275.616H1016.56V315.301ZM974.226 314.983H1016.22V275.935H974.226V314.983ZM1058.91 315.301H1016.23V275.616H1058.91V315.301ZM1016.56 314.983H1058.56V275.935H1016.56V314.983ZM1101.25 315.301H1058.57V275.616H1101.25V315.301ZM1058.91 314.983H1100.91V275.935H1058.91V314.983ZM1143.6 315.301H1100.92V275.616H1143.6V315.301ZM1101.25 314.983H1143.25V275.935H1101.25V314.983ZM1185.94 315.301H1143.26V275.616H1185.94V315.301ZM1143.6 314.983H1185.6V275.935H1143.6V314.983ZM1228.29 315.301H1185.61V275.616H1228.29V315.301ZM1185.94 314.983H1227.93V275.935H1185.94V314.983ZM1270.63 315.301H1227.95V275.616H1270.63V315.301ZM1228.29 314.983H1270.28V275.935H1228.29V314.983ZM1312.98 315.301H1270.3V275.616H1312.98V315.301ZM1270.63 314.983H1312.62V275.935H1270.63V314.983ZM1355.31 315.301H1312.63V275.616H1355.31V315.301ZM1312.98 314.983H1354.97V275.935H1312.98V314.983ZM1397.65 315.301H1354.97V275.616H1397.65V315.301ZM1355.31 314.983H1397.31V275.935H1355.31V314.983ZM1440 315.301H1397.32V275.616H1440V315.301ZM1397.65 314.983H1439.64V275.935H1397.65V314.983ZM42.6791 354.668H0V314.983H42.6791V354.668ZM0.342309 354.349H42.3368V315.301H0.342309V354.349ZM85.0297 354.668H42.3505V314.983H85.0297V354.668ZM42.6791 354.349H84.6737V315.301H42.6791V354.349ZM127.366 354.668H84.6873V314.983H127.366V354.668ZM85.0297 354.349H127.024V315.301H85.0297V354.349ZM169.717 354.668H127.038V314.983H169.717V354.668ZM127.366 354.349H169.361V315.301H127.366V354.349ZM212.054 354.668H169.375V314.983H212.054V354.668ZM169.717 354.349H211.712V315.301H169.717V354.349ZM254.404 354.668H211.725V314.983H254.404V354.668ZM212.054 354.349H254.048V315.301H212.054V354.349ZM296.741 354.668H254.062V314.983H296.741V354.668ZM254.404 354.349H296.399V315.301H254.404V354.349ZM339.092 354.668H296.413V314.983H339.092V354.668ZM296.741 354.349H338.736V315.301H296.741V354.349ZM381.429 354.668H338.749V314.983H381.429V354.668ZM339.092 354.349H381.086V315.301H339.092V354.349ZM423.765 354.668H381.086V314.983H423.765V354.668ZM381.429 354.349H423.423V315.301H381.429V354.349ZM466.116 354.668H423.437V314.983H466.116V354.668ZM423.765 354.349H465.76V315.301H423.765V354.349ZM508.453 354.668H465.774V314.983H508.453V354.668ZM466.116 354.349H508.11V315.301H466.116V354.349ZM550.803 354.668H508.124V314.983H550.803V354.668ZM508.453 354.349H550.447V315.301H508.453V354.349ZM593.14 354.668H550.461V314.983H593.14V354.668ZM550.803 354.349H592.798V315.301H550.803V354.349ZM635.491 354.668H592.811V314.983H635.491V354.668ZM593.14 354.349H635.135V315.301H593.14V354.349ZM677.827 354.668H635.148V314.983H677.827V354.668ZM635.491 354.349H677.485V315.301H635.491V354.349ZM720.164 354.668H677.485V314.983H720.164V354.668ZM677.827 354.349H719.822V315.301H677.827V354.349ZM762.515 354.668H719.836V314.983H762.515V354.668ZM720.164 354.349H762.159V315.301H720.164V354.349ZM804.852 354.668H762.173V314.983H804.852V354.668ZM762.515 354.349H804.509V315.301H762.515V354.349ZM847.202 354.668H804.523V314.983H847.202V354.668ZM804.852 354.349H846.846V315.301H804.852V354.349ZM889.539 354.668H846.86V314.983H889.539V354.668ZM847.202 354.349H889.197V315.301H847.202V354.349ZM931.89 354.668H889.21V314.983H931.89V354.668ZM889.539 354.349H931.534V315.301H889.539V354.349ZM974.226 354.668H931.547V314.983H974.226V354.668ZM931.89 354.349H973.884V315.301H931.89V354.349ZM1016.56 354.668H973.884V314.983H1016.56V354.668ZM974.226 354.349H1016.22V315.301H974.226V354.349ZM1058.91 354.668H1016.23V314.983H1058.91V354.668ZM1016.56 354.349H1058.56V315.301H1016.56V354.349ZM1101.25 354.668H1058.57V314.983H1101.25V354.668ZM1058.91 354.349H1100.91V315.301H1058.91V354.349ZM1143.6 354.668H1100.92V314.983H1143.6V354.668ZM1101.25 354.349H1143.25V315.301H1101.25V354.349ZM1185.94 354.668H1143.26V314.983H1185.94V354.668ZM1143.6 354.349H1185.6V315.301H1143.6V354.349ZM1228.29 354.668H1185.61V314.983H1228.29V354.668ZM1185.94 354.349H1227.93V315.301H1185.94V354.349ZM1270.63 354.668H1227.95V314.983H1270.63V354.668ZM1228.29 354.349H1270.28V315.301H1228.29V354.349ZM1312.98 354.668H1270.3V314.983H1312.98V354.668ZM1270.63 354.349H1312.62V315.301H1270.63V354.349ZM1355.31 354.668H1312.63V314.983H1355.31V354.668ZM1312.98 354.349H1354.97V315.301H1312.98V354.349ZM1397.65 354.668H1354.97V314.983H1397.65V354.668ZM1355.31 354.349H1397.31V315.301H1355.31V354.349ZM1440 354.668H1397.32V314.983H1440V354.668ZM1397.65 354.349H1439.64V315.301H1397.65V354.349ZM42.6791 394.034H0V354.349H42.6791V394.034ZM0.342309 393.716H42.3368V354.668H0.342309V393.716ZM85.0297 394.034H42.3505V354.349H85.0297V394.034ZM42.6791 393.716H84.6737V354.668H42.6791V393.716ZM127.366 394.034H84.6873V354.349H127.366V394.034ZM85.0297 393.716H127.024V354.668H85.0297V393.716ZM169.717 394.034H127.038V354.349H169.717V394.034ZM127.366 393.716H169.361V354.668H127.366V393.716ZM212.054 394.034H169.375V354.349H212.054V394.034ZM169.717 393.716H211.712V354.668H169.717V393.716ZM254.404 394.034H211.725V354.349H254.404V394.034ZM212.054 393.716H254.048V354.668H212.054V393.716ZM296.741 394.034H254.062V354.349H296.741V394.034ZM254.404 393.716H296.399V354.668H254.404V393.716ZM339.092 394.034H296.413V354.349H339.092V394.034ZM296.741 393.716H338.736V354.668H296.741V393.716ZM381.429 394.034H338.749V354.349H381.429V394.034ZM339.092 393.716H381.086V354.668H339.092V393.716ZM423.765 394.034H381.086V354.349H423.765V394.034ZM381.429 393.716H423.423V354.668H381.429V393.716ZM466.116 394.034H423.437V354.349H466.116V394.034ZM423.765 393.716H465.76V354.668H423.765V393.716ZM508.453 394.034H465.774V354.349H508.453V394.034ZM466.116 393.716H508.11V354.668H466.116V393.716ZM550.803 394.034H508.124V354.349H550.803V394.034ZM508.453 393.716H550.447V354.668H508.453V393.716ZM593.14 394.034H550.461V354.349H593.14V394.034ZM550.803 393.716H592.798V354.668H550.803V393.716ZM635.491 394.034H592.811V354.349H635.491V394.034ZM593.14 393.716H635.135V354.668H593.14V393.716ZM677.827 394.034H635.148V354.349H677.827V394.034ZM635.491 393.716H677.485V354.668H635.491V393.716ZM720.164 394.034H677.485V354.349H720.164V394.034ZM677.827 393.716H719.822V354.668H677.827V393.716ZM762.515 394.034H719.836V354.349H762.515V394.034ZM720.164 393.716H762.159V354.668H720.164V393.716ZM804.852 394.034H762.173V354.349H804.852V394.034ZM762.515 393.716H804.509V354.668H762.515V393.716ZM847.202 394.034H804.523V354.349H847.202V394.034ZM804.852 393.716H846.846V354.668H804.852V393.716ZM889.539 394.034H846.86V354.349H889.539V394.034ZM847.202 393.716H889.197V354.668H847.202V393.716ZM931.89 394.034H889.21V354.349H931.89V394.034ZM889.539 393.716H931.534V354.668H889.539V393.716ZM974.226 394.034H931.547V354.349H974.226V394.034ZM931.89 393.716H973.884V354.668H931.89V393.716ZM1016.56 394.034H973.884V354.349H1016.56V394.034ZM974.226 393.716H1016.22V354.668H974.226V393.716ZM1058.91 394.034H1016.23V354.349H1058.91V394.034ZM1016.56 393.716H1058.56V354.668H1016.56V393.716ZM1101.25 394.034H1058.57V354.349H1101.25V394.034ZM1058.91 393.716H1100.91V354.668H1058.91V393.716ZM1143.6 394.034H1100.92V354.349H1143.6V394.034ZM1101.25 393.716H1143.25V354.668H1101.25V393.716ZM1185.94 394.034H1143.26V354.349H1185.94V394.034ZM1143.6 393.716H1185.6V354.668H1143.6V393.716ZM1228.29 394.034H1185.61V354.349H1228.29V394.034ZM1185.94 393.716H1227.93V354.668H1185.94V393.716ZM1270.63 394.034H1227.95V354.349H1270.63V394.034ZM1228.29 393.716H1270.28V354.668H1228.29V393.716ZM1312.98 394.034H1270.3V354.349H1312.98V394.034ZM1270.63 393.716H1312.62V354.668H1270.63V393.716ZM1355.31 394.034H1312.63V354.349H1355.31V394.034ZM1312.98 393.716H1354.97V354.668H1312.98V393.716ZM1397.65 394.034H1354.97V354.349H1397.65V394.034ZM1355.31 393.716H1397.31V354.668H1355.31V393.716ZM1440 394.034H1397.32V354.349H1440V394.034ZM1397.65 393.716H1439.64V354.668H1397.65V393.716ZM42.6791 433.413H0V393.729H42.6791V433.413ZM0.342309 433.095H42.3368V394.047H0.342309V433.095ZM85.0297 433.413H42.3505V393.729H85.0297V433.413ZM42.6791 433.095H84.6737V394.047H42.6791V433.095ZM127.366 433.413H84.6873V393.729H127.366V433.413ZM85.0297 433.095H127.024V394.047H85.0297V433.095ZM169.717 433.413H127.038V393.729H169.717V433.413ZM127.366 433.095H169.361V394.047H127.366V433.095ZM212.054 433.413H169.375V393.729H212.054V433.413ZM169.717 433.095H211.712V394.047H169.717V433.095ZM254.404 433.413H211.725V393.729H254.404V433.413ZM212.054 433.095H254.048V394.047H212.054V433.095ZM296.741 433.413H254.062V393.729H296.741V433.413ZM254.404 433.095H296.399V394.047H254.404V433.095ZM339.092 433.413H296.413V393.729H339.092V433.413ZM296.741 433.095H338.736V394.047H296.741V433.095ZM381.429 433.413H338.749V393.729H381.429V433.413ZM339.092 433.095H381.086V394.047H339.092V433.095ZM423.765 433.413H381.086V393.729H423.765V433.413ZM381.429 433.095H423.423V394.047H381.429V433.095ZM466.116 433.413H423.437V393.729H466.116V433.413ZM423.765 433.095H465.76V394.047H423.765V433.095ZM508.453 433.413H465.774V393.729H508.453V433.413ZM466.116 433.095H508.11V394.047H466.116V433.095ZM550.803 433.413H508.124V393.729H550.803V433.413ZM508.453 433.095H550.447V394.047H508.453V433.095ZM593.14 433.413H550.461V393.729H593.14V433.413ZM550.803 433.095H592.798V394.047H550.803V433.095ZM635.491 433.413H592.811V393.729H635.491V433.413ZM593.14 433.095H635.135V394.047H593.14V433.095ZM677.827 433.413H635.148V393.729H677.827V433.413ZM635.491 433.095H677.485V394.047H635.491V433.095ZM720.164 433.413H677.485V393.729H720.164V433.413ZM677.827 433.095H719.822V394.047H677.827V433.095ZM762.515 433.413H719.836V393.729H762.515V433.413ZM720.164 433.095H762.159V394.047H720.164V433.095ZM804.852 433.413H762.173V393.729H804.852V433.413ZM762.515 433.095H804.509V394.047H762.515V433.095ZM847.202 433.413H804.523V393.729H847.202V433.413ZM804.852 433.095H846.846V394.047H804.852V433.095ZM889.539 433.413H846.86V393.729H889.539V433.413ZM847.202 433.095H889.197V394.047H847.202V433.095ZM931.89 433.413H889.21V393.729H931.89V433.413ZM889.539 433.095H931.534V394.047H889.539V433.095ZM974.226 433.413H931.547V393.729H974.226V433.413ZM931.89 433.095H973.884V394.047H931.89V433.095ZM1016.56 433.413H973.884V393.729H1016.56V433.413ZM974.226 433.095H1016.22V394.047H974.226V433.095ZM1058.91 433.413H1016.23V393.729H1058.91V433.413ZM1016.56 433.095H1058.56V394.047H1016.56V433.095ZM1101.25 433.413H1058.57V393.729H1101.25V433.413ZM1058.91 433.095H1100.91V394.047H1058.91V433.095ZM1143.6 433.413H1100.92V393.729H1143.6V433.413ZM1101.25 433.095H1143.25V394.047H1101.25V433.095ZM1185.94 433.413H1143.26V393.729H1185.94V433.413ZM1143.6 433.095H1185.6V394.047H1143.6V433.095ZM1228.29 433.413H1185.61V393.729H1228.29V433.413ZM1185.94 433.095H1227.93V394.047H1185.94V433.095ZM1270.63 433.413H1227.95V393.729H1270.63V433.413ZM1228.29 433.095H1270.28V394.047H1228.29V433.095ZM1312.98 433.413H1270.3V393.729H1312.98V433.413ZM1270.63 433.095H1312.62V394.047H1270.63V433.095ZM1355.31 433.413H1312.63V393.729H1355.31V433.413ZM1312.98 433.095H1354.97V394.047H1312.98V433.095ZM1397.65 433.413H1354.97V393.729H1397.65V433.413ZM1355.31 433.095H1397.31V394.047H1355.31V433.095ZM1440 433.413H1397.32V393.729H1440V433.413ZM1397.65 433.095H1439.64V394.047H1397.65V433.095ZM42.6791 472.78H0V433.095H42.6791V472.78ZM0.342309 472.462H42.3368V433.413H0.342309V472.462ZM85.0297 472.78H42.3505V433.095H85.0297V472.78ZM42.6791 472.462H84.6737V433.413H42.6791V472.462ZM127.366 472.78H84.6873V433.095H127.366V472.78ZM85.0297 472.462H127.024V433.413H85.0297V472.462ZM169.717 472.78H127.038V433.095H169.717V472.78ZM127.366 472.462H169.361V433.413H127.366V472.462ZM212.054 472.78H169.375V433.095H212.054V472.78ZM169.717 472.462H211.712V433.413H169.717V472.462ZM254.404 472.78H211.725V433.095H254.404V472.78ZM212.054 472.462H254.048V433.413H212.054V472.462ZM296.741 472.78H254.062V433.095H296.741V472.78ZM254.404 472.462H296.399V433.413H254.404V472.462ZM339.092 472.78H296.413V433.095H339.092V472.78ZM296.741 472.462H338.736V433.413H296.741V472.462ZM381.429 472.78H338.749V433.095H381.429V472.78ZM339.092 472.462H381.086V433.413H339.092V472.462ZM423.765 472.78H381.086V433.095H423.765V472.78ZM381.429 472.462H423.423V433.413H381.429V472.462ZM466.116 472.78H423.437V433.095H466.116V472.78ZM423.765 472.462H465.76V433.413H423.765V472.462ZM508.453 472.78H465.774V433.095H508.453V472.78ZM466.116 472.462H508.11V433.413H466.116V472.462ZM550.803 472.78H508.124V433.095H550.803V472.78ZM508.453 472.462H550.447V433.413H508.453V472.462ZM593.14 472.78H550.461V433.095H593.14V472.78ZM550.803 472.462H592.798V433.413H550.803V472.462ZM635.491 472.78H592.811V433.095H635.491V472.78ZM593.14 472.462H635.135V433.413H593.14V472.462ZM677.827 472.78H635.148V433.095H677.827V472.78ZM635.491 472.462H677.485V433.413H635.491V472.462ZM720.164 472.78H677.485V433.095H720.164V472.78ZM677.827 472.462H719.822V433.413H677.827V472.462ZM762.515 472.78H719.836V433.095H762.515V472.78ZM720.164 472.462H762.159V433.413H720.164V472.462ZM804.852 472.78H762.173V433.095H804.852V472.78ZM762.515 472.462H804.509V433.413H762.515V472.462ZM847.202 472.78H804.523V433.095H847.202V472.78ZM804.852 472.462H846.846V433.413H804.852V472.462ZM889.539 472.78H846.86V433.095H889.539V472.78ZM847.202 472.462H889.197V433.413H847.202V472.462ZM931.89 472.78H889.21V433.095H931.89V472.78ZM889.539 472.462H931.534V433.413H889.539V472.462ZM974.226 472.78H931.547V433.095H974.226V472.78ZM931.89 472.462H973.884V433.413H931.89V472.462ZM1016.56 472.78H973.884V433.095H1016.56V472.78ZM974.226 472.462H1016.22V433.413H974.226V472.462ZM1058.91 472.78H1016.23V433.095H1058.91V472.78ZM1016.56 472.462H1058.56V433.413H1016.56V472.462ZM1101.25 472.78H1058.57V433.095H1101.25V472.78ZM1058.91 472.462H1100.91V433.413H1058.91V472.462ZM1143.6 472.78H1100.92V433.095H1143.6V472.78ZM1101.25 472.462H1143.25V433.413H1101.25V472.462ZM1185.94 472.78H1143.26V433.095H1185.94V472.78ZM1143.6 472.462H1185.6V433.413H1143.6V472.462ZM1228.29 472.78H1185.61V433.095H1228.29V472.78ZM1185.94 472.462H1227.93V433.413H1185.94V472.462ZM1270.63 472.78H1227.95V433.095H1270.63V472.78ZM1228.29 472.462H1270.28V433.413H1228.29V472.462ZM1312.98 472.78H1270.3V433.095H1312.98V472.78ZM1270.63 472.462H1312.62V433.413H1270.63V472.462ZM1355.31 472.78H1312.63V433.095H1355.31V472.78ZM1312.98 472.462H1354.97V433.413H1312.98V472.462ZM1397.65 472.78H1354.97V433.095H1397.65V472.78ZM1355.31 472.462H1397.31V433.413H1355.31V472.462ZM1440 472.78H1397.32V433.095H1440V472.78ZM1397.65 472.462H1439.64V433.413H1397.65V472.462ZM42.6791 512.159H0V472.474H42.6791V512.159ZM0.342309 511.841H42.3368V472.793H0.342309V511.841ZM85.0297 512.159H42.3505V472.474H85.0297V512.159ZM42.6791 511.841H84.6737V472.793H42.6791V511.841ZM127.366 512.159H84.6873V472.474H127.366V512.159ZM85.0297 511.841H127.024V472.793H85.0297V511.841ZM169.717 512.159H127.038V472.474H169.717V512.159ZM127.366 511.841H169.361V472.793H127.366V511.841ZM212.054 512.159H169.375V472.474H212.054V512.159ZM169.717 511.841H211.712V472.793H169.717V511.841ZM254.404 512.159H211.725V472.474H254.404V512.159ZM212.054 511.841H254.048V472.793H212.054V511.841ZM296.741 512.159H254.062V472.474H296.741V512.159ZM254.404 511.841H296.399V472.793H254.404V511.841ZM339.092 512.159H296.413V472.474H339.092V512.159ZM296.741 511.841H338.736V472.793H296.741V511.841ZM381.429 512.159H338.749V472.474H381.429V512.159ZM339.092 511.841H381.086V472.793H339.092V511.841ZM423.765 512.159H381.086V472.474H423.765V512.159ZM381.429 511.841H423.423V472.793H381.429V511.841ZM466.116 512.159H423.437V472.474H466.116V512.159ZM423.765 511.841H465.76V472.793H423.765V511.841ZM508.453 512.159H465.774V472.474H508.453V512.159ZM466.116 511.841H508.11V472.793H466.116V511.841ZM550.803 512.159H508.124V472.474H550.803V512.159ZM508.453 511.841H550.447V472.793H508.453V511.841ZM593.14 512.159H550.461V472.474H593.14V512.159ZM550.803 511.841H592.798V472.793H550.803V511.841ZM635.491 512.159H592.811V472.474H635.491V512.159ZM593.14 511.841H635.135V472.793H593.14V511.841ZM677.827 512.159H635.148V472.474H677.827V512.159ZM635.491 511.841H677.485V472.793H635.491V511.841ZM720.164 512.159H677.485V472.474H720.164V512.159ZM677.827 511.841H719.822V472.793H677.827V511.841ZM762.515 512.159H719.836V472.474H762.515V512.159ZM720.164 511.841H762.159V472.793H720.164V511.841ZM804.852 512.159H762.173V472.474H804.852V512.159ZM762.515 511.841H804.509V472.793H762.515V511.841ZM847.202 512.159H804.523V472.474H847.202V512.159ZM804.852 511.841H846.846V472.793H804.852V511.841ZM889.539 512.159H846.86V472.474H889.539V512.159ZM847.202 511.841H889.197V472.793H847.202V511.841ZM931.89 512.159H889.21V472.474H931.89V512.159ZM889.539 511.841H931.534V472.793H889.539V511.841ZM974.226 512.159H931.547V472.474H974.226V512.159ZM931.89 511.841H973.884V472.793H931.89V511.841ZM1016.56 512.159H973.884V472.474H1016.56V512.159ZM974.226 511.841H1016.22V472.793H974.226V511.841ZM1058.91 512.159H1016.23V472.474H1058.91V512.159ZM1016.56 511.841H1058.56V472.793H1016.56V511.841ZM1101.25 512.159H1058.57V472.474H1101.25V512.159ZM1058.91 511.841H1100.91V472.793H1058.91V511.841ZM1143.6 512.159H1100.92V472.474H1143.6V512.159ZM1101.25 511.841H1143.25V472.793H1101.25V511.841ZM1185.94 512.159H1143.26V472.474H1185.94V512.159ZM1143.6 511.841H1185.6V472.793H1143.6V511.841ZM1228.29 512.159H1185.61V472.474H1228.29V512.159ZM1185.94 511.841H1227.93V472.793H1185.94V511.841ZM1270.63 512.159H1227.95V472.474H1270.63V512.159ZM1228.29 511.841H1270.28V472.793H1228.29V511.841ZM1312.98 512.159H1270.3V472.474H1312.98V512.159ZM1270.63 511.841H1312.62V472.793H1270.63V511.841ZM1355.31 512.159H1312.63V472.474H1355.31V512.159ZM1312.98 511.841H1354.97V472.793H1312.98V511.841ZM1397.65 512.159H1354.97V472.474H1397.65V512.159ZM1355.31 511.841H1397.31V472.793H1355.31V511.841ZM1440 512.159H1397.32V472.474H1440V512.159ZM1397.65 511.841H1439.64V472.793H1397.65V511.841ZM42.6791 551.526H0V511.841H42.6791V551.526ZM0.342309 551.207H42.3368V512.159H0.342309V551.207ZM85.0297 551.526H42.3505V511.841H85.0297V551.526ZM42.6791 551.207H84.6737V512.159H42.6791V551.207ZM127.366 551.526H84.6873V511.841H127.366V551.526ZM85.0297 551.207H127.024V512.159H85.0297V551.207ZM169.717 551.526H127.038V511.841H169.717V551.526ZM127.366 551.207H169.361V512.159H127.366V551.207ZM212.054 551.526H169.375V511.841H212.054V551.526ZM169.717 551.207H211.712V512.159H169.717V551.207ZM254.404 551.526H211.725V511.841H254.404V551.526ZM212.054 551.207H254.048V512.159H212.054V551.207ZM296.741 551.526H254.062V511.841H296.741V551.526ZM254.404 551.207H296.399V512.159H254.404V551.207ZM339.092 551.526H296.413V511.841H339.092V551.526ZM296.741 551.207H338.736V512.159H296.741V551.207ZM381.429 551.526H338.749V511.841H381.429V551.526ZM339.092 551.207H381.086V512.159H339.092V551.207ZM423.765 551.526H381.086V511.841H423.765V551.526ZM381.429 551.207H423.423V512.159H381.429V551.207ZM466.116 551.526H423.437V511.841H466.116V551.526ZM423.765 551.207H465.76V512.159H423.765V551.207ZM508.453 551.526H465.774V511.841H508.453V551.526ZM466.116 551.207H508.11V512.159H466.116V551.207ZM550.803 551.526H508.124V511.841H550.803V551.526ZM508.453 551.207H550.447V512.159H508.453V551.207ZM593.14 551.526H550.461V511.841H593.14V551.526ZM550.803 551.207H592.798V512.159H550.803V551.207ZM635.491 551.526H592.811V511.841H635.491V551.526ZM593.14 551.207H635.135V512.159H593.14V551.207ZM677.827 551.526H635.148V511.841H677.827V551.526ZM635.491 551.207H677.485V512.159H635.491V551.207ZM720.164 551.526H677.485V511.841H720.164V551.526ZM677.827 551.207H719.822V512.159H677.827V551.207ZM762.515 551.526H719.836V511.841H762.515V551.526ZM720.164 551.207H762.159V512.159H720.164V551.207ZM804.852 551.526H762.173V511.841H804.852V551.526ZM762.515 551.207H804.509V512.159H762.515V551.207ZM847.202 551.526H804.523V511.841H847.202V551.526ZM804.852 551.207H846.846V512.159H804.852V551.207ZM889.539 551.526H846.86V511.841H889.539V551.526ZM847.202 551.207H889.197V512.159H847.202V551.207ZM931.89 551.526H889.21V511.841H931.89V551.526ZM889.539 551.207H931.534V512.159H889.539V551.207ZM974.226 551.526H931.547V511.841H974.226V551.526ZM931.89 551.207H973.884V512.159H931.89V551.207ZM1016.56 551.526H973.884V511.841H1016.56V551.526ZM974.226 551.207H1016.22V512.159H974.226V551.207ZM1058.91 551.526H1016.23V511.841H1058.91V551.526ZM1016.56 551.207H1058.56V512.159H1016.56V551.207ZM1101.25 551.526H1058.57V511.841H1101.25V551.526ZM1058.91 551.207H1100.91V512.159H1058.91V551.207ZM1143.6 551.526H1100.92V511.841H1143.6V551.526ZM1101.25 551.207H1143.25V512.159H1101.25V551.207ZM1185.94 551.526H1143.26V511.841H1185.94V551.526ZM1143.6 551.207H1185.6V512.159H1143.6V551.207ZM1228.29 551.526H1185.61V511.841H1228.29V551.526ZM1185.94 551.207H1227.93V512.159H1185.94V551.207ZM1270.63 551.526H1227.95V511.841H1270.63V551.526ZM1228.29 551.207H1270.28V512.159H1228.29V551.207ZM1312.98 551.526H1270.3V511.841H1312.98V551.526ZM1270.63 551.207H1312.62V512.159H1270.63V551.207ZM1355.31 551.526H1312.63V511.841H1355.31V551.526ZM1312.98 551.207H1354.97V512.159H1312.98V551.207ZM1397.65 551.526H1354.97V511.841H1397.65V551.526ZM1355.31 551.207H1397.31V512.159H1355.31V551.207ZM1440 551.526H1397.32V511.841H1440V551.526ZM1397.65 551.207H1439.64V512.159H1397.65V551.207ZM42.6791 590.905H0V551.22H42.6791V590.905ZM0.342309 590.587H42.3368V551.538H0.342309V590.587ZM85.0297 590.905H42.3505V551.22H85.0297V590.905ZM42.6791 590.587H84.6737V551.538H42.6791V590.587ZM127.366 590.905H84.6873V551.22H127.366V590.905ZM85.0297 590.587H127.024V551.538H85.0297V590.587ZM169.717 590.905H127.038V551.22H169.717V590.905ZM127.366 590.587H169.361V551.538H127.366V590.587ZM212.054 590.905H169.375V551.22H212.054V590.905ZM169.717 590.587H211.712V551.538H169.717V590.587ZM254.404 590.905H211.725V551.22H254.404V590.905ZM212.054 590.587H254.048V551.538H212.054V590.587ZM296.741 590.905H254.062V551.22H296.741V590.905ZM254.404 590.587H296.399V551.538H254.404V590.587ZM339.092 590.905H296.413V551.22H339.092V590.905ZM296.741 590.587H338.736V551.538H296.741V590.587ZM381.429 590.905H338.749V551.22H381.429V590.905ZM339.092 590.587H381.086V551.538H339.092V590.587ZM423.765 590.905H381.086V551.22H423.765V590.905ZM381.429 590.587H423.423V551.538H381.429V590.587ZM466.116 590.905H423.437V551.22H466.116V590.905ZM423.765 590.587H465.76V551.538H423.765V590.587ZM508.453 590.905H465.774V551.22H508.453V590.905ZM466.116 590.587H508.11V551.538H466.116V590.587ZM550.803 590.905H508.124V551.22H550.803V590.905ZM508.453 590.587H550.447V551.538H508.453V590.587ZM593.14 590.905H550.461V551.22H593.14V590.905ZM550.803 590.587H592.798V551.538H550.803V590.587ZM635.491 590.905H592.811V551.22H635.491V590.905ZM593.14 590.587H635.135V551.538H593.14V590.587ZM677.827 590.905H635.148V551.22H677.827V590.905ZM635.491 590.587H677.485V551.538H635.491V590.587ZM720.164 590.905H677.485V551.22H720.164V590.905ZM677.827 590.587H719.822V551.538H677.827V590.587ZM762.515 590.905H719.836V551.22H762.515V590.905ZM720.164 590.587H762.159V551.538H720.164V590.587ZM804.852 590.905H762.173V551.22H804.852V590.905ZM762.515 590.587H804.509V551.538H762.515V590.587ZM847.202 590.905H804.523V551.22H847.202V590.905ZM804.852 590.587H846.846V551.538H804.852V590.587ZM889.539 590.905H846.86V551.22H889.539V590.905ZM847.202 590.587H889.197V551.538H847.202V590.587ZM931.89 590.905H889.21V551.22H931.89V590.905ZM889.539 590.587H931.534V551.538H889.539V590.587ZM974.226 590.905H931.547V551.22H974.226V590.905ZM931.89 590.587H973.884V551.538H931.89V590.587ZM1016.56 590.905H973.884V551.22H1016.56V590.905ZM974.226 590.587H1016.22V551.538H974.226V590.587ZM1058.91 590.905H1016.23V551.22H1058.91V590.905ZM1016.56 590.587H1058.56V551.538H1016.56V590.587ZM1101.25 590.905H1058.57V551.22H1101.25V590.905ZM1058.91 590.587H1100.91V551.538H1058.91V590.587ZM1143.6 590.905H1100.92V551.22H1143.6V590.905ZM1101.25 590.587H1143.25V551.538H1101.25V590.587ZM1185.94 590.905H1143.26V551.22H1185.94V590.905ZM1143.6 590.587H1185.6V551.538H1143.6V590.587ZM1228.29 590.905H1185.61V551.22H1228.29V590.905ZM1185.94 590.587H1227.93V551.538H1185.94V590.587ZM1270.63 590.905H1227.95V551.22H1270.63V590.905ZM1228.29 590.587H1270.28V551.538H1228.29V590.587ZM1312.98 590.905H1270.3V551.22H1312.98V590.905ZM1270.63 590.587H1312.62V551.538H1270.63V590.587ZM1355.31 590.905H1312.63V551.22H1355.31V590.905ZM1312.98 590.587H1354.97V551.538H1312.98V590.587ZM1397.65 590.905H1354.97V551.22H1397.65V590.905ZM1355.31 590.587H1397.31V551.538H1355.31V590.587ZM1440 590.905H1397.32V551.22H1440V590.905ZM1397.65 590.587H1439.64V551.538H1397.65V590.587ZM42.6791 630.271H0V590.587H42.6791V630.271ZM0.342309 629.953H42.3368V590.905H0.342309V629.953ZM85.0297 630.271H42.3505V590.587H85.0297V630.271ZM42.6791 629.953H84.6737V590.905H42.6791V629.953ZM127.366 630.271H84.6873V590.587H127.366V630.271ZM85.0297 629.953H127.024V590.905H85.0297V629.953ZM169.717 630.271H127.038V590.587H169.717V630.271ZM127.366 629.953H169.361V590.905H127.366V629.953ZM212.054 630.271H169.375V590.587H212.054V630.271ZM169.717 629.953H211.712V590.905H169.717V629.953ZM254.404 630.271H211.725V590.587H254.404V630.271ZM212.054 629.953H254.048V590.905H212.054V629.953ZM296.741 630.271H254.062V590.587H296.741V630.271ZM254.404 629.953H296.399V590.905H254.404V629.953ZM339.092 630.271H296.413V590.587H339.092V630.271ZM296.741 629.953H338.736V590.905H296.741V629.953ZM381.429 630.271H338.749V590.587H381.429V630.271ZM339.092 629.953H381.086V590.905H339.092V629.953ZM423.765 630.271H381.086V590.587H423.765V630.271ZM381.429 629.953H423.423V590.905H381.429V629.953ZM466.116 630.271H423.437V590.587H466.116V630.271ZM423.765 629.953H465.76V590.905H423.765V629.953ZM508.453 630.271H465.774V590.587H508.453V630.271ZM466.116 629.953H508.11V590.905H466.116V629.953ZM550.803 630.271H508.124V590.587H550.803V630.271ZM508.453 629.953H550.447V590.905H508.453V629.953ZM593.14 630.271H550.461V590.587H593.14V630.271ZM550.803 629.953H592.798V590.905H550.803V629.953ZM635.491 630.271H592.811V590.587H635.491V630.271ZM593.14 629.953H635.135V590.905H593.14V629.953ZM677.827 630.271H635.148V590.587H677.827V630.271ZM635.491 629.953H677.485V590.905H635.491V629.953ZM720.164 630.271H677.485V590.587H720.164V630.271ZM677.827 629.953H719.822V590.905H677.827V629.953ZM762.515 630.271H719.836V590.587H762.515V630.271ZM720.164 629.953H762.159V590.905H720.164V629.953ZM804.852 630.271H762.173V590.587H804.852V630.271ZM762.515 629.953H804.509V590.905H762.515V629.953ZM847.202 630.271H804.523V590.587H847.202V630.271ZM804.852 629.953H846.846V590.905H804.852V629.953ZM889.539 630.271H846.86V590.587H889.539V630.271ZM847.202 629.953H889.197V590.905H847.202V629.953ZM931.89 630.271H889.21V590.587H931.89V630.271ZM889.539 629.953H931.534V590.905H889.539V629.953ZM974.226 630.271H931.547V590.587H974.226V630.271ZM931.89 629.953H973.884V590.905H931.89V629.953ZM1016.56 630.271H973.884V590.587H1016.56V630.271ZM974.226 629.953H1016.22V590.905H974.226V629.953ZM1058.91 630.271H1016.23V590.587H1058.91V630.271ZM1016.56 629.953H1058.56V590.905H1016.56V629.953ZM1101.25 630.271H1058.57V590.587H1101.25V630.271ZM1058.91 629.953H1100.91V590.905H1058.91V629.953ZM1143.6 630.271H1100.92V590.587H1143.6V630.271ZM1101.25 629.953H1143.25V590.905H1101.25V629.953ZM1185.94 630.271H1143.26V590.587H1185.94V630.271ZM1143.6 629.953H1185.6V590.905H1143.6V629.953ZM1228.29 630.271H1185.61V590.587H1228.29V630.271ZM1185.94 629.953H1227.93V590.905H1185.94V629.953ZM1270.63 630.271H1227.95V590.587H1270.63V630.271ZM1228.29 629.953H1270.28V590.905H1228.29V629.953ZM1312.98 630.271H1270.3V590.587H1312.98V630.271ZM1270.63 629.953H1312.62V590.905H1270.63V629.953ZM1355.31 630.271H1312.63V590.587H1355.31V630.271ZM1312.98 629.953H1354.97V590.905H1312.98V629.953ZM1397.65 630.271H1354.97V590.587H1397.65V630.271ZM1355.31 629.953H1397.31V590.905H1355.31V629.953ZM1440 630.271H1397.32V590.587H1440V630.271ZM1397.65 629.953H1439.64V590.905H1397.65V629.953ZM42.6791 669.638H0V629.953H42.6791V669.638ZM0.342309 669.32H42.3368V630.271H0.342309V669.32ZM85.0297 669.638H42.3505V629.953H85.0297V669.638ZM42.6791 669.32H84.6737V630.271H42.6791V669.32ZM127.366 669.638H84.6873V629.953H127.366V669.638ZM85.0297 669.32H127.024V630.271H85.0297V669.32ZM169.717 669.638H127.038V629.953H169.717V669.638ZM127.366 669.32H169.361V630.271H127.366V669.32ZM212.054 669.638H169.375V629.953H212.054V669.638ZM169.717 669.32H211.712V630.271H169.717V669.32ZM254.404 669.638H211.725V629.953H254.404V669.638ZM212.054 669.32H254.048V630.271H212.054V669.32ZM296.741 669.638H254.062V629.953H296.741V669.638ZM254.404 669.32H296.399V630.271H254.404V669.32ZM339.092 669.638H296.413V629.953H339.092V669.638ZM296.741 669.32H338.736V630.271H296.741V669.32ZM381.429 669.638H338.749V629.953H381.429V669.638ZM339.092 669.32H381.086V630.271H339.092V669.32ZM423.765 669.638H381.086V629.953H423.765V669.638ZM381.429 669.32H423.423V630.271H381.429V669.32ZM466.116 669.638H423.437V629.953H466.116V669.638ZM423.765 669.32H465.76V630.271H423.765V669.32ZM508.453 669.638H465.774V629.953H508.453V669.638ZM466.116 669.32H508.11V630.271H466.116V669.32ZM550.803 669.638H508.124V629.953H550.803V669.638ZM508.453 669.32H550.447V630.271H508.453V669.32ZM593.14 669.638H550.461V629.953H593.14V669.638ZM550.803 669.32H592.798V630.271H550.803V669.32ZM635.491 669.638H592.811V629.953H635.491V669.638ZM593.14 669.32H635.135V630.271H593.14V669.32ZM677.827 669.638H635.148V629.953H677.827V669.638ZM635.491 669.32H677.485V630.271H635.491V669.32ZM720.164 669.638H677.485V629.953H720.164V669.638ZM677.827 669.32H719.822V630.271H677.827V669.32ZM762.515 669.638H719.836V629.953H762.515V669.638ZM720.164 669.32H762.159V630.271H720.164V669.32ZM804.852 669.638H762.173V629.953H804.852V669.638ZM762.515 669.32H804.509V630.271H762.515V669.32ZM847.202 669.638H804.523V629.953H847.202V669.638ZM804.852 669.32H846.846V630.271H804.852V669.32ZM889.539 669.638H846.86V629.953H889.539V669.638ZM847.202 669.32H889.197V630.271H847.202V669.32ZM931.89 669.638H889.21V629.953H931.89V669.638ZM889.539 669.32H931.534V630.271H889.539V669.32ZM974.226 669.638H931.547V629.953H974.226V669.638ZM931.89 669.32H973.884V630.271H931.89V669.32ZM1016.56 669.638H973.884V629.953H1016.56V669.638ZM974.226 669.32H1016.22V630.271H974.226V669.32ZM1058.91 669.638H1016.23V629.953H1058.91V669.638ZM1016.56 669.32H1058.56V630.271H1016.56V669.32ZM1101.25 669.638H1058.57V629.953H1101.25V669.638ZM1058.91 669.32H1100.91V630.271H1058.91V669.32ZM1143.6 669.638H1100.92V629.953H1143.6V669.638ZM1101.25 669.32H1143.25V630.271H1101.25V669.32ZM1185.94 669.638H1143.26V629.953H1185.94V669.638ZM1143.6 669.32H1185.6V630.271H1143.6V669.32ZM1228.29 669.638H1185.61V629.953H1228.29V669.638ZM1185.94 669.32H1227.93V630.271H1185.94V669.32ZM1270.63 669.638H1227.95V629.953H1270.63V669.638ZM1228.29 669.32H1270.28V630.271H1228.29V669.32ZM1312.98 669.638H1270.3V629.953H1312.98V669.638ZM1270.63 669.32H1312.62V630.271H1270.63V669.32ZM1355.31 669.638H1312.63V629.953H1355.31V669.638ZM1312.98 669.32H1354.97V630.271H1312.98V669.32ZM1397.65 669.638H1354.97V629.953H1397.65V669.638ZM1355.31 669.32H1397.31V630.271H1355.31V669.32ZM1440 669.638H1397.32V629.953H1440V669.638ZM1397.65 669.32H1439.64V630.271H1397.65V669.32ZM42.6791 709.017H0V669.332H42.6791V709.017ZM0.342309 708.699H42.3368V669.651H0.342309V708.699ZM85.0297 709.017H42.3505V669.332H85.0297V709.017ZM42.6791 708.699H84.6737V669.651H42.6791V708.699ZM127.366 709.017H84.6873V669.332H127.366V709.017ZM85.0297 708.699H127.024V669.651H85.0297V708.699ZM169.717 709.017H127.038V669.332H169.717V709.017ZM127.366 708.699H169.361V669.651H127.366V708.699ZM212.054 709.017H169.375V669.332H212.054V709.017ZM169.717 708.699H211.712V669.651H169.717V708.699ZM254.404 709.017H211.725V669.332H254.404V709.017ZM212.054 708.699H254.048V669.651H212.054V708.699ZM296.741 709.017H254.062V669.332H296.741V709.017ZM254.404 708.699H296.399V669.651H254.404V708.699ZM339.092 709.017H296.413V669.332H339.092V709.017ZM296.741 708.699H338.736V669.651H296.741V708.699ZM381.429 709.017H338.749V669.332H381.429V709.017ZM339.092 708.699H381.086V669.651H339.092V708.699ZM423.765 709.017H381.086V669.332H423.765V709.017ZM381.429 708.699H423.423V669.651H381.429V708.699ZM466.116 709.017H423.437V669.332H466.116V709.017ZM423.765 708.699H465.76V669.651H423.765V708.699ZM508.453 709.017H465.774V669.332H508.453V709.017ZM466.116 708.699H508.11V669.651H466.116V708.699ZM550.803 709.017H508.124V669.332H550.803V709.017ZM508.453 708.699H550.447V669.651H508.453V708.699ZM593.14 709.017H550.461V669.332H593.14V709.017ZM550.803 708.699H592.798V669.651H550.803V708.699ZM635.491 709.017H592.811V669.332H635.491V709.017ZM593.14 708.699H635.135V669.651H593.14V708.699ZM677.827 709.017H635.148V669.332H677.827V709.017ZM635.491 708.699H677.485V669.651H635.491V708.699ZM720.164 709.017H677.485V669.332H720.164V709.017ZM677.827 708.699H719.822V669.651H677.827V708.699ZM762.515 709.017H719.836V669.332H762.515V709.017ZM720.164 708.699H762.159V669.651H720.164V708.699ZM804.852 709.017H762.173V669.332H804.852V709.017ZM762.515 708.699H804.509V669.651H762.515V708.699ZM847.202 709.017H804.523V669.332H847.202V709.017ZM804.852 708.699H846.846V669.651H804.852V708.699ZM889.539 709.017H846.86V669.332H889.539V709.017ZM847.202 708.699H889.197V669.651H847.202V708.699ZM931.89 709.017H889.21V669.332H931.89V709.017ZM889.539 708.699H931.534V669.651H889.539V708.699ZM974.226 709.017H931.547V669.332H974.226V709.017ZM931.89 708.699H973.884V669.651H931.89V708.699ZM1016.56 709.017H973.884V669.332H1016.56V709.017ZM974.226 708.699H1016.22V669.651H974.226V708.699ZM1058.91 709.017H1016.23V669.332H1058.91V709.017ZM1016.56 708.699H1058.56V669.651H1016.56V708.699ZM1101.25 709.017H1058.57V669.332H1101.25V709.017ZM1058.91 708.699H1100.91V669.651H1058.91V708.699ZM1143.6 709.017H1100.92V669.332H1143.6V709.017ZM1101.25 708.699H1143.25V669.651H1101.25V708.699ZM1185.94 709.017H1143.26V669.332H1185.94V709.017ZM1143.6 708.699H1185.6V669.651H1143.6V708.699ZM1228.29 709.017H1185.61V669.332H1228.29V709.017ZM1185.94 708.699H1227.93V669.651H1185.94V708.699ZM1270.63 709.017H1227.95V669.332H1270.63V709.017ZM1228.29 708.699H1270.28V669.651H1228.29V708.699ZM1312.98 709.017H1270.3V669.332H1312.98V709.017ZM1270.63 708.699H1312.62V669.651H1270.63V708.699ZM1355.31 709.017H1312.63V669.332H1355.31V709.017ZM1312.98 708.699H1354.97V669.651H1312.98V708.699ZM1397.65 709.017H1354.97V669.332H1397.65V709.017ZM1355.31 708.699H1397.31V669.651H1355.31V708.699ZM1440 709.017H1397.32V669.332H1440V709.017ZM1397.65 708.699H1439.64V669.651H1397.65V708.699ZM42.6791 748.384H0V708.699H42.6791V748.384ZM0.342309 748.065H42.3368V709.017H0.342309V748.065ZM85.0297 748.384H42.3505V708.699H85.0297V748.384ZM42.6791 748.065H84.6737V709.017H42.6791V748.065ZM127.366 748.384H84.6873V708.699H127.366V748.384ZM85.0297 748.065H127.024V709.017H85.0297V748.065ZM169.717 748.384H127.038V708.699H169.717V748.384ZM127.366 748.065H169.361V709.017H127.366V748.065ZM212.054 748.384H169.375V708.699H212.054V748.384ZM169.717 748.065H211.712V709.017H169.717V748.065ZM254.404 748.384H211.725V708.699H254.404V748.384ZM212.054 748.065H254.048V709.017H212.054V748.065ZM296.741 748.384H254.062V708.699H296.741V748.384ZM254.404 748.065H296.399V709.017H254.404V748.065ZM339.092 748.384H296.413V708.699H339.092V748.384ZM296.741 748.065H338.736V709.017H296.741V748.065ZM381.429 748.384H338.749V708.699H381.429V748.384ZM339.092 748.065H381.086V709.017H339.092V748.065ZM423.765 748.384H381.086V708.699H423.765V748.384ZM381.429 748.065H423.423V709.017H381.429V748.065ZM466.116 748.384H423.437V708.699H466.116V748.384ZM423.765 748.065H465.76V709.017H423.765V748.065ZM508.453 748.384H465.774V708.699H508.453V748.384ZM466.116 748.065H508.11V709.017H466.116V748.065ZM550.803 748.384H508.124V708.699H550.803V748.384ZM508.453 748.065H550.447V709.017H508.453V748.065ZM593.14 748.384H550.461V708.699H593.14V748.384ZM550.803 748.065H592.798V709.017H550.803V748.065ZM635.491 748.384H592.811V708.699H635.491V748.384ZM593.14 748.065H635.135V709.017H593.14V748.065ZM677.827 748.384H635.148V708.699H677.827V748.384ZM635.491 748.065H677.485V709.017H635.491V748.065ZM720.164 748.384H677.485V708.699H720.164V748.384ZM677.827 748.065H719.822V709.017H677.827V748.065ZM762.515 748.384H719.836V708.699H762.515V748.384ZM720.164 748.065H762.159V709.017H720.164V748.065ZM804.852 748.384H762.173V708.699H804.852V748.384ZM762.515 748.065H804.509V709.017H762.515V748.065ZM847.202 748.384H804.523V708.699H847.202V748.384ZM804.852 748.065H846.846V709.017H804.852V748.065ZM889.539 748.384H846.86V708.699H889.539V748.384ZM847.202 748.065H889.197V709.017H847.202V748.065ZM931.89 748.384H889.21V708.699H931.89V748.384ZM889.539 748.065H931.534V709.017H889.539V748.065ZM974.226 748.384H931.547V708.699H974.226V748.384ZM931.89 748.065H973.884V709.017H931.89V748.065ZM1016.56 748.384H973.884V708.699H1016.56V748.384ZM974.226 748.065H1016.22V709.017H974.226V748.065ZM1058.91 748.384H1016.23V708.699H1058.91V748.384ZM1016.56 748.065H1058.56V709.017H1016.56V748.065ZM1101.25 748.384H1058.57V708.699H1101.25V748.384ZM1058.91 748.065H1100.91V709.017H1058.91V748.065ZM1143.6 748.384H1100.92V708.699H1143.6V748.384ZM1101.25 748.065H1143.25V709.017H1101.25V748.065ZM1185.94 748.384H1143.26V708.699H1185.94V748.384ZM1143.6 748.065H1185.6V709.017H1143.6V748.065ZM1228.29 748.384H1185.61V708.699H1228.29V748.384ZM1185.94 748.065H1227.93V709.017H1185.94V748.065ZM1270.63 748.384H1227.95V708.699H1270.63V748.384ZM1228.29 748.065H1270.28V709.017H1228.29V748.065ZM1312.98 748.384H1270.3V708.699H1312.98V748.384ZM1270.63 748.065H1312.62V709.017H1270.63V748.065ZM1355.31 748.384H1312.63V708.699H1355.31V748.384ZM1312.98 748.065H1354.97V709.017H1312.98V748.065ZM1397.65 748.384H1354.97V708.699H1397.65V748.384ZM1355.31 748.065H1397.31V709.017H1355.31V748.065ZM1440 748.384H1397.32V708.699H1440V748.384ZM1397.65 748.065H1439.64V709.017H1397.65V748.065ZM42.6791 787.763H0V748.078H42.6791V787.763ZM0.342309 787.445H42.3368V748.396H0.342309V787.445ZM85.0297 787.763H42.3505V748.078H85.0297V787.763ZM42.6791 787.445H84.6737V748.396H42.6791V787.445ZM127.366 787.763H84.6873V748.078H127.366V787.763ZM85.0297 787.445H127.024V748.396H85.0297V787.445ZM169.717 787.763H127.038V748.078H169.717V787.763ZM127.366 787.445H169.361V748.396H127.366V787.445ZM212.054 787.763H169.375V748.078H212.054V787.763ZM169.717 787.445H211.712V748.396H169.717V787.445ZM254.404 787.763H211.725V748.078H254.404V787.763ZM212.054 787.445H254.048V748.396H212.054V787.445ZM296.741 787.763H254.062V748.078H296.741V787.763ZM254.404 787.445H296.399V748.396H254.404V787.445ZM339.092 787.763H296.413V748.078H339.092V787.763ZM296.741 787.445H338.736V748.396H296.741V787.445ZM381.429 787.763H338.749V748.078H381.429V787.763ZM339.092 787.445H381.086V748.396H339.092V787.445ZM423.765 787.763H381.086V748.078H423.765V787.763ZM381.429 787.445H423.423V748.396H381.429V787.445ZM466.116 787.763H423.437V748.078H466.116V787.763ZM423.765 787.445H465.76V748.396H423.765V787.445ZM508.453 787.763H465.774V748.078H508.453V787.763ZM466.116 787.445H508.11V748.396H466.116V787.445ZM550.803 787.763H508.124V748.078H550.803V787.763ZM508.453 787.445H550.447V748.396H508.453V787.445ZM593.14 787.763H550.461V748.078H593.14V787.763ZM550.803 787.445H592.798V748.396H550.803V787.445ZM635.491 787.763H592.811V748.078H635.491V787.763ZM593.14 787.445H635.135V748.396H593.14V787.445ZM677.827 787.763H635.148V748.078H677.827V787.763ZM635.491 787.445H677.485V748.396H635.491V787.445ZM720.164 787.763H677.485V748.078H720.164V787.763ZM677.827 787.445H719.822V748.396H677.827V787.445ZM762.515 787.763H719.836V748.078H762.515V787.763ZM720.164 787.445H762.159V748.396H720.164V787.445ZM804.852 787.763H762.173V748.078H804.852V787.763ZM762.515 787.445H804.509V748.396H762.515V787.445ZM847.202 787.763H804.523V748.078H847.202V787.763ZM804.852 787.445H846.846V748.396H804.852V787.445ZM889.539 787.763H846.86V748.078H889.539V787.763ZM847.202 787.445H889.197V748.396H847.202V787.445ZM931.89 787.763H889.21V748.078H931.89V787.763ZM889.539 787.445H931.534V748.396H889.539V787.445ZM974.226 787.763H931.547V748.078H974.226V787.763ZM931.89 787.445H973.884V748.396H931.89V787.445ZM1016.56 787.763H973.884V748.078H1016.56V787.763ZM974.226 787.445H1016.22V748.396H974.226V787.445ZM1058.91 787.763H1016.23V748.078H1058.91V787.763ZM1016.56 787.445H1058.56V748.396H1016.56V787.445ZM1101.25 787.763H1058.57V748.078H1101.25V787.763ZM1058.91 787.445H1100.91V748.396H1058.91V787.445ZM1143.6 787.763H1100.92V748.078H1143.6V787.763ZM1101.25 787.445H1143.25V748.396H1101.25V787.445ZM1185.94 787.763H1143.26V748.078H1185.94V787.763ZM1143.6 787.445H1185.6V748.396H1143.6V787.445ZM1228.29 787.763H1185.61V748.078H1228.29V787.763ZM1185.94 787.445H1227.93V748.396H1185.94V787.445ZM1270.63 787.763H1227.95V748.078H1270.63V787.763ZM1228.29 787.445H1270.28V748.396H1228.29V787.445ZM1312.98 787.763H1270.3V748.078H1312.98V787.763ZM1270.63 787.445H1312.62V748.396H1270.63V787.445ZM1355.31 787.763H1312.63V748.078H1355.31V787.763ZM1312.98 787.445H1354.97V748.396H1312.98V787.445ZM1397.65 787.763H1354.97V748.078H1397.65V787.763ZM1355.31 787.445H1397.31V748.396H1355.31V787.445ZM1440 787.763H1397.32V748.078H1440V787.763ZM1397.65 787.445H1439.64V748.396H1397.65V787.445ZM42.6791 827.129H0V787.445H42.6791V827.129ZM0.342309 826.811H42.3368V787.763H0.342309V826.811ZM85.0297 827.129H42.3505V787.445H85.0297V827.129ZM42.6791 826.811H84.6737V787.763H42.6791V826.811ZM127.366 827.129H84.6873V787.445H127.366V827.129ZM85.0297 826.811H127.024V787.763H85.0297V826.811ZM169.717 827.129H127.038V787.445H169.717V827.129ZM127.366 826.811H169.361V787.763H127.366V826.811ZM212.054 827.129H169.375V787.445H212.054V827.129ZM169.717 826.811H211.712V787.763H169.717V826.811ZM254.404 827.129H211.725V787.445H254.404V827.129ZM212.054 826.811H254.048V787.763H212.054V826.811ZM296.741 827.129H254.062V787.445H296.741V827.129ZM254.404 826.811H296.399V787.763H254.404V826.811ZM339.092 827.129H296.413V787.445H339.092V827.129ZM296.741 826.811H338.736V787.763H296.741V826.811ZM381.429 827.129H338.749V787.445H381.429V827.129ZM339.092 826.811H381.086V787.763H339.092V826.811ZM423.765 827.129H381.086V787.445H423.765V827.129ZM381.429 826.811H423.423V787.763H381.429V826.811ZM466.116 827.129H423.437V787.445H466.116V827.129ZM423.765 826.811H465.76V787.763H423.765V826.811ZM508.453 827.129H465.774V787.445H508.453V827.129ZM466.116 826.811H508.11V787.763H466.116V826.811ZM550.803 827.129H508.124V787.445H550.803V827.129ZM508.453 826.811H550.447V787.763H508.453V826.811ZM593.14 827.129H550.461V787.445H593.14V827.129ZM550.803 826.811H592.798V787.763H550.803V826.811ZM635.491 827.129H592.811V787.445H635.491V827.129ZM593.14 826.811H635.135V787.763H593.14V826.811ZM677.827 827.129H635.148V787.445H677.827V827.129ZM635.491 826.811H677.485V787.763H635.491V826.811ZM720.164 827.129H677.485V787.445H720.164V827.129ZM677.827 826.811H719.822V787.763H677.827V826.811ZM762.515 827.129H719.836V787.445H762.515V827.129ZM720.164 826.811H762.159V787.763H720.164V826.811ZM804.852 827.129H762.173V787.445H804.852V827.129ZM762.515 826.811H804.509V787.763H762.515V826.811ZM847.202 827.129H804.523V787.445H847.202V827.129ZM804.852 826.811H846.846V787.763H804.852V826.811ZM889.539 827.129H846.86V787.445H889.539V827.129ZM847.202 826.811H889.197V787.763H847.202V826.811ZM931.89 827.129H889.21V787.445H931.89V827.129ZM889.539 826.811H931.534V787.763H889.539V826.811ZM974.226 827.129H931.547V787.445H974.226V827.129ZM931.89 826.811H973.884V787.763H931.89V826.811ZM1016.56 827.129H973.884V787.445H1016.56V827.129ZM974.226 826.811H1016.22V787.763H974.226V826.811ZM1058.91 827.129H1016.23V787.445H1058.91V827.129ZM1016.56 826.811H1058.56V787.763H1016.56V826.811ZM1101.25 827.129H1058.57V787.445H1101.25V827.129ZM1058.91 826.811H1100.91V787.763H1058.91V826.811ZM1143.6 827.129H1100.92V787.445H1143.6V827.129ZM1101.25 826.811H1143.25V787.763H1101.25V826.811ZM1185.94 827.129H1143.26V787.445H1185.94V827.129ZM1143.6 826.811H1185.6V787.763H1143.6V826.811ZM1228.29 827.129H1185.61V787.445H1228.29V827.129ZM1185.94 826.811H1227.93V787.763H1185.94V826.811ZM1270.63 827.129H1227.95V787.445H1270.63V827.129ZM1228.29 826.811H1270.28V787.763H1228.29V826.811ZM1312.98 827.129H1270.3V787.445H1312.98V827.129ZM1270.63 826.811H1312.62V787.763H1270.63V826.811ZM1355.31 827.129H1312.63V787.445H1355.31V827.129ZM1312.98 826.811H1354.97V787.763H1312.98V826.811ZM1397.65 827.129H1354.97V787.445H1397.65V827.129ZM1355.31 826.811H1397.31V787.763H1355.31V826.811ZM1440 827.129H1397.32V787.445H1440V827.129ZM1397.65 826.811H1439.64V787.763H1397.65V826.811ZM42.6791 866.509H0V826.824H42.6791V866.509ZM0.342309 866.19H42.3368V827.142H0.342309V866.19ZM85.0297 866.509H42.3505V826.824H85.0297V866.509ZM42.6791 866.19H84.6737V827.142H42.6791V866.19ZM127.366 866.509H84.6873V826.824H127.366V866.509ZM85.0297 866.19H127.024V827.142H85.0297V866.19ZM169.717 866.509H127.038V826.824H169.717V866.509ZM127.366 866.19H169.361V827.142H127.366V866.19ZM212.054 866.509H169.375V826.824H212.054V866.509ZM169.717 866.19H211.712V827.142H169.717V866.19ZM254.404 866.509H211.725V826.824H254.404V866.509ZM212.054 866.19H254.048V827.142H212.054V866.19ZM296.741 866.509H254.062V826.824H296.741V866.509ZM254.404 866.19H296.399V827.142H254.404V866.19ZM339.092 866.509H296.413V826.824H339.092V866.509ZM296.741 866.19H338.736V827.142H296.741V866.19ZM381.429 866.509H338.749V826.824H381.429V866.509ZM339.092 866.19H381.086V827.142H339.092V866.19ZM423.765 866.509H381.086V826.824H423.765V866.509ZM381.429 866.19H423.423V827.142H381.429V866.19ZM466.116 866.509H423.437V826.824H466.116V866.509ZM423.765 866.19H465.76V827.142H423.765V866.19ZM508.453 866.509H465.774V826.824H508.453V866.509ZM466.116 866.19H508.11V827.142H466.116V866.19ZM550.803 866.509H508.124V826.824H550.803V866.509ZM508.453 866.19H550.447V827.142H508.453V866.19ZM593.14 866.509H550.461V826.824H593.14V866.509ZM550.803 866.19H592.798V827.142H550.803V866.19ZM635.491 866.509H592.811V826.824H635.491V866.509ZM593.14 866.19H635.135V827.142H593.14V866.19ZM677.827 866.509H635.148V826.824H677.827V866.509ZM635.491 866.19H677.485V827.142H635.491V866.19ZM720.164 866.509H677.485V826.824H720.164V866.509ZM677.827 866.19H719.822V827.142H677.827V866.19ZM762.515 866.509H719.836V826.824H762.515V866.509ZM720.164 866.19H762.159V827.142H720.164V866.19ZM804.852 866.509H762.173V826.824H804.852V866.509ZM762.515 866.19H804.509V827.142H762.515V866.19ZM847.202 866.509H804.523V826.824H847.202V866.509ZM804.852 866.19H846.846V827.142H804.852V866.19ZM889.539 866.509H846.86V826.824H889.539V866.509ZM847.202 866.19H889.197V827.142H847.202V866.19ZM931.89 866.509H889.21V826.824H931.89V866.509ZM889.539 866.19H931.534V827.142H889.539V866.19ZM974.226 866.509H931.547V826.824H974.226V866.509ZM931.89 866.19H973.884V827.142H931.89V866.19ZM1016.56 866.509H973.884V826.824H1016.56V866.509ZM974.226 866.19H1016.22V827.142H974.226V866.19ZM1058.91 866.509H1016.23V826.824H1058.91V866.509ZM1016.56 866.19H1058.56V827.142H1016.56V866.19ZM1101.25 866.509H1058.57V826.824H1101.25V866.509ZM1058.91 866.19H1100.91V827.142H1058.91V866.19ZM1143.6 866.509H1100.92V826.824H1143.6V866.509ZM1101.25 866.19H1143.25V827.142H1101.25V866.19ZM1185.94 866.509H1143.26V826.824H1185.94V866.509ZM1143.6 866.19H1185.6V827.142H1143.6V866.19ZM1228.29 866.509H1185.61V826.824H1228.29V866.509ZM1185.94 866.19H1227.93V827.142H1185.94V866.19ZM1270.63 866.509H1227.95V826.824H1270.63V866.509ZM1228.29 866.19H1270.28V827.142H1228.29V866.19ZM1312.98 866.509H1270.3V826.824H1312.98V866.509ZM1270.63 866.19H1312.62V827.142H1270.63V866.19ZM1355.31 866.509H1312.63V826.824H1355.31V866.509ZM1312.98 866.19H1354.97V827.142H1312.98V866.19ZM1397.65 866.509H1354.97V826.824H1397.65V866.509ZM1355.31 866.19H1397.31V827.142H1355.31V866.19ZM1440 866.509H1397.32V826.824H1440V866.509ZM1397.65 866.19H1439.64V827.142H1397.65V866.19ZM42.6791 905.875H0V866.19H42.6791V905.875ZM0.342309 905.557H42.3368V866.509H0.342309V905.557ZM85.0297 905.875H42.3505V866.19H85.0297V905.875ZM42.6791 905.557H84.6737V866.509H42.6791V905.557ZM127.366 905.875H84.6873V866.19H127.366V905.875ZM85.0297 905.557H127.024V866.509H85.0297V905.557ZM169.717 905.875H127.038V866.19H169.717V905.875ZM127.366 905.557H169.361V866.509H127.366V905.557ZM212.054 905.875H169.375V866.19H212.054V905.875ZM169.717 905.557H211.712V866.509H169.717V905.557ZM254.404 905.875H211.725V866.19H254.404V905.875ZM212.054 905.557H254.048V866.509H212.054V905.557ZM296.741 905.875H254.062V866.19H296.741V905.875ZM254.404 905.557H296.399V866.509H254.404V905.557ZM339.092 905.875H296.413V866.19H339.092V905.875ZM296.741 905.557H338.736V866.509H296.741V905.557ZM381.429 905.875H338.749V866.19H381.429V905.875ZM339.092 905.557H381.086V866.509H339.092V905.557ZM423.765 905.875H381.086V866.19H423.765V905.875ZM381.429 905.557H423.423V866.509H381.429V905.557ZM466.116 905.875H423.437V866.19H466.116V905.875ZM423.765 905.557H465.76V866.509H423.765V905.557ZM508.453 905.875H465.774V866.19H508.453V905.875ZM466.116 905.557H508.11V866.509H466.116V905.557ZM550.803 905.875H508.124V866.19H550.803V905.875ZM508.453 905.557H550.447V866.509H508.453V905.557ZM593.14 905.875H550.461V866.19H593.14V905.875ZM550.803 905.557H592.798V866.509H550.803V905.557ZM635.491 905.875H592.811V866.19H635.491V905.875ZM593.14 905.557H635.135V866.509H593.14V905.557ZM677.827 905.875H635.148V866.19H677.827V905.875ZM635.491 905.557H677.485V866.509H635.491V905.557ZM720.164 905.875H677.485V866.19H720.164V905.875ZM677.827 905.557H719.822V866.509H677.827V905.557ZM762.515 905.875H719.836V866.19H762.515V905.875ZM720.164 905.557H762.159V866.509H720.164V905.557ZM804.852 905.875H762.173V866.19H804.852V905.875ZM762.515 905.557H804.509V866.509H762.515V905.557ZM847.202 905.875H804.523V866.19H847.202V905.875ZM804.852 905.557H846.846V866.509H804.852V905.557ZM889.539 905.875H846.86V866.19H889.539V905.875ZM847.202 905.557H889.197V866.509H847.202V905.557ZM931.89 905.875H889.21V866.19H931.89V905.875ZM889.539 905.557H931.534V866.509H889.539V905.557ZM974.226 905.875H931.547V866.19H974.226V905.875ZM931.89 905.557H973.884V866.509H931.89V905.557ZM1016.56 905.875H973.884V866.19H1016.56V905.875ZM974.226 905.557H1016.22V866.509H974.226V905.557ZM1058.91 905.875H1016.23V866.19H1058.91V905.875ZM1016.56 905.557H1058.56V866.509H1016.56V905.557ZM1101.25 905.875H1058.57V866.19H1101.25V905.875ZM1058.91 905.557H1100.91V866.509H1058.91V905.557ZM1143.6 905.875H1100.92V866.19H1143.6V905.875ZM1101.25 905.557H1143.25V866.509H1101.25V905.557ZM1185.94 905.875H1143.26V866.19H1185.94V905.875ZM1143.6 905.557H1185.6V866.509H1143.6V905.557ZM1228.29 905.875H1185.61V866.19H1228.29V905.875ZM1185.94 905.557H1227.93V866.509H1185.94V905.557ZM1270.63 905.875H1227.95V866.19H1270.63V905.875ZM1228.29 905.557H1270.28V866.509H1228.29V905.557ZM1312.98 905.875H1270.3V866.19H1312.98V905.875ZM1270.63 905.557H1312.62V866.509H1270.63V905.557ZM1355.31 905.875H1312.63V866.19H1355.31V905.875ZM1312.98 905.557H1354.97V866.509H1312.98V905.557ZM1397.65 905.875H1354.97V866.19H1397.65V905.875ZM1355.31 905.557H1397.31V866.509H1355.31V905.557ZM1440 905.875H1397.32V866.19H1440V905.875ZM1397.65 905.557H1439.64V866.509H1397.65V905.557ZM42.6791 945.242H0V905.557H42.6791V945.242ZM0.342309 944.923H42.3368V905.875H0.342309V944.923ZM85.0297 945.242H42.3505V905.557H85.0297V945.242ZM42.6791 944.923H84.6737V905.875H42.6791V944.923ZM127.366 945.242H84.6873V905.557H127.366V945.242ZM85.0297 944.923H127.024V905.875H85.0297V944.923ZM169.717 945.242H127.038V905.557H169.717V945.242ZM127.366 944.923H169.361V905.875H127.366V944.923ZM212.054 945.242H169.375V905.557H212.054V945.242ZM169.717 944.923H211.712V905.875H169.717V944.923ZM254.404 945.242H211.725V905.557H254.404V945.242ZM212.054 944.923H254.048V905.875H212.054V944.923ZM296.741 945.242H254.062V905.557H296.741V945.242ZM254.404 944.923H296.399V905.875H254.404V944.923ZM339.092 945.242H296.413V905.557H339.092V945.242ZM296.741 944.923H338.736V905.875H296.741V944.923ZM381.429 945.242H338.749V905.557H381.429V945.242ZM339.092 944.923H381.086V905.875H339.092V944.923ZM423.765 945.242H381.086V905.557H423.765V945.242ZM381.429 944.923H423.423V905.875H381.429V944.923ZM466.116 945.242H423.437V905.557H466.116V945.242ZM423.765 944.923H465.76V905.875H423.765V944.923ZM508.453 945.242H465.774V905.557H508.453V945.242ZM466.116 944.923H508.11V905.875H466.116V944.923ZM550.803 945.242H508.124V905.557H550.803V945.242ZM508.453 944.923H550.447V905.875H508.453V944.923ZM593.14 945.242H550.461V905.557H593.14V945.242ZM550.803 944.923H592.798V905.875H550.803V944.923ZM635.491 945.242H592.811V905.557H635.491V945.242ZM593.14 944.923H635.135V905.875H593.14V944.923ZM677.827 945.242H635.148V905.557H677.827V945.242ZM635.491 944.923H677.485V905.875H635.491V944.923ZM720.164 945.242H677.485V905.557H720.164V945.242ZM677.827 944.923H719.822V905.875H677.827V944.923ZM762.515 945.242H719.836V905.557H762.515V945.242ZM720.164 944.923H762.159V905.875H720.164V944.923ZM804.852 945.242H762.173V905.557H804.852V945.242ZM762.515 944.923H804.509V905.875H762.515V944.923ZM847.202 945.242H804.523V905.557H847.202V945.242ZM804.852 944.923H846.846V905.875H804.852V944.923ZM889.539 945.242H846.86V905.557H889.539V945.242ZM847.202 944.923H889.197V905.875H847.202V944.923ZM931.89 945.242H889.21V905.557H931.89V945.242ZM889.539 944.923H931.534V905.875H889.539V944.923ZM974.226 945.242H931.547V905.557H974.226V945.242ZM931.89 944.923H973.884V905.875H931.89V944.923ZM1016.56 945.242H973.884V905.557H1016.56V945.242ZM974.226 944.923H1016.22V905.875H974.226V944.923ZM1058.91 945.242H1016.23V905.557H1058.91V945.242ZM1016.56 944.923H1058.56V905.875H1016.56V944.923ZM1101.25 945.242H1058.57V905.557H1101.25V945.242ZM1058.91 944.923H1100.91V905.875H1058.91V944.923ZM1143.6 945.242H1100.92V905.557H1143.6V945.242ZM1101.25 944.923H1143.25V905.875H1101.25V944.923ZM1185.94 945.242H1143.26V905.557H1185.94V945.242ZM1143.6 944.923H1185.6V905.875H1143.6V944.923ZM1228.29 945.242H1185.61V905.557H1228.29V945.242ZM1185.94 944.923H1227.93V905.875H1185.94V944.923ZM1270.63 945.242H1227.95V905.557H1270.63V945.242ZM1228.29 944.923H1270.28V905.875H1228.29V944.923ZM1312.98 945.242H1270.3V905.557H1312.98V945.242ZM1270.63 944.923H1312.62V905.875H1270.63V944.923ZM1355.31 945.242H1312.63V905.557H1355.31V945.242ZM1312.98 944.923H1354.97V905.875H1312.98V944.923ZM1397.65 945.242H1354.97V905.557H1397.65V945.242ZM1355.31 944.923H1397.31V905.875H1355.31V944.923ZM1440 945.242H1397.32V905.557H1440V945.242ZM1397.65 944.923H1439.64V905.875H1397.65V944.923ZM42.6791 984.621H0V944.936H42.6791V984.621ZM0.342309 984.303H42.3368V945.254H0.342309V984.303ZM85.0297 984.621H42.3505V944.936H85.0297V984.621ZM42.6791 984.303H84.6737V945.254H42.6791V984.303ZM127.366 984.621H84.6873V944.936H127.366V984.621ZM85.0297 984.303H127.024V945.254H85.0297V984.303ZM169.717 984.621H127.038V944.936H169.717V984.621ZM127.366 984.303H169.361V945.254H127.366V984.303ZM212.054 984.621H169.375V944.936H212.054V984.621ZM169.717 984.303H211.712V945.254H169.717V984.303ZM254.404 984.621H211.725V944.936H254.404V984.621ZM212.054 984.303H254.048V945.254H212.054V984.303ZM296.741 984.621H254.062V944.936H296.741V984.621ZM254.404 984.303H296.399V945.254H254.404V984.303ZM339.092 984.621H296.413V944.936H339.092V984.621ZM296.741 984.303H338.736V945.254H296.741V984.303ZM381.429 984.621H338.749V944.936H381.429V984.621ZM339.092 984.303H381.086V945.254H339.092V984.303ZM423.765 984.621H381.086V944.936H423.765V984.621ZM381.429 984.303H423.423V945.254H381.429V984.303ZM466.116 984.621H423.437V944.936H466.116V984.621ZM423.765 984.303H465.76V945.254H423.765V984.303ZM508.453 984.621H465.774V944.936H508.453V984.621ZM466.116 984.303H508.11V945.254H466.116V984.303ZM550.803 984.621H508.124V944.936H550.803V984.621ZM508.453 984.303H550.447V945.254H508.453V984.303ZM593.14 984.621H550.461V944.936H593.14V984.621ZM550.803 984.303H592.798V945.254H550.803V984.303ZM635.491 984.621H592.811V944.936H635.491V984.621ZM593.14 984.303H635.135V945.254H593.14V984.303ZM677.827 984.621H635.148V944.936H677.827V984.621ZM635.491 984.303H677.485V945.254H635.491V984.303ZM720.164 984.621H677.485V944.936H720.164V984.621ZM677.827 984.303H719.822V945.254H677.827V984.303ZM762.515 984.621H719.836V944.936H762.515V984.621ZM720.164 984.303H762.159V945.254H720.164V984.303ZM804.852 984.621H762.173V944.936H804.852V984.621ZM762.515 984.303H804.509V945.254H762.515V984.303ZM847.202 984.621H804.523V944.936H847.202V984.621ZM804.852 984.303H846.846V945.254H804.852V984.303ZM889.539 984.621H846.86V944.936H889.539V984.621ZM847.202 984.303H889.197V945.254H847.202V984.303ZM931.89 984.621H889.21V944.936H931.89V984.621ZM889.539 984.303H931.534V945.254H889.539V984.303ZM974.226 984.621H931.547V944.936H974.226V984.621ZM931.89 984.303H973.884V945.254H931.89V984.303ZM1016.56 984.621H973.884V944.936H1016.56V984.621ZM974.226 984.303H1016.22V945.254H974.226V984.303ZM1058.91 984.621H1016.23V944.936H1058.91V984.621ZM1016.56 984.303H1058.56V945.254H1016.56V984.303ZM1101.25 984.621H1058.57V944.936H1101.25V984.621ZM1058.91 984.303H1100.91V945.254H1058.91V984.303ZM1143.6 984.621H1100.92V944.936H1143.6V984.621ZM1101.25 984.303H1143.25V945.254H1101.25V984.303ZM1185.94 984.621H1143.26V944.936H1185.94V984.621ZM1143.6 984.303H1185.6V945.254H1143.6V984.303ZM1228.29 984.621H1185.61V944.936H1228.29V984.621ZM1185.94 984.303H1227.93V945.254H1185.94V984.303ZM1270.63 984.621H1227.95V944.936H1270.63V984.621ZM1228.29 984.303H1270.28V945.254H1228.29V984.303ZM1312.98 984.621H1270.3V944.936H1312.98V984.621ZM1270.63 984.303H1312.62V945.254H1270.63V984.303ZM1355.31 984.621H1312.63V944.936H1355.31V984.621ZM1312.98 984.303H1354.97V945.254H1312.98V984.303ZM1397.65 984.621H1354.97V944.936H1397.65V984.621ZM1355.31 984.303H1397.31V945.254H1355.31V984.303ZM1440 984.621H1397.32V944.936H1440V984.621ZM1397.65 984.303H1439.64V945.254H1397.65V984.303ZM42.6791 1023.99H0V984.303H42.6791V1023.99ZM0.342309 1023.67H42.3368V984.621H0.342309V1023.67ZM85.0297 1023.99H42.3505V984.303H85.0297V1023.99ZM42.6791 1023.67H84.6737V984.621H42.6791V1023.67ZM127.366 1023.99H84.6873V984.303H127.366V1023.99ZM85.0297 1023.67H127.024V984.621H85.0297V1023.67ZM169.717 1023.99H127.038V984.303H169.717V1023.99ZM127.366 1023.67H169.361V984.621H127.366V1023.67ZM212.054 1023.99H169.375V984.303H212.054V1023.99ZM169.717 1023.67H211.712V984.621H169.717V1023.67ZM254.404 1023.99H211.725V984.303H254.404V1023.99ZM212.054 1023.67H254.048V984.621H212.054V1023.67ZM296.741 1023.99H254.062V984.303H296.741V1023.99ZM254.404 1023.67H296.399V984.621H254.404V1023.67ZM339.092 1023.99H296.413V984.303H339.092V1023.99ZM296.741 1023.67H338.736V984.621H296.741V1023.67ZM381.429 1023.99H338.749V984.303H381.429V1023.99ZM339.092 1023.67H381.086V984.621H339.092V1023.67ZM423.765 1023.99H381.086V984.303H423.765V1023.99ZM381.429 1023.67H423.423V984.621H381.429V1023.67ZM466.116 1023.99H423.437V984.303H466.116V1023.99ZM423.765 1023.67H465.76V984.621H423.765V1023.67ZM508.453 1023.99H465.774V984.303H508.453V1023.99ZM466.116 1023.67H508.11V984.621H466.116V1023.67ZM550.803 1023.99H508.124V984.303H550.803V1023.99ZM508.453 1023.67H550.447V984.621H508.453V1023.67ZM593.14 1023.99H550.461V984.303H593.14V1023.99ZM550.803 1023.67H592.798V984.621H550.803V1023.67ZM635.491 1023.99H592.811V984.303H635.491V1023.99ZM593.14 1023.67H635.135V984.621H593.14V1023.67ZM677.827 1023.99H635.148V984.303H677.827V1023.99ZM635.491 1023.67H677.485V984.621H635.491V1023.67ZM720.164 1023.99H677.485V984.303H720.164V1023.99ZM677.827 1023.67H719.822V984.621H677.827V1023.67ZM762.515 1023.99H719.836V984.303H762.515V1023.99ZM720.164 1023.67H762.159V984.621H720.164V1023.67ZM804.852 1023.99H762.173V984.303H804.852V1023.99ZM762.515 1023.67H804.509V984.621H762.515V1023.67ZM847.202 1023.99H804.523V984.303H847.202V1023.99ZM804.852 1023.67H846.846V984.621H804.852V1023.67ZM889.539 1023.99H846.86V984.303H889.539V1023.99ZM847.202 1023.67H889.197V984.621H847.202V1023.67ZM931.89 1023.99H889.21V984.303H931.89V1023.99ZM889.539 1023.67H931.534V984.621H889.539V1023.67ZM974.226 1023.99H931.547V984.303H974.226V1023.99ZM931.89 1023.67H973.884V984.621H931.89V1023.67ZM1016.56 1023.99H973.884V984.303H1016.56V1023.99ZM974.226 1023.67H1016.22V984.621H974.226V1023.67ZM1058.91 1023.99H1016.23V984.303H1058.91V1023.99ZM1016.56 1023.67H1058.56V984.621H1016.56V1023.67ZM1101.25 1023.99H1058.57V984.303H1101.25V1023.99ZM1058.91 1023.67H1100.91V984.621H1058.91V1023.67ZM1143.6 1023.99H1100.92V984.303H1143.6V1023.99ZM1101.25 1023.67H1143.25V984.621H1101.25V1023.67ZM1185.94 1023.99H1143.26V984.303H1185.94V1023.99ZM1143.6 1023.67H1185.6V984.621H1143.6V1023.67ZM1228.29 1023.99H1185.61V984.303H1228.29V1023.99ZM1185.94 1023.67H1227.93V984.621H1185.94V1023.67ZM1270.63 1023.99H1227.95V984.303H1270.63V1023.99ZM1228.29 1023.67H1270.28V984.621H1228.29V1023.67ZM1312.98 1023.99H1270.3V984.303H1312.98V1023.99ZM1270.63 1023.67H1312.62V984.621H1270.63V1023.67ZM1355.31 1023.99H1312.63V984.303H1355.31V1023.99ZM1312.98 1023.67H1354.97V984.621H1312.98V1023.67ZM1397.65 1023.99H1354.97V984.303H1397.65V1023.99ZM1355.31 1023.67H1397.31V984.621H1355.31V1023.67ZM1440 1023.99H1397.32V984.303H1440V1023.99ZM1397.65 1023.67H1439.64V984.621H1397.65V1023.67Z" fill="url(#paint0_radial_669_1003)"/>
<defs>
<radialGradient id="paint0_radial_669_1003" cx="0" cy="0" r="1" gradientUnits="userSpaceOnUse" gradientTransform="translate(720 512) rotate(90) scale(346.5 644.784)">
<stop stop-color="#B0B0B0"/>
<stop offset="1" stop-color="#080808"/>
</radialGradient>
</defs>
</svg>
