<svg width="1511" height="1510" viewBox="0 0 1511 1510" fill="none" xmlns="http://www.w3.org/2000/svg">
<path d="M856.213 1509.51L855.139 1507.65L738.938 1306.38L676.581 1342.38L604.409 1217.37L542.042 1253.38L469.876 1128.39L391.936 1173.39L310.746 1032.76L248.379 1068.77L212.293 1006.27L149.936 1042.27L41.6853 854.773L244.349 737.764L280.435 800.267L342.803 764.259L-3.07623e-05 170.507L62.3564 134.505L26.277 72.0141L26.2705 72.0028L150.983 -0.000152588L150.99 0.0110813L187.069 62.5024L249.437 26.4944L402.792 292.114L543.1 211.107L579.186 273.61L766.255 165.605L802.341 228.107L942.649 147.101L978.734 209.603L1041.1 173.595L1086.21 251.718L1148.55 215.723L1148.56 215.717L1410.18 668.843L1410.16 668.85L1347.82 704.845L1456.07 892.342L1393.7 928.35L1509.9 1129.62L1510.98 1131.48L856.213 1509.51ZM1396.95 1113.97L1315.76 973.348L1393.7 928.35L1285.45 740.853L1347.82 704.845L1086.21 251.718L1023.84 287.726L978.734 209.603L900.795 254.602L1018.06 457.719L955.696 493.727L802.341 228.107L677.628 300.111L794.904 503.238L732.548 539.24L579.186 273.61L438.878 354.616L592.24 620.247L529.872 656.255L187.069 62.5024L62.3564 134.505L549.496 978.257L487.14 1014.26L378.882 826.75L316.515 862.758L280.435 800.267L140.128 881.274L212.293 1006.27L274.661 970.26L310.746 1032.76L388.686 987.764L469.876 1128.39L532.244 1092.38L604.409 1217.37L666.766 1181.37L738.938 1306.38L801.294 1270.38L882.484 1411L1396.95 1113.97Z" fill="black"/>
<path fill-rule="evenodd" clip-rule="evenodd" d="M26.277 72.0141L150.99 0.0110813L187.069 62.5024L62.3564 134.505L26.277 72.0141ZM280.435 800.267L316.515 862.758L378.882 826.75L487.14 1014.26L549.496 978.257L62.3564 134.505L-3.07623e-05 170.507L342.803 764.259L280.435 800.267ZM212.293 1006.27L140.128 881.274L280.435 800.267L244.349 737.764L41.6853 854.773L149.936 1042.27L212.293 1006.27ZM310.746 1032.76L274.661 970.26L212.293 1006.27L248.379 1068.77L310.746 1032.76ZM469.876 1128.39L388.686 987.764L310.746 1032.76L391.936 1173.39L469.876 1128.39ZM604.409 1217.37L532.244 1092.38L469.876 1128.39L542.042 1253.38L604.409 1217.37ZM738.938 1306.38L666.766 1181.37L604.409 1217.37L676.581 1342.38L738.938 1306.38ZM1393.7 928.35L1315.76 973.348L1396.95 1113.97L882.484 1411L801.294 1270.38L738.938 1306.38L855.139 1507.65L1509.9 1129.62L1393.7 928.35ZM1347.82 704.845L1285.45 740.853L1393.7 928.35L1456.07 892.342L1347.82 704.845ZM1086.21 251.718L1347.82 704.845L1410.16 668.85L1148.55 215.723L1086.21 251.718ZM978.734 209.603L1023.84 287.726L1086.21 251.718L1041.1 173.595L978.734 209.603ZM802.341 228.107L955.696 493.727L1018.06 457.719L900.795 254.602L978.734 209.603L942.649 147.101L802.341 228.107ZM579.186 273.61L438.878 354.616L592.24 620.247L529.872 656.255L187.069 62.5024L249.437 26.4944L402.792 292.114L543.1 211.107L579.186 273.61ZM579.186 273.61L732.548 539.24L794.904 503.238L677.628 300.111L802.341 228.107L766.255 165.605L579.186 273.61Z" fill="black"/>
<path d="M1396.95 1113.97L1315.76 973.348L1393.7 928.35L1285.45 740.853L1347.82 704.845L1086.21 251.718L1023.84 287.726L978.734 209.603L900.795 254.602L1018.06 457.719L955.696 493.727L802.341 228.107L677.628 300.111L794.904 503.238L732.548 539.24L579.186 273.61L438.878 354.616L592.24 620.247L529.872 656.255L187.069 62.5024L62.3564 134.505L549.496 978.257L487.14 1014.26L378.882 826.75L316.515 862.758L280.435 800.267L140.128 881.274L212.293 1006.27L274.661 970.26L310.746 1032.76L388.686 987.764L469.876 1128.39L532.244 1092.38L604.409 1217.37L666.766 1181.37L738.938 1306.38L801.294 1270.38L882.484 1411L1396.95 1113.97Z" fill="white"/>
</svg>
