<svg width="15" height="16" viewBox="0 0 15 16" fill="none" xmlns="http://www.w3.org/2000/svg">
<path d="M2.22482 13.7497C3.54031 15.1439 5.33578 16 7.29759 16C7.37467 16 7.45277 15.9989 7.5304 15.996C9.50492 15.9284 11.277 15.0041 12.5495 13.5616C13.8219 12.1213 14.6032 10.1534 14.6032 8.00384C14.6032 7.91938 14.6022 7.83432 14.599 7.74934L13.9867 7.77029L14.599 7.74874C14.5373 5.5852 13.6943 3.6441 12.3783 2.2498C11.0628 0.855565 9.26742 -0.000596055 7.30507 3.1135e-07C7.22744 3.1135e-07 7.14989 0.00119246 7.07226 0.00350338C5.09821 0.0710419 3.32621 0.995337 2.05372 2.43787C0.781293 3.87817 0 5.84603 0 7.99616C0 8.08062 0.00156423 8.16627 0.00421753 8.25066C0.0658556 10.4144 0.908855 12.3555 2.22482 13.7497ZM11.6672 12.628C11.1075 13.2622 10.4335 13.7735 9.68092 14.1247C9.99347 13.6314 10.2602 13.049 10.4809 12.3968H11.8628C11.799 12.4755 11.7341 12.5528 11.6672 12.628ZM12.4442 11.5419H10.7296C10.9661 10.5984 11.1102 9.54545 11.1394 8.42726H13.3627C13.2978 9.5652 12.9704 10.627 12.4442 11.5419ZM12.4453 4.45762C12.9694 5.36849 13.2957 6.42846 13.3627 7.57229H11.1372C11.1075 6.45582 10.9672 5.40114 10.7312 4.45762H12.4453ZM11.5258 3.21598C11.6427 3.33943 11.7533 3.46989 11.8606 3.60265H10.4793C10.3623 3.25616 10.2348 2.92592 10.0913 2.62193C9.96585 2.3558 9.83033 2.10652 9.68521 1.87647C10.3708 2.19798 10.9948 2.65339 11.5258 3.21598ZM7.69197 1.35875C7.86097 1.36986 8.0284 1.38842 8.19365 1.41466C8.26223 1.46416 8.33081 1.51716 8.39986 1.57828C8.86657 1.99529 9.30613 2.69819 9.64575 3.60265H7.69197V1.35875ZM7.69197 4.45762H9.92115C10.1714 5.37722 10.3277 6.43771 10.3596 7.57229H7.69204L7.69197 4.45762ZM7.69197 8.42726H10.3569C10.3251 9.56289 10.1677 10.6229 9.91734 11.5419H7.69197V8.42726ZM9.64364 12.3968C9.56602 12.6029 9.48526 12.8015 9.39859 12.9855C9.10468 13.6098 8.75921 14.0997 8.39986 14.4211C8.33237 14.4816 8.26488 14.5335 8.19739 14.5824C8.03098 14.6092 7.86199 14.6284 7.69191 14.6407V12.3968H9.64364ZM2.15788 11.5419C1.63436 10.6322 1.30746 9.57161 1.24099 8.42726H3.46643C3.49623 9.54373 3.63651 10.5984 3.87252 11.5419H2.15788ZM3.07742 12.7835C2.96053 12.66 2.84998 12.5302 2.74256 12.3968H4.12397C4.2414 12.7439 4.36903 13.0741 4.51142 13.3781C4.63789 13.6442 4.77294 13.8935 4.9186 14.123C4.2318 13.8015 3.60889 13.3461 3.07742 12.7835ZM6.91177 14.6413C6.74271 14.6297 6.57473 14.6117 6.41003 14.5848C6.3409 14.5358 6.27287 14.4823 6.20382 14.4212C5.73663 14.0054 5.29754 13.3018 4.95792 12.3968H6.91177V14.6413ZM6.91177 11.5419H4.68259C4.43169 10.6229 4.27541 9.56177 4.24405 8.42726H6.9117V11.5419H6.91177ZM6.91177 7.57229H4.24677C4.27868 6.43726 4.43495 5.37781 4.68579 4.45762H6.91177V7.57229ZM5.20502 3.01449C5.49899 2.39016 5.84392 1.90032 6.20375 1.57828C6.27124 1.51828 6.33873 1.46587 6.40676 1.41757C6.57262 1.39021 6.74162 1.3709 6.9117 1.35927V3.60265H4.95996C5.03704 3.39773 5.11841 3.19794 5.20502 3.01449ZM2.93604 3.37149C3.49568 2.73785 4.17023 2.22594 4.92282 1.87475C4.61027 2.36802 4.34243 2.95045 4.12234 3.60265H2.74092C2.80419 3.52408 2.86903 3.44663 2.93604 3.37149ZM2.15897 4.45762H3.87361C3.6376 5.40226 3.49303 6.45522 3.46384 7.57229H1.24052C1.30535 6.43487 1.6328 5.37319 2.15897 4.45762Z" fill="#8D8D8D"/>
</svg>
