<svg width="15" height="16" viewBox="0 0 15 16" fill="none" xmlns="http://www.w3.org/2000/svg">
<path fill-rule="evenodd" clip-rule="evenodd" d="M4.40224 0.098183C3.18133 0.156943 2.12311 0.475339 1.26862 1.38294C0.411146 2.29532 0.116356 3.42855 0.0611313 4.71731C0.0268023 5.52169 -0.173936 11.5986 0.408162 13.1923C0.800705 14.2674 1.57383 15.0941 2.59101 15.5141C3.06564 15.7111 3.60745 15.8444 4.40224 15.8833C11.0479 16.2041 13.5113 16.0294 14.5501 13.1923C14.7345 12.6873 14.8613 12.1098 14.8964 11.2642C15.2001 4.15735 14.8472 2.61691 13.6889 1.38294C12.7703 0.405459 11.6897 -0.259936 4.40224 0.098183ZM4.46342 14.454C3.7358 14.419 3.34102 14.2897 3.07759 14.1809C2.41489 13.9062 1.91713 13.3774 1.66115 12.6747C1.21786 11.4638 1.36489 5.7124 1.40444 4.78176C1.44325 3.87018 1.61638 3.03706 2.21937 2.39388C2.96565 1.59982 3.92983 1.21065 10.4948 1.52669C11.3516 1.56798 12.1344 1.75228 12.7389 2.39388C13.4852 3.18793 13.8554 4.22431 13.5539 11.2001C13.521 11.9743 13.3994 12.3944 13.2971 12.6747C12.6218 14.5209 11.068 14.7772 4.46342 14.454ZM10.5672 3.75169C10.5672 4.27736 10.968 4.70481 11.4628 4.70481C11.9576 4.70481 12.3591 4.27736 12.3591 3.75169C12.3591 3.22602 11.9576 2.79896 11.4628 2.79896C10.968 2.79896 10.5672 3.22602 10.5672 3.75169ZM3.647 7.99034C3.647 10.2423 5.3627 12.0681 7.47915 12.0681C9.59559 12.0681 11.3113 10.2423 11.3113 7.99034C11.3113 5.7384 9.59559 3.9138 7.47915 3.9138C5.3627 3.9138 3.647 5.7384 3.647 7.99034ZM4.9918 7.99034C4.9918 6.52928 6.10525 5.34387 7.47915 5.34387C8.85305 5.34387 9.9665 6.52928 9.9665 7.99034C9.9665 9.4522 8.85305 10.638 7.47915 10.638C6.10525 10.638 4.9918 9.4522 4.9918 7.99034Z" fill="#8D8D8D"/>
</svg>
