<svg width="15" height="16" viewBox="0 0 15 16" fill="none" xmlns="http://www.w3.org/2000/svg">
<path fill-rule="evenodd" clip-rule="evenodd" d="M15 16H12V10.4008C12 8.86478 11.3648 8.00781 10.2255 8.00781C8.98575 8.00781 8.25 8.90078 8.25 10.4008V16H5.25V5.6H8.25V6.76953C8.25 6.76953 9.19124 5.00781 11.3122 5.00781C13.434 5.00781 15 6.38888 15 9.24648V16ZM1.8315 3.93672C0.819751 3.93672 0 3.05517 0 1.96797C0 0.881569 0.819751 0 1.8315 0C2.8425 0 3.66225 0.881569 3.66225 1.96797C3.663 3.05517 2.8425 3.93672 1.8315 3.93672ZM0 16H3.75V5.6H0V16Z" fill="#8D8D8D"/>
</svg>
