<svg width="14" height="16" viewBox="0 0 14 16" fill="none" xmlns="http://www.w3.org/2000/svg">
<path d="M8.2431 2.72901L2.19082 10.2002C2.07598 10.3419 1.88179 10.3351 1.77431 10.1856L0.269383 8.09187C0.226742 8.03254 0.203349 7.9574 0.203349 7.87976V0.328767C0.203349 0.147194 0.328638 0 0.483189 0H6.55226C6.63701 0 6.71719 0.0451238 6.77031 0.122709L8.25845 2.2963C8.34634 2.42468 8.33978 2.60967 8.2431 2.72901Z" fill="#989898"/>
<path d="M13.4607 3.13157L9.97728 3.17654C9.90096 3.17752 9.8283 3.21509 9.77612 3.28053L0.0761602 15.4465C-0.0912794 15.6565 0.0354679 16 0.280394 16H3.7162C3.79578 16 3.87159 15.9602 3.92467 15.8906L6.41995 12.617C6.53508 12.4659 6.73801 12.4721 6.8463 12.63L9.07419 15.8775C9.12732 15.955 9.20742 16 9.29208 16H13.4166C13.6605 16 13.7876 15.6589 13.6222 15.4483L9.23852 9.86494C9.14025 9.73978 9.13959 9.54718 9.237 9.42108L13.671 3.68126C13.8352 3.46874 13.705 3.12841 13.4607 3.13157Z" fill="#989898"/>
</svg>
