<svg width="29" height="33" viewBox="0 0 29 33" fill="none" xmlns="http://www.w3.org/2000/svg">
<path d="M17.0014 5.62859L4.51858 21.0378C4.28171 21.3302 3.88119 21.3162 3.65951 21.0078L0.555602 16.6895C0.467655 16.5671 0.419408 16.4121 0.419408 16.252V0.678082C0.419408 0.303588 0.677815 0 0.996576 0H13.514C13.6888 0 13.8542 0.0930679 13.9638 0.253088L17.033 4.73612C17.2143 5.0009 17.2008 5.38244 17.0014 5.62859Z" fill="#F51919"/>
<path d="M27.7627 6.45886L20.5781 6.55161C20.4207 6.55364 20.2709 6.63112 20.1632 6.7661L0.15708 31.8584C-0.188264 32.2915 0.0731526 33 0.578313 33H7.66467C7.82879 33 7.98515 32.9179 8.09463 32.7743L13.2412 26.0225C13.4786 25.711 13.8971 25.7238 14.1205 26.0494L18.7155 32.7474C18.8251 32.9071 18.9903 33 19.1649 33H27.6716C28.1747 33 28.437 32.2966 28.0959 31.8622L19.0545 20.3464C18.8518 20.0883 18.8504 19.6911 19.0513 19.431L28.1964 7.59261C28.535 7.15427 28.2665 6.45235 27.7627 6.45886Z" fill="#F51919"/>
</svg>
