          <svg width="37" height="45" viewBox="0 0 37 45" fill="none" xmlns="http://www.w3.org/2000/svg" role="img" aria-hidden="true">
            <path d="M18.5 4.29513C23.9472 5.8291 29.9083 7.66987 32.8889 8.69252V24.7481C32.8889 28.2251 29.0861 34.361 18.5 40.4969C7.91389 34.2588 4.11111 28.2251 4.11111 24.7481V8.69252C7.09167 7.56761 13.0528 5.8291 18.5 4.29513ZM18.5 0C18.5 0 0 5.21551 0 6.1359V24.7481C0 34.1565 13.6694 42.44 17.4722 44.6898C17.7764 44.892 18.1341 45 18.5 45C18.8659 45 19.2236 44.892 19.5278 44.6898C23.4333 42.5422 37 34.1565 37 24.7481V6.1359C37 5.21551 18.5 0 18.5 0Z" fill="#0A0E1E"/>
            <path d="M13.9778 28.0206L8.83889 23.0096C8.48279 22.6475 8.26684 22.1717 8.22922 21.6664C8.1916 21.1611 8.33474 20.6589 8.63333 20.2485C8.79969 20.002 9.0206 19.7967 9.2791 19.6485C9.5376 19.5002 9.82682 19.4128 10.1245 19.393C10.4223 19.3733 10.7206 19.4217 10.9966 19.5345C11.2726 19.6474 11.5189 19.8216 11.7167 20.0439L15.4167 23.7255L25.2833 13.908C25.6792 13.6126 26.1688 13.4692 26.6624 13.5041C27.1559 13.539 27.6203 13.7499 27.9702 14.098C28.32 14.4462 28.532 14.9082 28.5671 15.3993C28.6021 15.8904 28.458 16.3776 28.1611 16.7715L16.8556 28.0206C16.6726 28.219 16.4503 28.3774 16.2026 28.4857C15.9549 28.5941 15.6872 28.65 15.4167 28.65C15.1461 28.65 14.8785 28.5941 14.6308 28.4857C14.3831 28.3774 14.1607 28.219 13.9778 28.0206Z" fill="#0A0E1E"/>
          </svg>