<svg width="224" height="224" viewBox="0 0 224 224" fill="none" xmlns="http://www.w3.org/2000/svg">
<path d="M126.885 223.698L126.726 223.422L109.505 193.596L100.265 198.931L89.5692 180.406L80.3267 185.742L69.6323 167.219L58.0822 173.888L46.0504 153.048L36.808 158.384L31.4603 149.122L22.2196 154.457L6.17751 126.671L36.2109 109.331L41.5585 118.594L50.801 113.258L4.83898e-05 25.2679L9.24083 19.9328L3.89412 10.672L3.89316 10.6703L22.3747 1.52588e-05L22.3757 0.00168005L27.7224 9.26245L36.9648 3.92632L59.691 43.2892L80.4835 31.2846L85.8312 40.547L113.554 24.5415L118.901 33.8039L139.694 21.7993L145.041 31.0618L154.284 25.7256L160.968 37.3029L170.207 31.9687L170.209 31.9677L208.978 99.1178L208.976 99.1188L199.737 104.453L215.779 132.239L206.537 137.575L223.757 167.401L223.916 167.677L126.885 223.698ZM207.018 165.083L194.987 144.243L206.537 137.575L190.495 109.789L199.737 104.453L160.968 37.3029L151.726 42.639L145.041 31.0618L133.491 37.7302L150.87 67.8306L141.627 73.1668L118.901 33.8039L100.42 44.4743L117.799 74.5763L108.558 79.9115L85.8312 40.547L65.0386 52.5516L87.7657 91.9161L78.5233 97.2522L27.7224 9.26245L9.24083 19.9328L81.4315 144.971L72.1907 150.306L56.1477 122.518L46.9052 127.855L41.5585 118.594L20.766 130.598L31.4603 149.122L40.7028 143.786L46.0504 153.048L57.6006 146.379L69.6323 167.219L78.8748 161.883L89.5692 180.406L98.8099 175.071L109.505 193.596L118.746 188.261L130.778 209.1L207.018 165.083Z" fill="black"/>
<path fill-rule="evenodd" clip-rule="evenodd" d="M3.89412 10.672L22.3757 0.00168005L27.7224 9.26245L9.24083 19.9328L3.89412 10.672ZM41.5585 118.594L46.9052 127.855L56.1477 122.518L72.1907 150.306L81.4315 144.971L9.24083 19.9328L4.83898e-05 25.2679L50.801 113.258L41.5585 118.594ZM31.4603 149.122L20.766 130.598L41.5585 118.594L36.2109 109.331L6.17751 126.671L22.2196 154.457L31.4603 149.122ZM46.0504 153.048L40.7028 143.786L31.4603 149.122L36.808 158.384L46.0504 153.048ZM69.6323 167.219L57.6006 146.379L46.0504 153.048L58.0822 173.888L69.6323 167.219ZM89.5692 180.406L78.8748 161.883L69.6323 167.219L80.3267 185.742L89.5692 180.406ZM109.505 193.596L98.8099 175.071L89.5692 180.406L100.265 198.931L109.505 193.596ZM206.537 137.575L194.987 144.243L207.018 165.083L130.778 209.1L118.746 188.261L109.505 193.596L126.726 223.422L223.757 167.401L206.537 137.575ZM199.737 104.453L190.495 109.789L206.537 137.575L215.779 132.239L199.737 104.453ZM160.968 37.3029L199.737 104.453L208.976 99.1188L170.207 31.9687L160.968 37.3029ZM145.041 31.0618L151.726 42.639L160.968 37.3029L154.284 25.7256L145.041 31.0618ZM118.901 33.8039L141.627 73.1668L150.87 67.8306L133.491 37.7302L145.041 31.0618L139.694 21.7993L118.901 33.8039ZM85.8312 40.547L65.0386 52.5516L87.7657 91.9161L78.5233 97.2522L27.7224 9.26245L36.9648 3.92632L59.691 43.2892L80.4835 31.2846L85.8312 40.547ZM85.8312 40.547L108.558 79.9115L117.799 74.5763L100.42 44.4743L118.901 33.8039L113.554 24.5415L85.8312 40.547Z" fill="black"/>
<path d="M207.018 165.083L194.987 144.243L206.537 137.575L190.495 109.789L199.737 104.453L160.968 37.3029L151.726 42.639L145.041 31.0618L133.491 37.7302L150.87 67.8306L141.627 73.1668L118.901 33.8039L100.42 44.4743L117.799 74.5763L108.558 79.9115L85.8312 40.547L65.0386 52.5516L87.7657 91.9161L78.5233 97.2522L27.7224 9.26245L9.24083 19.9328L81.4315 144.971L72.1907 150.306L56.1477 122.518L46.9052 127.855L41.5585 118.594L20.766 130.598L31.4603 149.122L40.7028 143.786L46.0504 153.048L57.6006 146.379L69.6323 167.219L78.8748 161.883L89.5692 180.406L98.8099 175.071L109.505 193.596L118.746 188.261L130.778 209.1L207.018 165.083Z" fill="white"/>
</svg>
