<svg width="89" height="118" viewBox="0 0 89 118" fill="none" xmlns="http://www.w3.org/2000/svg">
<g clip-path="url(#clip0_716_1340)">
<path d="M63.7812 0.5L88.5 27.1963V117.5H0.5V0.5H63.7812Z" fill="#E2E2E2" stroke="#636464"/>
<path d="M8 12.5H67.5" stroke="#C9CACA"/>
<path d="M8 60.5H80" stroke="#C9CACA"/>
<path d="M8 36.5H80" stroke="#C9CACA"/>
<path d="M8 84.5H80" stroke="#C9CACA"/>
<path d="M8 24.5H80" stroke="#C9CACA"/>
<path d="M8 72.5H80" stroke="#C9CACA"/>
<path d="M8 48.5H80" stroke="#C9CACA"/>
<path d="M8 96.5H80" stroke="#C9CACA"/>
<path d="M8 16.5H74" stroke="#C9CACA"/>
<path d="M8 64.5H80" stroke="#C9CACA"/>
<path d="M8 40.5H80" stroke="#C9CACA"/>
<path d="M8 88.5H80" stroke="#C9CACA"/>
<path d="M8 28.5H80" stroke="#C9CACA"/>
<path d="M8 76.5H80" stroke="#C9CACA"/>
<path d="M8 52.5H80" stroke="#C9CACA"/>
<path d="M8 100.5H80" stroke="#C9CACA"/>
<path d="M8 20.5H80" stroke="#C9CACA"/>
<path d="M8 68.5H80" stroke="#C9CACA"/>
<path d="M8 44.5H80" stroke="#C9CACA"/>
<path d="M8 92.5H80" stroke="#C9CACA"/>
<path d="M8 32.5H80" stroke="#C9CACA"/>
<path d="M8 80.5H80" stroke="#C9CACA"/>
<path d="M8 56.5H80" stroke="#C9CACA"/>
<path d="M8 104.5H80" stroke="#C9CACA"/>
<path d="M64.5 26.5V1.27637L87.8555 26.5H64.5Z" fill="#EAEAEA" stroke="#636464"/>
<path d="M58.9905 48.8598C58.9905 48.4039 58.7817 47.8231 58.1085 47.1399C57.4307 46.4519 56.3717 45.7604 54.9412 45.1463C52.0874 43.9212 48.0414 43.127 43.4948 43.127C38.9483 43.127 34.9022 43.9212 32.0484 45.1463C30.618 45.7604 29.559 46.4519 28.8812 47.1399C28.208 47.8231 27.9992 48.4039 27.9992 48.8598C27.9992 49.3157 28.208 49.8964 28.8812 50.5796C29.559 51.2675 30.618 51.9591 32.0484 52.5733C34.9022 53.7984 38.9483 54.5925 43.4948 54.5925C48.0414 54.5925 52.0874 53.7984 54.9412 52.5733C56.3717 51.9591 57.4307 51.2675 58.1085 50.5796C58.7817 49.8964 58.9905 49.3157 58.9905 48.8598ZM27.9992 80.0454C28.05 80.4873 28.312 81.0811 29.036 81.7738C29.7865 82.4919 30.9284 83.2098 32.4554 83.8439C33.9726 84.4741 35.7846 84.9862 37.7925 85.3387C39.7981 85.6906 41.9402 85.873 44.0929 85.873C46.2458 85.873 48.3544 85.6906 50.295 85.3398C52.239 84.9885 53.9524 84.4797 55.3458 83.8588C56.7514 83.2325 57.7317 82.5364 58.3211 81.8678C58.8946 81.2173 59.0303 80.6808 58.9959 80.2624L58.9905 80.196V74.9266C58.2637 75.445 57.4322 75.9063 56.5246 76.3107C54.8727 77.0468 52.927 77.6145 50.8072 77.9976C48.6841 78.3812 46.4036 78.5768 44.0929 78.5768C41.7819 78.5768 39.473 78.3814 37.2946 77.999C35.1186 77.6171 33.0954 77.0525 31.3453 76.3256C30.0814 75.8006 28.9476 75.1857 27.9992 74.4844V80.0454ZM27.9992 69.6221C28.05 70.0641 28.312 70.6579 29.036 71.3506C29.7865 72.0686 30.9284 72.7866 32.4554 73.4207C33.9726 74.0509 35.7846 74.563 37.7925 74.9154C39.7981 75.2674 41.9402 75.4497 44.0929 75.4497C46.2458 75.4497 48.3544 75.2674 50.295 74.9166C52.239 74.5653 53.9524 74.0565 55.3458 73.4356C56.7514 72.8092 57.7317 72.1132 58.3211 71.4446C58.7687 70.9368 58.949 70.4985 58.9905 70.1317V64.5034C58.2637 65.0217 57.4322 65.483 56.5246 65.8875C54.8727 66.6236 52.927 67.1913 50.8072 67.5744C48.6841 67.958 46.4036 68.1535 44.0929 68.1535C41.7819 68.1535 39.473 67.9581 37.2946 67.5758C35.1186 67.1938 33.0954 66.6293 31.3453 65.9023C30.0814 65.3773 28.9476 64.7625 27.9992 64.0612V69.6221ZM58.9905 53.8517C58.1461 54.4647 57.1608 55.0021 56.0833 55.4646C52.7861 56.8803 48.3345 57.7194 43.4948 57.7194C38.6552 57.7194 34.2036 56.8803 30.9064 55.4646C29.8288 55.0021 28.8436 54.4647 27.9992 53.8517V59.1989C28.05 59.6408 28.312 60.2347 29.036 60.9273C29.7865 61.6454 30.9284 62.3634 32.4554 62.9975C33.9726 63.6277 35.7846 64.1397 37.7925 64.4922C39.7981 64.8442 41.9402 65.0265 44.0929 65.0265C46.2458 65.0265 48.3544 64.8442 50.295 64.4934C52.239 64.1421 53.9524 63.6333 55.3458 63.0124C56.7514 62.386 57.7317 61.69 58.3211 61.0213C58.7687 60.5136 58.949 60.0753 58.9905 59.7085V53.8517ZM61.9897 59.23C62.0036 59.4423 62.0033 59.6517 61.9897 59.8581V69.6533C62.0036 69.8655 62.0033 70.0749 61.9897 70.2813V80.0765C62.0855 81.5457 61.5013 82.8812 60.5293 83.9838C59.5557 85.0883 58.1641 86.0033 56.5246 86.734C54.8727 87.47 52.927 88.0377 50.8072 88.4209C48.6841 88.8045 46.4036 89 44.0929 89C41.7819 89 39.473 88.8046 37.2946 88.4223C35.1186 88.0403 33.0954 87.4757 31.3453 86.7488C29.6048 86.0259 28.111 85.1328 27.0082 84.0778C25.906 83.0234 25.126 81.735 25.0054 80.2624L25 80.196V48.8598C25 47.3009 25.7423 45.9621 26.7892 44.8995C27.8313 43.8417 29.2612 42.9611 30.9064 42.2548C34.2036 40.8393 38.6552 40 43.4948 40C48.3345 40 52.7861 40.8393 56.0833 42.2548C57.7283 42.9611 59.1584 43.8417 60.2005 44.8995C61.2474 45.9621 61.9897 47.3009 61.9897 48.8598V59.23Z" fill="#FE2B2B"/>
<path d="M27.9992 80.0454C28.05 80.4873 28.312 81.0811 29.036 81.7738C29.7865 82.4919 30.9284 83.2098 32.4554 83.8439C33.9726 84.4741 35.7846 84.9862 37.7925 85.3387C39.7981 85.6906 41.9402 85.873 44.0929 85.873C46.2458 85.873 48.3544 85.6906 50.295 85.3398C52.239 84.9885 53.9524 84.4797 55.3458 83.8588C56.7514 83.2325 57.7317 82.5364 58.3211 81.8678C58.8946 81.2173 59.0303 80.6808 58.9959 80.2624L58.9905 80.196V74.9266C58.2637 75.445 57.4322 75.9063 56.5246 76.3107C54.8727 77.0468 52.927 77.6145 50.8072 77.9976C48.6841 78.3812 46.4036 78.5768 44.0929 78.5768C41.7819 78.5768 39.473 78.3814 37.2946 77.999C35.1186 77.6171 33.0954 77.0525 31.3453 76.3256C30.0814 75.8006 28.9476 75.1857 27.9992 74.4844V80.0454Z" fill="#E2E2E2"/>
<path d="M27.9992 69.6221C28.05 70.0641 28.312 70.6579 29.036 71.3506C29.7865 72.0686 30.9284 72.7866 32.4554 73.4207C33.9726 74.0509 35.7846 74.563 37.7925 74.9154C39.7981 75.2674 41.9402 75.4497 44.0929 75.4497C46.2458 75.4497 48.3544 75.2674 50.295 74.9166C52.239 74.5653 53.9524 74.0565 55.3458 73.4356C56.7514 72.8092 57.7317 72.1132 58.3211 71.4446C58.7687 70.9368 58.949 70.4985 58.9905 70.1317V64.5034C58.2637 65.0217 57.4322 65.483 56.5246 65.8875C54.8727 66.6236 52.927 67.1913 50.8072 67.5744C48.6841 67.958 46.4036 68.1535 44.0929 68.1535C41.7819 68.1535 39.473 67.9581 37.2946 67.5758C35.1186 67.1938 33.0954 66.6293 31.3453 65.9023C30.0814 65.3773 28.9476 64.7625 27.9992 64.0612V69.6221Z" fill="#E2E2E2"/>
<path d="M58.9905 53.8517C58.1461 54.4647 57.1608 55.0021 56.0833 55.4646C52.7861 56.8803 48.3345 57.7194 43.4948 57.7194C38.6552 57.7194 34.2036 56.8803 30.9064 55.4646C29.8288 55.0021 28.8436 54.4647 27.9992 53.8517V59.1989C28.05 59.6408 28.312 60.2347 29.036 60.9273C29.7865 61.6454 30.9284 62.3634 32.4554 62.9975C33.9726 63.6277 35.7846 64.1397 37.7925 64.4922C39.7981 64.8442 41.9402 65.0265 44.0929 65.0265C46.2458 65.0265 48.3544 64.8442 50.295 64.4934C52.239 64.1421 53.9524 63.6333 55.3458 63.0124C56.7514 62.386 57.7317 61.69 58.3211 61.0213C58.7687 60.5136 58.949 60.0753 58.9905 59.7085V53.8517Z" fill="#E2E2E2"/>
<path d="M58.9905 48.8598C58.9905 48.4039 58.7817 47.8231 58.1085 47.1399C57.4307 46.4519 56.3717 45.7604 54.9412 45.1463C52.0874 43.9212 48.0414 43.127 43.4948 43.127C38.9483 43.127 34.9022 43.9212 32.0484 45.1463C30.618 45.7604 29.559 46.4519 28.8812 47.1399C28.208 47.8231 27.9992 48.4039 27.9992 48.8598C27.9992 49.3157 28.208 49.8964 28.8812 50.5796C29.559 51.2675 30.618 51.9591 32.0484 52.5733C34.9022 53.7984 38.9483 54.5925 43.4948 54.5925C48.0414 54.5925 52.0874 53.7984 54.9412 52.5733C56.3717 51.9591 57.4307 51.2675 58.1085 50.5796C58.7817 49.8964 58.9905 49.3157 58.9905 48.8598Z" fill="#E2E2E2"/>
</g>
<defs>
<clipPath id="clip0_716_1340">
<rect width="89" height="118" fill="white"/>
</clipPath>
</defs>
</svg>
