<svg width="89" height="118" viewBox="0 0 89 118" fill="none" xmlns="http://www.w3.org/2000/svg">
<g clip-path="url(#clip0_716_1232)">
<path d="M63.7812 0.5L88.5 27.1963V117.5H0.5V0.5H63.7812Z" fill="#E2E2E2" stroke="#636464"/>
<path d="M8 12.5H67.5" stroke="#C9CACA"/>
<path d="M8 60.5H80" stroke="#C9CACA"/>
<path d="M8 36.5H80" stroke="#C9CACA"/>
<path d="M8 84.5H80" stroke="#C9CACA"/>
<path d="M8 24.5H80" stroke="#C9CACA"/>
<path d="M8 72.5H80" stroke="#C9CACA"/>
<path d="M8 48.5H80" stroke="#C9CACA"/>
<path d="M8 96.5H80" stroke="#C9CACA"/>
<path d="M8 16.5H74" stroke="#C9CACA"/>
<path d="M8 64.5H80" stroke="#C9CACA"/>
<path d="M8 40.5H80" stroke="#C9CACA"/>
<path d="M8 88.5H80" stroke="#C9CACA"/>
<path d="M8 28.5H80" stroke="#C9CACA"/>
<path d="M8 76.5H80" stroke="#C9CACA"/>
<path d="M8 52.5H80" stroke="#C9CACA"/>
<path d="M8 100.5H80" stroke="#C9CACA"/>
<path d="M8 20.5H80" stroke="#C9CACA"/>
<path d="M8 68.5H80" stroke="#C9CACA"/>
<path d="M8 44.5H80" stroke="#C9CACA"/>
<path d="M8 92.5H80" stroke="#C9CACA"/>
<path d="M8 32.5H80" stroke="#C9CACA"/>
<path d="M8 80.5H80" stroke="#C9CACA"/>
<path d="M8 56.5H80" stroke="#C9CACA"/>
<path d="M8 104.5H80" stroke="#C9CACA"/>
<path d="M64.5 26.5V1.27637L87.8555 26.5H64.5Z" fill="#EAEAEA" stroke="#636464"/>
<g opacity="0.98">
<path fill-rule="evenodd" clip-rule="evenodd" d="M67 37H23V82H67V37ZM45.0745 70.4716C45.0745 74.2567 42.871 76.4608 39.0723 76.4608C35.4444 76.4608 33.2408 74.2567 33.1435 70.8826V70.783H36.7106V70.8577C36.7836 72.2398 37.5871 73.2109 39.0237 73.2109C40.5821 73.2109 41.3979 72.2521 41.3979 70.4467V58.033H45.0745V70.4716ZM61.982 70.6459C61.982 74.2069 59.2791 76.4608 54.8965 76.4608C50.6962 76.4608 48.0422 74.4064 47.8354 71.2186L47.823 71.0194H51.3659L51.378 71.1439C51.512 72.4888 52.9365 73.3978 54.9939 73.3978C56.9539 73.3978 58.3053 72.439 58.3053 71.0569V71.0443C58.3053 69.8617 57.4408 69.2017 55.2617 68.7409L53.411 68.3551C49.7588 67.5955 48.1882 65.8522 48.1882 63.1255V63.1129C48.1882 59.776 50.9884 57.5722 54.8842 57.5722C58.987 57.5722 61.3977 59.7886 61.6287 62.7892L61.6411 62.9512H58.1835L58.1593 62.8018C57.9521 61.5193 56.7348 60.6229 54.8842 60.6229C53.0702 60.6352 51.8649 61.4818 51.8649 62.8267V62.839C51.8649 64.0096 52.7173 64.7068 54.7867 65.1427L56.6494 65.5285C60.3628 66.313 61.982 67.8319 61.982 70.6336V70.6459Z" fill="#FE2B2B"/>
<path d="M61.982 70.6459C61.982 74.2069 59.2791 76.4608 54.8965 76.4608C50.6962 76.4608 48.0422 74.4064 47.8354 71.2186L47.823 71.0194H51.3659L51.378 71.1439C51.512 72.4888 52.9365 73.3978 54.9939 73.3978C56.9539 73.3978 58.3053 72.439 58.3053 71.0569V71.0443C58.3053 69.8617 57.4408 69.2017 55.2617 68.7409L53.411 68.3551C49.7588 67.5955 48.1882 65.8522 48.1882 63.1255V63.1129C48.1882 59.776 50.9884 57.5722 54.8842 57.5722C58.987 57.5722 61.3977 59.7886 61.6287 62.7892L61.6411 62.9512H58.1835L58.1593 62.8018C57.9521 61.5193 56.7348 60.6229 54.8842 60.6229C53.0702 60.6352 51.8649 61.4818 51.8649 62.8267V62.839C51.8649 64.0096 52.7173 64.7068 54.7867 65.1427L56.6494 65.5285C60.3628 66.313 61.982 67.8319 61.982 70.6336V70.6459Z" fill="#E2E2E2"/>
<path d="M45.0745 70.4716C45.0745 74.2567 42.871 76.4608 39.0723 76.4608C35.4444 76.4608 33.2408 74.2567 33.1435 70.8826V70.783H36.7106V70.8577C36.7836 72.2398 37.5871 73.2109 39.0237 73.2109C40.5821 73.2109 41.3979 72.2521 41.3979 70.4467V58.033H45.0745V70.4716Z" fill="#E2E2E2"/>
</g>
</g>
<defs>
<clipPath id="clip0_716_1232">
<rect width="89" height="118" fill="white"/>
</clipPath>
</defs>
</svg>
