<svg width="89" height="118" viewBox="0 0 89 118" fill="none" xmlns="http://www.w3.org/2000/svg">
<g clip-path="url(#clip0_716_972)">
<path d="M63.7812 0.5L88.5 27.1963V117.5H0.5V0.5H63.7812Z" fill="#F6F7F8" stroke="#636464"/>
<path d="M8 12.5H67.5" stroke="#C9CACA"/>
<path d="M8 60.5H80" stroke="#C9CACA"/>
<path d="M8 36.5H80" stroke="#C9CACA"/>
<path d="M8 84.5H80" stroke="#C9CACA"/>
<path d="M8 24.5H80" stroke="#C9CACA"/>
<path d="M8 72.5H80" stroke="#C9CACA"/>
<path d="M8 48.5H80" stroke="#C9CACA"/>
<path d="M8 16.5H74" stroke="#C9CACA"/>
<path d="M8 64.5H80" stroke="#C9CACA"/>
<path d="M8 40.5H80" stroke="#C9CACA"/>
<path d="M8 88.5H80" stroke="#C9CACA"/>
<path d="M8 28.5H80" stroke="#C9CACA"/>
<path d="M8 76.5H80" stroke="#C9CACA"/>
<path d="M8 52.5H80" stroke="#C9CACA"/>
<path d="M8 20.5H80" stroke="#C9CACA"/>
<path d="M8 68.5H80" stroke="#C9CACA"/>
<path d="M8 44.5H80" stroke="#C9CACA"/>
<path d="M8 92.5H80" stroke="#C9CACA"/>
<path d="M8 32.5H80" stroke="#C9CACA"/>
<path d="M8 80.5H80" stroke="#C9CACA"/>
<path d="M8 56.5H80" stroke="#C9CACA"/>
<path d="M64.5 26.5V1.27637L87.8555 26.5H64.5Z" fill="#EAEAEA" stroke="#636464"/>
<g opacity="0.98">
<path fill-rule="evenodd" clip-rule="evenodd" d="M61.2866 45.3935L47.2161 36.772C46.3735 36.2534 45.4263 35.9961 44.48 36C43.5357 35.9961 42.5906 36.2529 41.7499 36.7703L27.7074 45.3728C26.0222 46.422 24.9947 48.3069 25 50.3374C25 50.3526 25 50.3679 25.0001 50.3832V67.5536C25 67.5717 25 67.5897 25.0001 67.6077V67.6231C24.9909 69.6624 26.0214 71.5565 27.7134 72.6099L41.7839 81.2285C43.4565 82.2572 45.5407 82.2572 47.2132 81.2285L61.2838 72.6099C62.9777 71.5567 64.0095 69.6611 63.9999 67.6202V50.3832C64.0101 48.3428 62.9794 46.4474 61.2866 45.3935ZM50.3257 61.4711C50.3229 61.3057 50.2301 61.2477 50.1177 61.3057L49.4177 61.767C49.2896 61.8494 49.212 61.9943 49.2124 62.15L49.263 63.415C48.2434 64.2504 47.6391 65.5126 47.6156 66.856C47.6353 68.3937 48.5827 68.5968 49.6032 68.5968C50.3932 68.6026 50.7277 68.8637 50.7277 69.4904C50.7034 70.2365 50.28 70.907 49.6285 71.2312C49.177 71.496 48.6425 71.5659 48.1413 71.4256C48.1047 71.4086 48.0627 71.4086 48.0261 71.4256C48.0013 71.4386 47.9786 71.4552 47.9586 71.475C47.8955 71.538 47.8515 71.6187 47.8321 71.7071L47.5763 72.8241C47.5453 72.9546 47.5791 73.0678 47.6522 73.0968C48.0457 73.2593 48.6614 73.1984 49.2687 72.9372V74.1529C49.2715 74.3154 49.3642 74.3734 49.4767 74.3154L50.1851 73.8947C50.3111 73.813 50.3884 73.671 50.3904 73.5175L50.3679 72.2815C51.4284 71.3948 52.0575 70.0718 52.0884 68.6635C52.0743 67.3144 51.5121 66.7312 50.2161 66.708C49.2349 66.6906 48.9538 66.5311 48.9538 65.9508C48.9699 65.3058 49.3425 64.7274 49.9124 64.4624C50.3023 64.2233 50.7657 64.1465 51.2085 64.2477C51.244 64.2542 51.2807 64.248 51.3125 64.2303C51.3384 64.2167 51.3621 64.1991 51.3828 64.1781C51.4416 64.1172 51.4834 64.041 51.5036 63.9576L51.7707 62.8521C51.8045 62.7071 51.7679 62.5852 51.6808 62.562C51.2267 62.4744 50.7575 62.5331 50.337 62.7303L50.3257 61.4711ZM57.5599 69.2529L54.0627 71.4115C53.969 71.4504 53.9062 71.5425 53.9024 71.6466V72.5953C53.9024 72.7113 53.9783 72.7578 54.0711 72.7026L57.6218 70.4744C57.7087 70.4071 57.7503 70.2942 57.7286 70.1843V69.3516C57.7258 69.2442 57.6442 69.1978 57.5599 69.2529ZM28.2065 71.7289L42.277 80.3474C42.9497 80.7599 43.7176 80.9778 44.5 80.9784C44.7476 80.9761 44.9946 80.9518 45.2382 80.9057C44.4944 80.6702 44.0126 79.8705 44.0126 78.6348V61.7059C44.0154 59.6414 45.2382 58.5161 46.8977 57.5187L60.1991 49.0165C61.4247 48.2896 62.4756 48.5716 62.9433 49.5981C62.7319 48.2168 61.9413 47.0019 60.7823 46.2774L46.723 37.656C45.3536 36.8128 43.6464 36.8128 42.277 37.656L28.2065 46.2774C26.8156 47.1466 25.9685 48.7051 25.975 50.3832V67.6231C25.9691 69.301 26.816 70.8593 28.2065 71.7289Z" fill="#191919"/>
<path d="M28.2065 71.7289L42.277 80.3474C42.9497 80.7599 43.7176 80.9778 44.5 80.9784C44.7476 80.9761 44.9946 80.9518 45.2382 80.9057C44.4944 80.6702 44.0126 79.8705 44.0126 78.6348V61.7059C44.0154 59.6414 45.2382 58.5161 46.8977 57.5187L60.1991 49.0165C61.4247 48.2896 62.4756 48.5716 62.9433 49.5981C62.7319 48.2168 61.9413 47.0019 60.7823 46.2774L46.723 37.656C45.3536 36.8128 43.6464 36.8128 42.277 37.656L28.2065 46.2774C26.8156 47.1466 25.9685 48.7051 25.975 50.3832V67.6231C25.9691 69.301 26.816 70.8593 28.2065 71.7289Z" fill="#F6F7F8"/>
<path d="M50.3257 61.4711C50.3229 61.3057 50.2301 61.2477 50.1177 61.3057L49.4177 61.767C49.2896 61.8494 49.212 61.9943 49.2124 62.15L49.263 63.415C48.2434 64.2504 47.6391 65.5126 47.6156 66.856C47.6353 68.3937 48.5827 68.5968 49.6032 68.5968C50.3932 68.6026 50.7277 68.8637 50.7277 69.4904C50.7034 70.2365 50.28 70.907 49.6285 71.2312C49.177 71.496 48.6425 71.5659 48.1413 71.4256C48.1047 71.4086 48.0627 71.4086 48.0261 71.4256C48.0013 71.4386 47.9786 71.4552 47.9586 71.475C47.8955 71.538 47.8515 71.6187 47.8321 71.7071L47.5763 72.8241C47.5453 72.9546 47.5791 73.0678 47.6522 73.0968C48.0457 73.2593 48.6614 73.1984 49.2687 72.9372V74.1529C49.2715 74.3154 49.3642 74.3734 49.4767 74.3154L50.1851 73.8947C50.3111 73.813 50.3884 73.671 50.3904 73.5175L50.3679 72.2815C51.4284 71.3948 52.0575 70.0718 52.0884 68.6635C52.0743 67.3144 51.5121 66.7312 50.2161 66.708C49.2349 66.6906 48.9538 66.5311 48.9538 65.9508C48.9699 65.3058 49.3425 64.7274 49.9124 64.4624C50.3023 64.2233 50.7657 64.1465 51.2085 64.2477C51.244 64.2542 51.2807 64.248 51.3125 64.2303C51.3384 64.2167 51.3621 64.1991 51.3828 64.1781C51.4416 64.1172 51.4834 64.041 51.5036 63.9576L51.7707 62.8521C51.8045 62.7071 51.7679 62.5852 51.6808 62.562C51.2267 62.4744 50.7575 62.5331 50.337 62.7303L50.3257 61.4711Z" fill="white"/>
<path d="M57.5599 69.2529L54.0627 71.4115C53.969 71.4504 53.9062 71.5425 53.9024 71.6466V72.5953C53.9024 72.7113 53.9783 72.7578 54.0711 72.7026L57.6218 70.4744C57.7087 70.4071 57.7503 70.2942 57.7286 70.1843V69.3516C57.7258 69.2442 57.6442 69.1978 57.5599 69.2529Z" fill="white"/>
</g>
</g>
<defs>
<clipPath id="clip0_716_972">
<rect width="89" height="118" fill="white"/>
</clipPath>
</defs>
</svg>
