<svg width="89" height="118" viewBox="0 0 89 118" fill="none" xmlns="http://www.w3.org/2000/svg">
<g clip-path="url(#clip0_716_1423)">
<path d="M63.7812 0.5L88.5 27.1963V117.5H0.5V0.5H63.7812Z" fill="#E2E2E2" stroke="#636464"/>
<path d="M8 12.5H67.5" stroke="#C9CACA"/>
<path d="M8 60.5H80" stroke="#C9CACA"/>
<path d="M8 36.5H80" stroke="#C9CACA"/>
<path d="M8 84.5H80" stroke="#C9CACA"/>
<path d="M8 24.5H80" stroke="#C9CACA"/>
<path d="M8 72.5H80" stroke="#C9CACA"/>
<path d="M8 48.5H80" stroke="#C9CACA"/>
<path d="M8 16.5H74" stroke="#C9CACA"/>
<path d="M8 64.5H80" stroke="#C9CACA"/>
<path d="M8 40.5H80" stroke="#C9CACA"/>
<path d="M8 88.5H80" stroke="#C9CACA"/>
<path d="M8 28.5H80" stroke="#C9CACA"/>
<path d="M8 76.5H80" stroke="#C9CACA"/>
<path d="M8 52.5H80" stroke="#C9CACA"/>
<path d="M8 20.5H80" stroke="#C9CACA"/>
<path d="M8 68.5H80" stroke="#C9CACA"/>
<path d="M8 44.5H80" stroke="#C9CACA"/>
<path d="M8 92.5H80" stroke="#C9CACA"/>
<path d="M8 32.5H80" stroke="#C9CACA"/>
<path d="M8 80.5H80" stroke="#C9CACA"/>
<path d="M8 56.5H80" stroke="#C9CACA"/>
<path d="M64.5 26.5V1.27637L87.8555 26.5H64.5Z" fill="#EAEAEA" stroke="#636464"/>
<g opacity="0.98">
<path fill-rule="evenodd" clip-rule="evenodd" d="M62.9387 41.6188L47.0643 31.8727C46.1137 31.2865 45.0451 30.9956 43.9775 31C42.9121 30.9956 41.8458 31.2859 40.8973 31.8708L25.0545 41.5954C23.1533 42.7814 21.994 44.9122 22 47.2075C22 47.2247 22 47.242 22.0001 47.2593V66.6693C22 66.6897 22 66.7101 22.0001 66.7304V66.7478C21.9898 69.0531 23.1524 71.1943 25.0613 72.3851L40.9357 82.1278C42.8227 83.2907 45.1741 83.2907 47.0611 82.1278L62.9356 72.3851C64.8467 71.1945 66.0107 69.0517 65.9999 66.7446V47.2593C66.0114 44.9528 64.8486 42.8101 62.9387 41.6188ZM50.5726 59.7934C50.5694 59.6064 50.4648 59.5409 50.3379 59.6064L49.5482 60.1279C49.4037 60.2211 49.3161 60.3849 49.3166 60.5609L49.3737 61.9909C48.2233 62.9352 47.5416 64.3621 47.5151 65.8807C47.5373 67.619 48.6061 67.8486 49.7575 67.8486C50.6488 67.8551 51.0261 68.1503 51.0261 68.8587C50.9987 69.7021 50.5211 70.4601 49.786 70.8266C49.2766 71.1259 48.6736 71.2049 48.1082 71.0463C48.0669 71.0271 48.0195 71.0271 47.9782 71.0463C47.9502 71.061 47.9246 71.0798 47.902 71.1022C47.8308 71.1734 47.7812 71.2646 47.7593 71.3645L47.4707 72.6272C47.4357 72.7747 47.4739 72.9027 47.5564 72.9355C48.0003 73.1192 48.6949 73.0504 49.3801 72.7551V74.1293C49.3833 74.313 49.4878 74.3786 49.6148 74.313L50.414 73.8375C50.5561 73.7451 50.6433 73.5846 50.6456 73.4111L50.6202 72.0139C51.8167 71.0115 52.5264 69.5159 52.5613 67.9239C52.5454 66.3989 51.9111 65.7396 50.449 65.7134C49.342 65.6937 49.0248 65.5134 49.0248 64.8574C49.043 64.1283 49.4634 63.4745 50.1063 63.1749C50.5462 62.9046 51.069 62.8178 51.5686 62.9322C51.6086 62.9395 51.65 62.9325 51.6859 62.9125C51.7151 62.8971 51.7419 62.8772 51.7652 62.8535C51.8316 62.7847 51.8787 62.6985 51.9015 62.6042L52.2029 61.3546C52.241 61.1906 52.1997 61.0528 52.1014 61.0266C51.5891 60.9276 51.0598 60.9939 50.5854 61.2169L50.5726 59.7934ZM58.7343 68.5902L54.7887 71.0304C54.683 71.0744 54.6121 71.1785 54.6079 71.2961V72.3686C54.6079 72.4997 54.6935 72.5523 54.7982 72.4899L58.8041 69.9711C58.9021 69.895 58.9491 69.7673 58.9246 69.6431V68.7018C58.9214 68.5804 58.8294 68.5279 58.7343 68.5902ZM25.6176 71.3892L41.492 81.1318C42.251 81.5981 43.1173 81.8444 44 81.8451C44.2794 81.8425 44.558 81.8151 44.8329 81.7629C43.9937 81.4967 43.4501 80.5927 43.4501 79.1958V60.0588C43.4533 57.7251 44.8329 56.453 46.7051 55.3255L61.7118 45.7143C63.0946 44.8926 64.2802 45.2114 64.8078 46.3718C64.5693 44.8103 63.6774 43.437 62.3698 42.618L46.508 32.872C44.9631 31.9189 43.037 31.9189 41.492 32.872L25.6176 42.618C24.0484 43.6005 23.0927 45.3623 23.1 47.2593V66.7478C23.0934 68.6446 24.0488 70.4062 25.6176 71.3892Z" fill="#FE2B2B"/>
<path d="M25.6176 71.3892L41.492 81.1318C42.251 81.5981 43.1173 81.8444 44 81.8451C44.2794 81.8425 44.558 81.8151 44.8329 81.7629C43.9937 81.4967 43.4501 80.5927 43.4501 79.1958V60.0588C43.4533 57.7251 44.8329 56.453 46.7051 55.3255L61.7118 45.7143C63.0946 44.8926 64.2802 45.2114 64.8078 46.3718C64.5693 44.8103 63.6774 43.437 62.3698 42.618L46.508 32.872C44.9631 31.9189 43.037 31.9189 41.492 32.872L25.6176 42.618C24.0484 43.6005 23.0927 45.3623 23.1 47.2593V66.7478C23.0934 68.6446 24.0488 70.4062 25.6176 71.3892Z" fill="#E2E2E2"/>
<path d="M50.5726 59.7934C50.5694 59.6064 50.4648 59.5409 50.3379 59.6064L49.5482 60.1279C49.4037 60.2211 49.3161 60.3849 49.3166 60.5609L49.3737 61.9909C48.2233 62.9352 47.5416 64.3621 47.5151 65.8807C47.5373 67.619 48.6061 67.8486 49.7575 67.8486C50.6488 67.8551 51.0261 68.1503 51.0261 68.8587C50.9987 69.7021 50.5211 70.4601 49.786 70.8266C49.2766 71.1259 48.6736 71.2049 48.1082 71.0463C48.0669 71.0271 48.0195 71.0271 47.9782 71.0463C47.9502 71.061 47.9246 71.0798 47.902 71.1022C47.8308 71.1734 47.7812 71.2646 47.7593 71.3645L47.4707 72.6272C47.4357 72.7747 47.4739 72.9027 47.5564 72.9355C48.0003 73.1192 48.6949 73.0504 49.3801 72.7551V74.1293C49.3833 74.313 49.4878 74.3786 49.6148 74.313L50.414 73.8375C50.5561 73.7451 50.6433 73.5846 50.6456 73.4111L50.6202 72.0139C51.8167 71.0115 52.5264 69.5159 52.5613 67.9239C52.5454 66.3989 51.9111 65.7396 50.449 65.7134C49.342 65.6937 49.0248 65.5134 49.0248 64.8574C49.043 64.1283 49.4634 63.4745 50.1063 63.1749C50.5462 62.9046 51.069 62.8178 51.5686 62.9322C51.6086 62.9395 51.65 62.9325 51.6859 62.9125C51.7151 62.8971 51.7419 62.8772 51.7652 62.8535C51.8316 62.7847 51.8787 62.6985 51.9015 62.6042L52.2029 61.3546C52.241 61.1906 52.1997 61.0528 52.1014 61.0266C51.5891 60.9276 51.0598 60.9939 50.5854 61.2169L50.5726 59.7934Z" fill="white"/>
<path d="M58.7343 68.5902L54.7887 71.0304C54.683 71.0744 54.6121 71.1785 54.6079 71.2961V72.3686C54.6079 72.4997 54.6935 72.5523 54.7982 72.4899L58.8041 69.9711C58.9021 69.895 58.9491 69.7673 58.9246 69.6431V68.7018C58.9214 68.5804 58.8294 68.5279 58.7343 68.5902Z" fill="white"/>
</g>
</g>
<defs>
<clipPath id="clip0_716_1423">
<rect width="89" height="118" fill="white"/>
</clipPath>
</defs>
</svg>
