<svg width="89" height="118" viewBox="0 0 89 118" fill="none" xmlns="http://www.w3.org/2000/svg">
<g clip-path="url(#clip0_699_427)">
<path d="M63.7812 0.5L88.5 27.1963V117.5H0.5V0.5H63.7812Z" fill="#F6F7F8" stroke="#636464"/>
<path d="M8 12.5H67.5" stroke="#C9CACA"/>
<path d="M8 60.5H80" stroke="#C9CACA"/>
<path d="M8 36.5H80" stroke="#C9CACA"/>
<path d="M8 84.5H80" stroke="#C9CACA"/>
<path d="M8 24.5H80" stroke="#C9CACA"/>
<path d="M8 72.5H80" stroke="#C9CACA"/>
<path d="M8 48.5H80" stroke="#C9CACA"/>
<path d="M8 96.5H80" stroke="#C9CACA"/>
<path d="M8 16.5H74" stroke="#C9CACA"/>
<path d="M8 64.5H80" stroke="#C9CACA"/>
<path d="M8 40.5H80" stroke="#C9CACA"/>
<path d="M8 88.5H80" stroke="#C9CACA"/>
<path d="M8 28.5H80" stroke="#C9CACA"/>
<path d="M8 76.5H80" stroke="#C9CACA"/>
<path d="M8 52.5H80" stroke="#C9CACA"/>
<path d="M8 100.5H80" stroke="#C9CACA"/>
<path d="M8 20.5H80" stroke="#C9CACA"/>
<path d="M8 68.5H80" stroke="#C9CACA"/>
<path d="M8 44.5H80" stroke="#C9CACA"/>
<path d="M8 92.5H80" stroke="#C9CACA"/>
<path d="M8 32.5H80" stroke="#C9CACA"/>
<path d="M8 80.5H80" stroke="#C9CACA"/>
<path d="M8 56.5H80" stroke="#C9CACA"/>
<path d="M8 104.5H80" stroke="#C9CACA"/>
<path d="M64.5 26.5V1.27637L87.8555 26.5H64.5Z" fill="#EAEAEA" stroke="#636464"/>
<g opacity="0.98">
<path fill-rule="evenodd" clip-rule="evenodd" d="M61.5704 49.7335C61.8565 50.2308 61.9979 50.8103 61.9982 51.466C62 56.8229 62 67.5336 62 67.5336C62 68.0949 61.8959 68.6001 61.6869 69.0458C61.6571 69.1095 61.6251 69.1719 61.591 69.2332C61.3098 69.7366 60.8831 70.158 60.3056 70.4893C58.3493 71.6075 56.3923 72.7242 54.4353 73.8409L54.433 73.8422L54.4307 73.8436L54.4283 73.8449L54.426 73.8462C51.7243 75.3879 49.0227 76.9295 46.3231 78.4748C45.0669 79.1938 43.8494 79.1678 42.6024 78.4383C41.4827 77.7833 37.6527 75.6007 34.1847 73.6244L34.1826 73.6232L34.1807 73.6221C31.9073 72.3265 29.79 71.12 28.6945 70.4909C28.117 70.1595 27.6903 69.7383 27.4092 69.2345C27.1357 68.7447 27 68.1765 27 67.5351C27.0009 64.8566 27.0009 62.1783 27.0009 59.4999C27.0009 56.8215 27.0009 54.1432 27.0018 51.4648C27.0021 50.1639 27.5565 49.163 28.696 48.509C29.7953 47.8777 31.9235 46.6648 34.2058 45.3639C37.6679 43.3906 41.4852 41.215 42.6029 40.5615C43.8494 39.8324 45.0669 39.8062 46.3227 40.5249C48.9844 42.0486 51.648 43.5686 54.3117 45.0887C56.3094 46.2288 58.3072 47.3689 60.3041 48.5105C60.8686 48.8345 61.2894 49.2444 61.5704 49.7335ZM55.863 65.9433C53.6371 69.7624 49.4928 72.3457 44.7361 72.3972L44.5912 72.398C39.7633 72.398 35.5495 69.7907 33.3046 65.9186C33.2974 65.9062 33.2902 65.8938 33.2831 65.8814C32.2004 63.9996 31.5816 61.8215 31.5816 59.4999C31.5816 52.3766 37.406 46.6019 44.5912 46.6019C49.3884 46.6019 53.5787 49.1766 55.8345 53.0079L50.172 56.2403C49.0563 54.3676 47.0111 53.1038 44.6651 53.0777L44.5912 53.0773C41.0135 53.0773 38.113 55.9528 38.113 59.4999C38.113 60.6444 38.4167 61.7183 38.9459 62.6488C38.953 62.6614 38.9601 62.6738 38.9673 62.6863C40.084 64.619 42.1831 65.9226 44.5912 65.9226C46.9946 65.9226 49.0912 64.6235 50.2092 62.6959L55.863 65.9433ZM54.6476 57.6184V55.7891H53.7251V57.6184H51.8799V58.5331H53.7251V60.3624H51.8799V61.277H53.7251V63.1064H54.6476V61.277H56.4927V63.1064H57.4153V61.277H59.2604V60.3624H57.4153V58.5331H59.2604V57.6184H57.4153V55.7891H56.4927V57.6184H54.6476ZM56.4927 58.5331H54.6476V60.3624H56.4927V58.5331Z" fill="#191919"/>
<path d="M55.863 65.9433C53.6371 69.7624 49.4928 72.3457 44.7361 72.3972L44.5912 72.398C39.7633 72.398 35.5495 69.7907 33.3046 65.9186L33.2831 65.8814C32.2004 63.9996 31.5816 61.8215 31.5816 59.4999C31.5816 52.3766 37.406 46.6019 44.5912 46.6019C49.3884 46.6019 53.5787 49.1766 55.8345 53.0079L50.172 56.2403C49.0563 54.3676 47.0111 53.1038 44.6651 53.0777L44.5912 53.0773C41.0135 53.0773 38.113 55.9528 38.113 59.4999C38.113 60.6444 38.4167 61.7183 38.9459 62.6488L38.9673 62.6863C40.084 64.619 42.1831 65.9226 44.5912 65.9226C46.9946 65.9226 49.0912 64.6235 50.2092 62.6959L55.863 65.9433Z" fill="#F6F7F8"/>
<path fill-rule="evenodd" clip-rule="evenodd" d="M54.6476 57.6184V55.7891H53.7251V57.6184H51.8799V58.5331H53.7251V60.3624H51.8799V61.277H53.7251V63.1064H54.6476V61.277H56.4927V63.1064H57.4153V61.277H59.2604V60.3624H57.4153V58.5331H59.2604V57.6184H57.4153V55.7891H56.4927V57.6184H54.6476ZM54.6476 58.5331H56.4927V60.3624H54.6476V58.5331Z" fill="#F6F7F8"/>
</g>
</g>
<defs>
<clipPath id="clip0_699_427">
<rect width="89" height="118" fill="white"/>
</clipPath>
</defs>
</svg>
