<svg width="89" height="118" viewBox="0 0 89 118" fill="none" xmlns="http://www.w3.org/2000/svg">
<g clip-path="url(#clip0_716_1284)">
<path d="M63.7812 0.5L88.5 27.1963V117.5H0.5V0.5H63.7812Z" fill="#E2E2E2" stroke="#636464"/>
<path d="M8 12.5H67.5" stroke="#C9CACA"/>
<path d="M8 60.5H80" stroke="#C9CACA"/>
<path d="M8 36.5H80" stroke="#C9CACA"/>
<path d="M8 84.5H80" stroke="#C9CACA"/>
<path d="M8 24.5H80" stroke="#C9CACA"/>
<path d="M8 72.5H80" stroke="#C9CACA"/>
<path d="M8 48.5H80" stroke="#C9CACA"/>
<path d="M8 96.5H80" stroke="#C9CACA"/>
<path d="M8 16.5H74" stroke="#C9CACA"/>
<path d="M8 64.5H80" stroke="#C9CACA"/>
<path d="M8 40.5H80" stroke="#C9CACA"/>
<path d="M8 88.5H80" stroke="#C9CACA"/>
<path d="M8 28.5H80" stroke="#C9CACA"/>
<path d="M8 76.5H80" stroke="#C9CACA"/>
<path d="M8 52.5H80" stroke="#C9CACA"/>
<path d="M8 100.5H80" stroke="#C9CACA"/>
<path d="M8 20.5H80" stroke="#C9CACA"/>
<path d="M8 68.5H80" stroke="#C9CACA"/>
<path d="M8 44.5H80" stroke="#C9CACA"/>
<path d="M8 92.5H80" stroke="#C9CACA"/>
<path d="M8 32.5H80" stroke="#C9CACA"/>
<path d="M8 80.5H80" stroke="#C9CACA"/>
<path d="M8 56.5H80" stroke="#C9CACA"/>
<path d="M8 104.5H80" stroke="#C9CACA"/>
<path d="M64.5 26.5V1.27637L87.8555 26.5H64.5Z" fill="#EAEAEA" stroke="#636464"/>
<g opacity="0.98">
<path fill-rule="evenodd" clip-rule="evenodd" d="M63.5213 47.9814C63.8401 48.5424 63.9977 49.1962 63.998 49.936C64 55.9797 64 68.0635 64 68.0635C64 68.6968 63.884 69.2668 63.6511 69.7696C63.6179 69.8415 63.5823 69.9119 63.5443 69.981C63.2309 70.549 62.7555 71.0244 62.112 71.3982C59.9321 72.6598 57.7514 73.9196 55.5708 75.1795L55.5682 75.1809L55.5656 75.1825L55.563 75.184L55.5604 75.1855C52.5499 76.9248 49.5396 78.6641 46.5315 80.4075C45.1317 81.2187 43.775 81.1893 42.3855 80.3663C41.1379 79.6273 36.8702 77.1649 33.0058 74.9352L33.0035 74.9339L33.0013 74.9326C30.4681 73.4709 28.1089 72.1097 26.8882 71.4C26.2447 71.0261 25.7692 70.5509 25.456 69.9825C25.1512 69.4299 25 68.7889 25 68.0652C25.001 65.0433 25.001 62.0217 25.001 58.9999C25.001 55.9781 25.001 52.9564 25.002 49.9346C25.0023 48.467 25.6201 47.3377 26.8898 46.5999C28.1148 45.8876 30.4862 44.5192 33.0293 43.0516C36.8871 40.8253 41.1407 38.3707 42.3861 37.6335C43.775 36.8109 45.1317 36.7813 46.531 37.5922C49.4969 39.3112 52.4649 41.0261 55.433 42.7411C57.659 44.0273 59.8852 45.3136 62.1103 46.6016C62.7393 46.9671 63.2082 47.4296 63.5213 47.9814ZM57.1616 66.2694C54.6813 70.5781 50.0634 73.4926 44.7631 73.5507L44.6016 73.5516C39.222 73.5516 34.5266 70.61 32.0251 66.2415C32.0171 66.2275 32.0091 66.2135 32.0012 66.1995C30.7947 64.0765 30.1052 61.6191 30.1052 58.9999C30.1052 50.9633 36.5953 44.4483 44.6016 44.4483C49.9471 44.4483 54.6163 47.3531 57.1299 51.6756L50.8202 55.3224C49.577 53.2096 47.2981 51.7838 44.684 51.7543L44.6016 51.7539C40.615 51.7539 37.3831 54.998 37.3831 58.9999C37.3831 60.2911 37.7215 61.5027 38.3111 62.5525C38.3191 62.5667 38.327 62.5807 38.335 62.5948C39.5793 64.7753 41.9183 66.246 44.6016 66.246C47.2797 66.246 49.6159 64.7804 50.8617 62.6056L57.1616 66.2694ZM55.8073 56.8772V54.8133H54.7794V56.8772H52.7233V57.9091H54.7794V59.973H52.7233V61.0048H54.7794V63.0688H55.8073V61.0048H57.8633V63.0688H58.8913V61.0048H60.9473V59.973H58.8913V57.9091H60.9473V56.8772H58.8913V54.8133H57.8633V56.8772H55.8073ZM57.8633 57.9091H55.8073V59.973H57.8633V57.9091Z" fill="#FE2B2B"/>
<path d="M57.1616 66.2694C54.6813 70.5781 50.0634 73.4926 44.7631 73.5507L44.6016 73.5516C39.222 73.5516 34.5266 70.61 32.0251 66.2415L32.0012 66.1995C30.7947 64.0765 30.1052 61.6191 30.1052 58.9999C30.1052 50.9633 36.5953 44.4483 44.6016 44.4483C49.9471 44.4483 54.6163 47.3531 57.1299 51.6756L50.8202 55.3224C49.577 53.2096 47.2981 51.7838 44.684 51.7543L44.6016 51.7539C40.615 51.7539 37.3831 54.998 37.3831 58.9999C37.3831 60.2911 37.7215 61.5027 38.3111 62.5525L38.335 62.5948C39.5793 64.7753 41.9183 66.246 44.6016 66.246C47.2797 66.246 49.6159 64.7804 50.8617 62.6056L57.1616 66.2694Z" fill="#E2E2E2"/>
<path fill-rule="evenodd" clip-rule="evenodd" d="M55.8073 56.8772V54.8133H54.7794V56.8772H52.7233V57.9091H54.7794V59.973H52.7233V61.0048H54.7794V63.0688H55.8073V61.0048H57.8633V63.0688H58.8913V61.0048H60.9473V59.973H58.8913V57.9091H60.9473V56.8772H58.8913V54.8133H57.8633V56.8772H55.8073ZM55.8073 57.9091H57.8633V59.973H55.8073V57.9091Z" fill="#E2E2E2"/>
</g>
</g>
<defs>
<clipPath id="clip0_716_1284">
<rect width="89" height="118" fill="white"/>
</clipPath>
</defs>
</svg>
