<svg width="89" height="118" viewBox="0 0 89 118" fill="none" xmlns="http://www.w3.org/2000/svg">
<g clip-path="url(#clip0_716_1396)">
<path d="M63.7812 0.5L88.5 27.1963V117.5H0.5V0.5H63.7812Z" fill="#E2E2E2" stroke="#636464"/>
<path d="M8 12.5H67.5" stroke="#C9CACA"/>
<path d="M8 60.5H80" stroke="#C9CACA"/>
<path d="M8 36.5H80" stroke="#C9CACA"/>
<path d="M8 84.5H80" stroke="#C9CACA"/>
<path d="M8 24.5H80" stroke="#C9CACA"/>
<path d="M8 72.5H80" stroke="#C9CACA"/>
<path d="M8 48.5H80" stroke="#C9CACA"/>
<path d="M8 16.5H74" stroke="#C9CACA"/>
<path d="M8 64.5H80" stroke="#C9CACA"/>
<path d="M8 40.5H80" stroke="#C9CACA"/>
<path d="M8 88.5H80" stroke="#C9CACA"/>
<path d="M8 28.5H80" stroke="#C9CACA"/>
<path d="M8 76.5H80" stroke="#C9CACA"/>
<path d="M8 52.5H80" stroke="#C9CACA"/>
<path d="M8 20.5H80" stroke="#C9CACA"/>
<path d="M8 68.5H80" stroke="#C9CACA"/>
<path d="M8 44.5H80" stroke="#C9CACA"/>
<path d="M8 92.5H80" stroke="#C9CACA"/>
<path d="M8 32.5H80" stroke="#C9CACA"/>
<path d="M8 80.5H80" stroke="#C9CACA"/>
<path d="M8 56.5H80" stroke="#C9CACA"/>
<path d="M64.5 26.5V1.27637L87.8555 26.5H64.5Z" fill="#EAEAEA" stroke="#636464"/>
<path d="M58.5136 63.9307C48.1085 50.1063 45.6962 38.9638 45.0859 36.3037C49.0691 45.7345 53.551 54.956 58.5136 63.9307Z" fill="#191919" fill-opacity="0.16568"/>
<path d="M45.0029 35C42.5996 40.7838 41.1453 44.5708 38.4624 50.1824C40.5442 52.401 42.8667 54.3899 45.3887 56.1137C42.6038 55.0757 40.0007 53.6179 37.6735 51.7929C34.2596 58.8068 28.8899 68.7921 18 87.9924C28.0026 82.3261 35.3822 79.1957 42.4781 78.5939V77.0155H40.8696V75.4313H42.4781V77.0155H45.7089V73.8377H42.4781V72.2593H40.8696V69.0912H42.4781V67.5128H45.7089V69.0912H47.3174V70.6753H45.703V69.0912H42.4781V72.2593L45.7089 72.2613V73.8377L47.3174 73.8396V77.0155H45.703V78.4973C53.3796 78.6865 61.1449 81.851 72 88C70.3355 84.9926 68.8445 82.2825 67.425 79.701C64.5752 77.2535 61.4473 75.1369 58.1031 73.393C60.7111 73.992 63.2173 74.957 65.5444 76.2584C51.1171 49.8984 49.9502 46.3934 45.0029 35ZM34.4158 67.5128H37.6388V69.0912H39.2532V78.5939H37.6388V73.8377H34.4158V78.5919H32.7995V69.0912H34.4139L34.4158 67.5128ZM34.4139 69.0912L34.4158 72.2613H37.6388V69.0912H34.4139ZM48.9318 67.5128H50.5463V69.0912H52.1606V70.6753H53.7691V69.0912H55.3835V67.5128H56.998V78.5939H55.3835V70.6753H53.7691V72.2593H52.1606V70.6753H50.5463V78.5939H48.9318V67.5128Z" fill="#FE2B2B"/>
<path d="M45.1013 35.2271L44.2314 37.3222C43.9247 38.0622 43.6316 38.77 43.3422 39.4627C43.0529 40.1554 42.7636 40.8329 42.4781 41.5011C42.1927 42.1691 41.8995 42.8258 41.614 43.494C41.3286 44.162 41.0354 44.8301 40.7171 45.5115C40.3989 46.1928 40.0826 46.8912 39.7412 47.6141C39.3998 48.3371 39.043 49.0865 38.6592 49.8719C38.6052 49.9798 38.5415 50.1048 38.4875 50.2145C40.563 52.4206 42.877 54.3987 45.3887 56.1137C42.6123 55.0772 40.0167 53.6241 37.6947 51.8062L37.4247 52.3494C37.2994 52.6011 37.1469 52.8849 37.0159 53.1443L36.8113 53.5587C35.1179 56.9521 32.9422 61.0988 30.0143 66.4699C36.8634 62.6847 44.2506 57.2209 57.6692 61.9277C56.996 60.6767 56.3769 59.5052 55.7963 58.4019C55.2158 57.2985 54.6757 56.267 54.1743 55.2904C53.6727 54.3139 53.2098 53.3979 52.7759 52.5216C52.3419 51.6453 51.9407 50.8182 51.5627 50.0366C51.1846 49.255 50.8298 48.4885 50.4942 47.7654C50.1585 47.0425 49.8403 46.3385 49.5297 45.6496C49.2192 44.9607 48.9511 44.2736 48.6676 43.6037C48.384 42.9338 48.1063 42.2619 47.8305 41.5862C47.7611 41.414 47.6897 41.2342 47.6202 41.062C46.8333 39.2526 46.0367 37.3808 45.1013 35.2271Z" fill="#FE2B2B"/>
</g>
<defs>
<clipPath id="clip0_716_1396">
<rect width="89" height="118" fill="white"/>
</clipPath>
</defs>
</svg>
