<svg width="89" height="118" viewBox="0 0 89 118" fill="none" xmlns="http://www.w3.org/2000/svg">
<g clip-path="url(#clip0_699_509)">
<path d="M63.7812 0.5L88.5 27.1963V117.5H0.5V0.5H63.7812Z" fill="#F6F7F8" stroke="#636464"/>
<path d="M8 12.5H67.5" stroke="#C9CACA"/>
<path d="M8 60.5H80" stroke="#C9CACA"/>
<path d="M8 36.5H80" stroke="#C9CACA"/>
<path d="M8 84.5H80" stroke="#C9CACA"/>
<path d="M8 24.5H80" stroke="#C9CACA"/>
<path d="M8 72.5H80" stroke="#C9CACA"/>
<path d="M8 48.5H80" stroke="#C9CACA"/>
<path d="M8 96.5H80" stroke="#C9CACA"/>
<path d="M8 16.5H74" stroke="#C9CACA"/>
<path d="M8 64.5H80" stroke="#C9CACA"/>
<path d="M8 40.5H80" stroke="#C9CACA"/>
<path d="M8 88.5H80" stroke="#C9CACA"/>
<path d="M8 28.5H80" stroke="#C9CACA"/>
<path d="M8 76.5H80" stroke="#C9CACA"/>
<path d="M8 52.5H80" stroke="#C9CACA"/>
<path d="M8 100.5H80" stroke="#C9CACA"/>
<path d="M8 20.5H80" stroke="#C9CACA"/>
<path d="M8 68.5H80" stroke="#C9CACA"/>
<path d="M8 44.5H80" stroke="#C9CACA"/>
<path d="M8 92.5H80" stroke="#C9CACA"/>
<path d="M8 32.5H80" stroke="#C9CACA"/>
<path d="M8 80.5H80" stroke="#C9CACA"/>
<path d="M8 56.5H80" stroke="#C9CACA"/>
<path d="M8 104.5H80" stroke="#C9CACA"/>
<path d="M64.5 26.5V1.27637L87.8555 26.5H64.5Z" fill="#EAEAEA" stroke="#636464"/>
<g opacity="0.98">
<path fill-rule="evenodd" clip-rule="evenodd" d="M64 40H25V80H64V40ZM44.566 69.7525C44.566 73.1171 42.6129 75.0763 39.2459 75.0763C36.0303 75.0763 34.0771 73.1171 33.9908 70.1179V70.0293H37.1526V70.0957C37.2173 71.3243 37.9295 72.1875 39.2028 72.1875C40.5841 72.1875 41.3072 71.3352 41.3072 69.7304V58.696H44.566V69.7525ZM59.5522 69.9075C59.5522 73.0728 57.1565 75.0763 53.2719 75.0763C49.5489 75.0763 47.1965 73.2501 47.0132 70.4165L47.0022 70.2395H50.1425L50.1532 70.3501C50.272 71.5456 51.5346 72.3536 53.3582 72.3536C55.0955 72.3536 56.2933 71.5013 56.2933 70.2728V70.2616C56.2933 69.2104 55.5271 68.6237 53.5956 68.2141L51.9552 67.8712C48.718 67.196 47.3259 65.6464 47.3259 63.2227V63.2115C47.3259 60.2453 49.8079 58.2864 53.261 58.2864C56.8976 58.2864 59.0343 60.2565 59.2391 62.9237L59.2501 63.0677H56.1854L56.1639 62.9349C55.9803 61.7949 54.9013 60.9981 53.261 60.9981C51.6531 61.0091 50.5848 61.7616 50.5848 62.9571V62.968C50.5848 64.0085 51.3403 64.6283 53.1746 65.0157L54.8256 65.3587C58.117 66.056 59.5522 67.4061 59.5522 69.8965V69.9075Z" fill="#191919"/>
<path d="M59.5522 69.9075C59.5522 73.0728 57.1565 75.0763 53.2719 75.0763C49.5489 75.0763 47.1965 73.2501 47.0132 70.4165L47.0022 70.2395H50.1425L50.1532 70.3501C50.272 71.5456 51.5346 72.3536 53.3582 72.3536C55.0955 72.3536 56.2933 71.5013 56.2933 70.2728V70.2616C56.2933 69.2104 55.5271 68.6237 53.5956 68.2141L51.9552 67.8712C48.718 67.196 47.3259 65.6464 47.3259 63.2227V63.2115C47.3259 60.2453 49.8079 58.2864 53.261 58.2864C56.8976 58.2864 59.0343 60.2565 59.2391 62.9237L59.2501 63.0677H56.1854L56.1639 62.9349C55.9803 61.7949 54.9013 60.9981 53.261 60.9981C51.6531 61.0091 50.5848 61.7616 50.5848 62.9571V62.968C50.5848 64.0085 51.3403 64.6283 53.1746 65.0157L54.8256 65.3587C58.117 66.056 59.5522 67.4061 59.5522 69.8965V69.9075Z" fill="#F6F7F8"/>
<path d="M44.566 69.7525C44.566 73.1171 42.6129 75.0763 39.2459 75.0763C36.0303 75.0763 34.0771 73.1171 33.9908 70.1179V70.0293H37.1526V70.0957C37.2173 71.3243 37.9295 72.1875 39.2028 72.1875C40.5841 72.1875 41.3072 71.3352 41.3072 69.7304V58.696H44.566V69.7525Z" fill="#F6F7F8"/>
</g>
</g>
<defs>
<clipPath id="clip0_699_509">
<rect width="89" height="118" fill="white"/>
</clipPath>
</defs>
</svg>
