<svg width="89" height="118" viewBox="0 0 89 118" fill="none" xmlns="http://www.w3.org/2000/svg">
<g clip-path="url(#clip0_699_537)">
<path d="M63.7812 0.5L88.5 27.1963V117.5H0.5V0.5H63.7812Z" fill="#F6F7F8" stroke="#636464"/>
<path d="M8 12.5H67.5" stroke="#C9CACA"/>
<path d="M8 60.5H80" stroke="#C9CACA"/>
<path d="M8 36.5H80" stroke="#C9CACA"/>
<path d="M8 84.5H80" stroke="#C9CACA"/>
<path d="M8 24.5H80" stroke="#C9CACA"/>
<path d="M8 72.5H80" stroke="#C9CACA"/>
<path d="M8 48.5H80" stroke="#C9CACA"/>
<path d="M8 16.5H74" stroke="#C9CACA"/>
<path d="M8 64.5H80" stroke="#C9CACA"/>
<path d="M8 40.5H80" stroke="#C9CACA"/>
<path d="M8 88.5H80" stroke="#C9CACA"/>
<path d="M8 28.5H80" stroke="#C9CACA"/>
<path d="M8 76.5H80" stroke="#C9CACA"/>
<path d="M8 52.5H80" stroke="#C9CACA"/>
<path d="M8 20.5H80" stroke="#C9CACA"/>
<path d="M8 68.5H80" stroke="#C9CACA"/>
<path d="M8 44.5H80" stroke="#C9CACA"/>
<path d="M8 92.5H80" stroke="#C9CACA"/>
<path d="M8 32.5H80" stroke="#C9CACA"/>
<path d="M8 80.5H80" stroke="#C9CACA"/>
<path d="M8 56.5H80" stroke="#C9CACA"/>
<path d="M64.5 26.5V1.27637L87.8555 26.5H64.5Z" fill="#EAEAEA" stroke="#636464"/>
<path d="M45.0026 36C42.8663 41.129 41.5736 44.4873 39.1888 49.4636C41.0393 51.4311 43.1037 53.1948 45.3455 54.7235C42.87 53.803 40.5562 52.5102 38.4876 50.8918C35.453 57.1117 30.6799 65.9666 21 82.9933C29.8912 77.9684 36.4508 75.1924 42.7583 74.6587V73.259H41.3285V71.8542H42.7583V73.259H45.6301V70.441H42.7583V69.0413H41.3285V66.2318H42.7583V64.8321H45.6301V66.2318H47.0599V67.6366H45.6249V66.2318H42.7583V69.0413L45.6301 69.043V70.441L47.0599 70.4427V73.259H45.6249V74.5731C52.4485 74.7409 59.351 77.5471 69 83C67.5204 80.3331 66.1951 77.9298 64.9333 75.6405C62.4002 73.4701 59.6198 71.5931 56.6472 70.0466C58.9654 70.5778 61.1932 71.4336 63.2617 72.5876C50.4374 49.2118 49.4002 46.1036 45.0026 36ZM35.5918 64.8321H38.4567V66.2318H39.8917V74.6587H38.4567V70.441H35.5918V74.657H34.1551V66.2318H35.5901L35.5918 64.8321ZM35.5901 66.2318L35.5918 69.043H38.4567V66.2318H35.5901ZM48.4949 64.8321H49.93V66.2318H51.365V67.6366H52.7948V66.2318H54.2298V64.8321H55.6649V74.6587H54.2298V67.6366H52.7948V69.0413H51.365V67.6366H49.93V74.6587H48.4949V64.8321Z" fill="#191919"/>
<path d="M58.5136 63.9307C48.1085 50.1063 45.6962 38.9638 45.0859 36.3037C49.0691 45.7345 53.551 54.956 58.5136 63.9307Z" fill="#191919" fill-opacity="0.16568"/>
<path d="M45.0903 36.2012L44.3171 38.0591C44.0445 38.7153 43.7839 39.343 43.5267 39.9573C43.2695 40.5716 43.0124 41.1724 42.7586 41.7649C42.5049 42.3573 42.2443 42.9397 41.9905 43.5322C41.7368 44.1246 41.4762 44.7171 41.1933 45.3213C40.9104 45.9255 40.6293 46.5448 40.3258 47.1859C40.0223 47.827 39.7052 48.4916 39.364 49.1881C39.316 49.2838 39.2594 49.3946 39.2114 49.4919C41.0563 51.4483 43.1132 53.2024 45.3458 54.7233C42.8779 53.8041 40.5707 52.5155 38.5067 50.9034L38.2667 51.3851C38.1553 51.6083 38.0198 51.86 37.9033 52.09L37.7215 52.4575C36.2162 55.4668 34.2823 59.144 31.6797 63.9071C37.7678 60.5504 44.3342 55.7051 56.2618 59.8791C55.6634 58.7697 55.1131 57.7308 54.597 56.7524C54.081 55.7739 53.6009 54.8592 53.1552 53.9932C52.7094 53.1272 52.2979 52.3149 51.9122 51.5378C51.5264 50.7607 51.1698 50.0273 50.8338 49.3341C50.4977 48.641 50.1823 47.9613 49.884 47.3201C49.5856 46.679 49.3028 46.0547 49.0267 45.4438C48.7507 44.8329 48.5124 44.2236 48.2604 43.6295C48.0083 43.0354 47.7615 42.4396 47.5163 41.8404C47.4546 41.6877 47.3911 41.5282 47.3294 41.3755C46.6299 39.771 45.9218 38.1111 45.0903 36.2012Z" fill="#191919"/>
</g>
<defs>
<clipPath id="clip0_699_537">
<rect width="89" height="118" fill="white"/>
</clipPath>
</defs>
</svg>
