<svg width="89" height="118" viewBox="0 0 89 118" fill="none" xmlns="http://www.w3.org/2000/svg">
<g clip-path="url(#clip0_716_1260)">
<path d="M63.7812 0.5L88.5 27.1963V117.5H0.5V0.5H63.7812Z" fill="#E2E2E2" stroke="#636464"/>
<path d="M8 12.5H67.5" stroke="#C9CACA"/>
<path d="M8 60.5H80" stroke="#C9CACA"/>
<path d="M8 36.5H80" stroke="#C9CACA"/>
<path d="M8 84.5H80" stroke="#C9CACA"/>
<path d="M8 24.5H80" stroke="#C9CACA"/>
<path d="M8 72.5H80" stroke="#C9CACA"/>
<path d="M8 48.5H80" stroke="#C9CACA"/>
<path d="M8 16.5H74" stroke="#C9CACA"/>
<path d="M8 64.5H80" stroke="#C9CACA"/>
<path d="M8 40.5H80" stroke="#C9CACA"/>
<path d="M8 88.5H80" stroke="#C9CACA"/>
<path d="M8 28.5H80" stroke="#C9CACA"/>
<path d="M8 76.5H80" stroke="#C9CACA"/>
<path d="M8 52.5H80" stroke="#C9CACA"/>
<path d="M8 20.5H80" stroke="#C9CACA"/>
<path d="M8 68.5H80" stroke="#C9CACA"/>
<path d="M8 44.5H80" stroke="#C9CACA"/>
<path d="M8 32.5H80" stroke="#C9CACA"/>
<path d="M8 80.5H80" stroke="#C9CACA"/>
<path d="M8 56.5H80" stroke="#C9CACA"/>
<path d="M64.5 26.5V1.27637L87.8555 26.5H64.5Z" fill="#EAEAEA" stroke="#636464"/>
<path d="M44.3235 36C31.8842 36 32.6609 41.2013 32.6609 41.2013L32.6747 46.5899H44.5452V48.2077H27.9599C27.9599 48.2077 20 47.3373 20 59.4391C20 71.5413 26.9476 71.1121 26.9476 71.1121H31.0939V65.4962C31.0939 65.4962 30.8704 58.7974 37.9306 58.7974H49.704C49.704 58.7974 56.3188 58.9005 56.3188 52.6333V42.2712C56.3188 42.2712 57.3234 36 44.3235 36ZM37.778 39.6238C38.0586 39.6236 38.3364 39.6767 38.5956 39.7801C38.8547 39.8835 39.0903 40.0351 39.2887 40.2263C39.487 40.4175 39.6443 40.6446 39.7516 40.8945C39.8588 41.1446 39.9138 41.4123 39.9136 41.6829C39.9138 41.9533 39.8588 42.2212 39.7516 42.4711C39.6443 42.721 39.487 42.9481 39.2887 43.1393C39.0903 43.3306 38.8547 43.4823 38.5956 43.5857C38.3364 43.6891 38.0586 43.7422 37.778 43.7419C37.4976 43.7422 37.2197 43.6891 36.9605 43.5857C36.7014 43.4823 36.4658 43.3306 36.2674 43.1393C36.0692 42.9481 35.9118 42.721 35.8046 42.4711C35.6973 42.2212 35.6423 41.9533 35.6425 41.6829C35.6423 41.4123 35.6973 41.1446 35.8046 40.8945C35.9118 40.6446 36.0692 40.4175 36.2674 40.2263C36.4658 40.0351 36.7014 39.8835 36.9605 39.7801C37.2197 39.6767 37.4976 39.6236 37.778 39.6238Z" fill="#FE2B2B"/>
<path d="M44.6767 83C57.116 83 56.3393 77.7987 56.3393 77.7987L56.3255 72.4102H44.4548V70.7924H61.0401C61.0401 70.7924 69 71.6628 69 59.5606C69 47.4587 62.0524 47.8879 62.0524 47.8879H57.9061V53.5036C57.9061 53.5036 58.1296 60.2025 51.0694 60.2025H39.296C39.296 60.2025 32.6812 60.0994 32.6812 66.3667V76.7291C32.6812 76.7291 31.677 83 44.6767 83ZM51.2221 79.3766C50.9417 79.3769 50.6639 79.3238 50.4046 79.2204C50.1454 79.117 49.9099 78.9653 49.7115 78.774C49.5132 78.5828 49.3559 78.3557 49.2487 78.1058C49.1414 77.8559 49.0864 77.588 49.0866 77.3176C49.0864 77.047 49.1414 76.7791 49.2487 76.5292C49.3559 76.2792 49.5132 76.0521 49.7114 75.8609C49.9098 75.6696 50.1454 75.5179 50.4046 75.4145C50.6637 75.3111 50.9417 75.2581 51.2221 75.2583C51.5027 75.2581 51.7805 75.3111 52.0396 75.4145C52.2989 75.5179 52.5344 75.6696 52.7328 75.8608C52.9311 76.0521 53.0883 76.2792 53.1956 76.5291C53.3028 76.779 53.3579 77.0469 53.3576 77.3174C53.3579 77.5878 53.3028 77.8557 53.1956 78.1056C53.0883 78.3555 52.9311 78.5826 52.7328 78.7739C52.5344 78.9651 52.2989 79.1168 52.0396 79.2202C51.7805 79.3236 51.5027 79.3769 51.2221 79.3766Z" fill="#FE2B2B"/>
<path d="M51.2221 79.3766C50.9417 79.3769 50.6639 79.3238 50.4046 79.2204C50.1454 79.117 49.9099 78.9653 49.7115 78.774C49.5132 78.5828 49.3559 78.3557 49.2487 78.1058C49.1414 77.8559 49.0864 77.588 49.0866 77.3176C49.0864 77.047 49.1414 76.7791 49.2487 76.5292C49.3559 76.2792 49.5132 76.0521 49.7114 75.8609C49.9098 75.6696 50.1454 75.5179 50.4046 75.4145C50.6637 75.3111 50.9417 75.2581 51.2221 75.2583C51.5027 75.2581 51.7805 75.3111 52.0396 75.4145C52.2989 75.5179 52.5344 75.6696 52.7328 75.8608C52.9311 76.0521 53.0883 76.2792 53.1956 76.5291C53.3028 76.779 53.3579 77.0469 53.3576 77.3174C53.3579 77.5878 53.3028 77.8557 53.1956 78.1056C53.0883 78.3555 52.9311 78.5826 52.7328 78.7739C52.5344 78.9651 52.2989 79.1168 52.0396 79.2202C51.7805 79.3236 51.5027 79.3769 51.2221 79.3766Z" fill="#E2E2E2"/>
<path d="M37.778 39.6238C38.0586 39.6236 38.3364 39.6767 38.5956 39.7801C38.8547 39.8835 39.0903 40.0351 39.2887 40.2263C39.487 40.4175 39.6443 40.6446 39.7516 40.8945C39.8588 41.1446 39.9138 41.4123 39.9136 41.6829C39.9138 41.9533 39.8588 42.2212 39.7516 42.4711C39.6443 42.721 39.487 42.9481 39.2887 43.1393C39.0903 43.3306 38.8547 43.4823 38.5956 43.5857C38.3364 43.6891 38.0586 43.7422 37.778 43.7419C37.4976 43.7422 37.2197 43.6891 36.9605 43.5857C36.7014 43.4823 36.4658 43.3306 36.2674 43.1393C36.0692 42.9481 35.9118 42.721 35.8046 42.4711C35.6973 42.2212 35.6423 41.9533 35.6425 41.6829C35.6423 41.4123 35.6973 41.1446 35.8046 40.8945C35.9118 40.6446 36.0692 40.4175 36.2674 40.2263C36.4658 40.0351 36.7014 39.8835 36.9605 39.7801C37.2197 39.6767 37.4976 39.6236 37.778 39.6238Z" fill="#E2E2E2"/>
</g>
<defs>
<clipPath id="clip0_716_1260">
<rect width="89" height="118" fill="white"/>
</clipPath>
</defs>
</svg>
