<svg width="89" height="118" viewBox="0 0 89 118" fill="none" xmlns="http://www.w3.org/2000/svg">
<g clip-path="url(#clip0_699_399)">
<path d="M63.7812 0.5L88.5 27.1963V117.5H0.5V0.5H63.7812Z" fill="#F6F7F8" stroke="#636464"/>
<path d="M8 12.5H67.5" stroke="#C9CACA"/>
<path d="M8 60.5H80" stroke="#C9CACA"/>
<path d="M8 36.5H80" stroke="#C9CACA"/>
<path d="M8 84.5H80" stroke="#C9CACA"/>
<path d="M8 24.5H80" stroke="#C9CACA"/>
<path d="M8 72.5H80" stroke="#C9CACA"/>
<path d="M8 48.5H80" stroke="#C9CACA"/>
<path d="M8 96.5H80" stroke="#C9CACA"/>
<path d="M8 16.5H74" stroke="#C9CACA"/>
<path d="M8 64.5H80" stroke="#C9CACA"/>
<path d="M8 40.5H80" stroke="#C9CACA"/>
<path d="M8 88.5H80" stroke="#C9CACA"/>
<path d="M8 28.5H80" stroke="#C9CACA"/>
<path d="M8 76.5H80" stroke="#C9CACA"/>
<path d="M8 52.5H80" stroke="#C9CACA"/>
<path d="M8 100.5H80" stroke="#C9CACA"/>
<path d="M8 20.5H80" stroke="#C9CACA"/>
<path d="M8 68.5H80" stroke="#C9CACA"/>
<path d="M8 44.5H80" stroke="#C9CACA"/>
<path d="M8 92.5H80" stroke="#C9CACA"/>
<path d="M8 32.5H80" stroke="#C9CACA"/>
<path d="M8 80.5H80" stroke="#C9CACA"/>
<path d="M8 56.5H80" stroke="#C9CACA"/>
<path d="M8 104.5H80" stroke="#C9CACA"/>
<path d="M64.5 26.5V1.27637L87.8555 26.5H64.5Z" fill="#EAEAEA" stroke="#636464"/>
<path d="M43.2171 43.9485C43.2171 43.7016 43.2886 43.4603 43.4225 43.255C43.5564 43.0497 43.7467 42.8897 43.9693 42.7953C44.1919 42.7008 44.4369 42.6761 44.6733 42.7242C44.9096 42.7724 45.1267 42.8913 45.2971 43.0659C45.4675 43.2404 45.5836 43.4628 45.6306 43.705C45.6776 43.9471 45.6535 44.1981 45.5613 44.4262C45.469 44.6543 45.3129 44.8493 45.1125 44.9864C44.9121 45.1236 44.6765 45.1968 44.4356 45.1968C44.2755 45.197 44.117 45.1648 43.9691 45.1022C43.8211 45.0395 43.6868 44.9476 43.5736 44.8316C43.4604 44.7157 43.3706 44.578 43.3095 44.4264C43.2483 44.2749 43.2169 44.1125 43.2171 43.9485ZM28.6838 55.252C28.6838 55.0051 28.7552 54.7637 28.8891 54.5585C29.023 54.3532 29.2133 54.1932 29.4359 54.0987C29.6586 54.0042 29.9036 53.9795 30.1399 54.0277C30.3763 54.0758 30.5934 54.1947 30.7638 54.3693C30.9342 54.5439 31.0502 54.7663 31.0972 55.0084C31.1443 55.2506 31.1201 55.5016 31.0279 55.7297C30.9357 55.9577 30.7795 56.1527 30.5791 56.2899C30.3788 56.427 30.1432 56.5002 29.9022 56.5002C29.7422 56.5002 29.5838 56.4679 29.4359 56.4052C29.2881 56.3425 29.1538 56.2505 29.0407 56.1346C28.9275 56.0187 28.8378 55.8811 28.7765 55.7297C28.7153 55.5782 28.6838 55.4159 28.6838 55.252ZM57.7622 55.3105C57.7622 55.0636 57.8336 54.8222 57.9675 54.617C58.1014 54.4117 58.2917 54.2517 58.5143 54.1572C58.737 54.0627 58.982 54.038 59.2183 54.0862C59.4547 54.1344 59.6718 54.2532 59.8422 54.4278C60.0126 54.6024 60.1286 54.8248 60.1756 55.0669C60.2227 55.3091 60.1985 55.5601 60.1063 55.7882C60.0141 56.0163 59.8579 56.2112 59.6575 56.3484C59.4572 56.4855 59.2216 56.5587 58.9806 56.5587C58.8206 56.5589 58.662 56.5268 58.5141 56.4641C58.3662 56.4015 58.2318 56.3095 58.1186 56.1936C58.0054 56.0776 57.9157 55.9399 57.8545 55.7884C57.7934 55.6369 57.762 55.4745 57.7622 55.3105ZM32.2058 57.0208C32.4744 56.898 32.6847 56.6713 32.7906 56.3902C32.8965 56.109 32.8895 55.7964 32.7711 55.5205L32.2307 54.2677H34.3571V64.0874H30.0662C29.5366 62.1818 29.3715 60.1893 29.58 58.2196L32.2058 57.0208ZM41.101 57.2624V54.3683H46.1651C46.4272 54.3683 48.0118 54.6773 48.0118 55.8926C48.0118 56.9008 46.7963 57.2624 45.7961 57.2624H41.101ZM34.1872 72.8463C34.1872 72.5994 34.2587 72.358 34.3926 72.1528C34.5265 71.9475 34.7168 71.7875 34.9394 71.693C35.162 71.5985 35.407 71.5738 35.6434 71.622C35.8797 71.6701 36.0968 71.789 36.2672 71.9636C36.4376 72.1382 36.5537 72.3606 36.6007 72.6027C36.6477 72.8449 36.6236 73.0959 36.5314 73.324C36.4391 73.552 36.283 73.747 36.0826 73.8842C35.8822 74.0213 35.6467 74.0945 35.4057 74.0945C35.2456 74.0947 35.0871 74.0626 34.9392 73.9999C34.7913 73.9373 34.6569 73.8453 34.5437 73.7294C34.4305 73.6134 34.3408 73.4757 34.2796 73.3242C34.2184 73.1727 34.1871 73.0102 34.1872 72.8463ZM52.2455 72.9048C52.2455 72.6579 52.317 72.4166 52.4509 72.2113C52.5848 72.006 52.7751 71.846 52.9977 71.7515C53.2203 71.657 53.4653 71.6323 53.7017 71.6805C53.938 71.7287 54.1551 71.8475 54.3255 72.0221C54.4959 72.1967 54.612 72.4191 54.659 72.6613C54.706 72.9034 54.6819 73.1544 54.5897 73.3825C54.4974 73.6106 54.3413 73.8055 54.1409 73.9427C53.9405 74.0798 53.705 74.153 53.464 74.153C53.1408 74.153 52.8309 74.0215 52.6024 73.7874C52.3739 73.5533 52.2455 73.2358 52.2455 72.9048ZM52.6219 70.0737C52.4792 70.0424 52.3319 70.0403 52.1884 70.0674C52.0449 70.0945 51.908 70.1504 51.7856 70.2318C51.6632 70.3132 51.5576 70.4185 51.4749 70.5417C51.3923 70.6649 51.3342 70.8036 51.3039 70.9499L50.6918 73.874C48.7244 74.7867 46.5879 75.2537 44.4283 75.2431C42.2686 75.2324 40.1366 74.7445 38.1779 73.8125L37.5672 70.8883C37.5054 70.5934 37.3319 70.3357 37.0848 70.1717C36.8377 70.0077 36.5372 69.9509 36.2492 70.0137L33.7289 70.5688C33.2604 70.0747 32.825 69.5489 32.4255 68.9949H44.6889C44.828 68.9949 44.9203 68.9694 44.9203 68.8449V64.3949C44.9203 64.2659 44.828 64.2449 44.6889 64.2449H41.101V61.4228H44.9803C45.5586 61.4287 46.116 61.645 46.553 62.0331C46.99 62.4211 47.2781 62.9557 47.366 63.5413C47.5197 64.1609 47.858 66.1773 48.0894 66.8225C48.3193 67.5471 49.261 68.9934 50.2597 68.9934H56.5906C56.1661 69.5766 55.7016 70.1281 55.2008 70.6438L52.6219 70.0737ZM59.4317 58.3396C59.5178 59.2267 59.5286 60.1197 59.4639 61.0087H57.9247C57.771 61.0087 57.708 61.1122 57.708 61.2668V61.9914C57.708 63.6958 56.7693 64.0679 55.9506 64.1624C55.1672 64.2524 54.2987 63.8263 54.1933 63.3357C54.1368 62.486 53.8858 61.6618 53.4607 60.9299C53.0356 60.198 52.4482 59.5789 51.7462 59.1228C53.2546 58.1416 54.8215 56.6938 54.8215 54.7554C54.7905 53.9318 54.5587 53.1293 54.1474 52.4209C53.7361 51.7126 53.1583 51.121 52.4667 50.7C51.5019 50.0598 50.3922 49.6857 49.2449 49.6137H33.3217C35.5228 47.0933 38.4738 45.3868 41.7175 44.7587L43.595 46.7751C43.6955 46.8833 43.8159 46.9702 43.9492 47.0307C44.0826 47.0912 44.2262 47.1243 44.372 47.1279C44.5178 47.1315 44.6629 47.1057 44.7989 47.0518C44.935 46.998 45.0593 46.9172 45.1649 46.8141L47.2649 44.7557C49.4061 45.1672 51.4342 46.0515 53.2083 47.3469C54.9823 48.6423 56.4598 50.3179 57.5381 52.2573L56.1 55.5835C55.982 55.8594 55.9752 56.1719 56.0811 56.453C56.187 56.734 56.3969 56.9607 56.6653 57.0839L59.4317 58.3396ZM63.0167 58.3936L62.9684 57.879L64.4489 56.4642C64.505 56.4044 64.5491 56.3338 64.5785 56.2565C64.6079 56.1792 64.6221 56.0968 64.6204 56.0138C64.6186 55.9309 64.6009 55.8491 64.5682 55.7732C64.5355 55.6973 64.4885 55.6288 64.4299 55.5715C64.378 55.5209 64.3181 55.4798 64.2527 55.45L62.3665 54.7253L62.22 54.2242L63.4004 52.5439C63.4876 52.4023 63.5165 52.2311 63.4808 52.0678C63.4451 51.9044 63.3478 51.7622 63.21 51.6722C63.1501 51.6337 63.0842 51.6058 63.0152 51.5897L61.0192 51.2566L60.779 50.7975L61.6181 48.9116C61.6478 48.8348 61.6624 48.7527 61.6611 48.6701C61.6598 48.5874 61.6426 48.5059 61.6105 48.4301C61.5784 48.3543 61.532 48.2857 61.474 48.2283C61.416 48.1709 61.3475 48.1257 61.2725 48.0954C61.2043 48.0682 61.1319 48.0534 61.0587 48.0519L59.0333 48.1239L58.7053 47.7278L59.171 45.7069C59.1849 45.6251 59.1829 45.5414 59.1652 45.4604C59.1474 45.3794 59.1143 45.3028 59.0676 45.2349C59.021 45.1671 58.9618 45.1093 58.8933 45.0649C58.8248 45.0205 58.7485 44.9904 58.6687 44.9762C58.5989 44.9642 58.5276 44.9642 58.4578 44.9762L56.4837 45.4488L56.0942 45.1203L56.1659 43.0483C56.164 42.9654 56.1462 42.8836 56.1134 42.8077C56.0807 42.7318 56.0337 42.6633 55.975 42.606C55.9164 42.5488 55.8474 42.5039 55.7718 42.474C55.6963 42.4441 55.6157 42.4297 55.5347 42.4317C55.4641 42.4336 55.3943 42.4478 55.3282 42.4737L53.4874 43.3334L53.0393 43.0873L52.7142 41.0424C52.6781 40.88 52.581 40.7389 52.4439 40.6495C52.3067 40.5602 52.1407 40.5299 51.9819 40.5653C51.913 40.5814 51.8471 40.6093 51.7872 40.6478L50.1455 41.8571L49.6578 41.707L48.9505 39.7671C48.8844 39.614 48.7617 39.4939 48.6093 39.4335C48.4569 39.373 48.2873 39.377 48.1377 39.4445C48.0731 39.4744 48.0138 39.515 47.962 39.5646L46.5766 41.0829L46.0743 41.0334L45.0082 39.2675C44.9512 39.1848 44.8758 39.1174 44.7881 39.0708C44.7004 39.0243 44.6031 39 44.5044 39C44.4056 39 44.3084 39.0243 44.2207 39.0708C44.133 39.1174 44.0575 39.1848 44.0006 39.2675L42.9345 41.0334L42.4322 41.0829L41.0512 39.5646C40.9327 39.4492 40.7744 39.3868 40.611 39.391C40.4476 39.3952 40.2925 39.4658 40.1798 39.5871C40.1314 39.6401 40.0918 39.7009 40.0627 39.7671L39.3495 41.698L38.8618 41.8481L37.2216 40.6478C37.0834 40.5585 36.9163 40.5289 36.7569 40.5654C36.5974 40.602 36.4586 40.7017 36.3708 40.8428C36.3332 40.9042 36.3059 40.9717 36.2902 41.0424L35.9651 43.0873L35.517 43.3334L33.6747 42.4737C33.5226 42.4134 33.3534 42.4172 33.2041 42.4844C33.0548 42.5516 32.9375 42.6767 32.878 42.8323C32.8527 42.9015 32.8389 42.9745 32.837 43.0483L32.9073 45.1233L32.5178 45.4488L30.5451 44.9747C30.4653 44.9605 30.3835 44.9625 30.3045 44.9807C30.2254 44.9989 30.1507 45.0328 30.0844 45.0806C30.0182 45.1284 29.9618 45.1891 29.9185 45.2592C29.8751 45.3294 29.8457 45.4076 29.8319 45.4893C29.8202 45.5609 29.8202 45.6339 29.8319 45.7054L30.2947 47.7278L29.9754 48.1254L27.9516 48.0534C27.8527 48.056 27.7559 48.083 27.6693 48.1319C27.5827 48.1808 27.5088 48.2503 27.4539 48.3345C27.3989 48.4187 27.3645 48.5152 27.3535 48.6159C27.3425 48.7166 27.3553 48.8185 27.3907 48.9131L28.2298 50.799L27.9896 51.2581L25.9936 51.5912C25.8349 51.6277 25.6969 51.7272 25.6096 51.8678C25.5223 52.0084 25.4929 52.1786 25.5279 52.3413C25.5436 52.412 25.5708 52.4795 25.6084 52.5409L26.7888 54.2212L26.6423 54.7223L24.7488 55.447C24.5993 55.5147 24.4821 55.6404 24.4231 55.7966C24.364 55.9527 24.3679 56.1265 24.4339 56.2797C24.4627 56.3469 24.5028 56.4084 24.5525 56.4612L26.0331 57.876L25.9848 58.3906L24.2611 59.4829C24.1804 59.5412 24.1146 59.6185 24.0692 59.7083C24.0237 59.7981 24 59.8978 24 59.999C24 60.1001 24.0237 60.1998 24.0692 60.2896C24.1146 60.3795 24.1804 60.4568 24.2611 60.5151L25.9848 61.6073L26.0331 62.1219L24.5525 63.5368C24.44 63.6581 24.379 63.8204 24.3831 63.9878C24.3873 64.1552 24.4561 64.314 24.5745 64.4294C24.6257 64.479 24.6846 64.5196 24.7488 64.5495L26.6423 65.2741L26.7888 65.7752L25.6084 67.4616C25.5651 67.5317 25.5357 67.6099 25.5219 67.6917C25.5081 67.7735 25.5102 67.8572 25.528 67.9382C25.5459 68.0191 25.5791 68.0957 25.6258 68.1635C25.6725 68.2313 25.7318 68.289 25.8003 68.3333C25.8602 68.3718 25.926 68.3997 25.995 68.4158L27.9911 68.7489L28.2313 69.2095L27.3921 71.0954C27.3333 71.2516 27.3372 71.4253 27.4031 71.5786C27.4689 71.7318 27.5914 71.8521 27.7436 71.9131C27.8106 71.9389 27.8814 71.9531 27.953 71.9551L29.9784 71.8831L30.2991 72.2821L29.8349 74.3046C29.8068 74.4691 29.8436 74.6383 29.9372 74.7751C30.0309 74.9118 30.1737 75.0048 30.3342 75.0337C30.4049 75.0472 30.4774 75.0472 30.5481 75.0337L32.5178 74.5551L32.9073 74.8822L32.8355 76.9557C32.8373 77.0383 32.8549 77.1199 32.8874 77.1956C32.9199 77.2713 32.9667 77.3396 33.0251 77.3968C33.0834 77.4539 33.1522 77.4987 33.2275 77.5286C33.3028 77.5584 33.3831 77.5728 33.4638 77.5708C33.5355 77.5696 33.6064 77.5554 33.6732 77.5288L35.5141 76.6691L35.9622 76.9151L36.2873 78.9586C36.323 79.1212 36.42 79.2628 36.5572 79.3524C36.6943 79.4421 36.8605 79.4725 37.0195 79.4372C37.0887 79.4218 37.1547 79.3938 37.2143 79.3547L38.8545 78.1439L39.3436 78.2939L40.051 80.2324C40.1176 80.3854 40.2407 80.5051 40.3933 80.5652C40.546 80.6254 40.7156 80.6212 40.8652 80.5534C40.9294 80.5235 40.9882 80.483 41.0395 80.4334L42.4205 78.9166L42.9228 78.9676L43.9889 80.7335C44.0837 80.8703 44.2277 80.9629 44.3892 80.991C44.5506 81.0192 44.7164 80.9805 44.85 80.8835C44.9069 80.8425 44.9564 80.7917 44.9965 80.7335L46.0626 78.9676L46.5649 78.9166L47.9459 80.4334C48.0644 80.5487 48.2227 80.6112 48.3861 80.6069C48.5495 80.6027 48.7046 80.5322 48.8172 80.4109C48.8656 80.3584 48.9052 80.2981 48.9344 80.2324L49.6417 78.2939L50.1309 78.1439L51.7711 79.3547C51.8395 79.399 51.9158 79.4291 51.9957 79.4433C52.0755 79.4574 52.1572 79.4553 52.2362 79.437C52.3153 79.4188 52.39 79.3847 52.4562 79.3369C52.5223 79.289 52.5787 79.2283 52.6219 79.1581C52.6595 79.0967 52.6867 79.0293 52.7025 78.9586L53.0276 76.9151L53.4757 76.6691L55.3165 77.5288C55.4686 77.5891 55.6378 77.5853 55.7871 77.518C55.9365 77.4508 56.0537 77.3258 56.1132 77.1702C56.1385 77.1015 56.1523 77.029 56.1542 76.9557L56.0839 74.8792L56.472 74.5521L58.4446 75.0277C58.6052 75.0566 58.7703 75.0191 58.904 74.9235C59.0376 74.8279 59.1289 74.682 59.1578 74.5176C59.1695 74.4451 59.1695 74.3711 59.1578 74.2986L58.7053 72.2791L59.0246 71.8801L61.0499 71.9521C61.2132 71.9477 61.3681 71.8772 61.4807 71.756C61.5933 71.6348 61.6543 71.4727 61.6503 71.3054C61.6494 71.2325 61.6355 71.1603 61.6093 71.0924L60.7702 69.2065L61.0104 68.7459L63.0064 68.4128C63.1652 68.3762 63.3033 68.2768 63.3908 68.1363C63.4783 67.9958 63.5081 67.8255 63.4736 67.6626C63.4576 67.5909 63.4299 67.5224 63.3916 67.4601L62.2112 65.7797L62.3577 65.2786L64.2512 64.554C64.3252 64.5206 64.392 64.4726 64.4479 64.4128C64.5038 64.353 64.5476 64.2824 64.5768 64.2052C64.606 64.128 64.6201 64.0457 64.6183 63.9629C64.6165 63.8801 64.5987 63.7985 64.5661 63.7228C64.5373 63.6556 64.4972 63.5941 64.4475 63.5413L62.9669 62.1264L63.0152 61.6118L64.7389 60.5196C64.8196 60.4613 64.8854 60.384 64.9308 60.2941C64.9763 60.2043 65 60.1046 65 60.0035C65 59.9023 64.9763 59.8026 64.9308 59.7128C64.8854 59.623 64.8196 59.5457 64.7389 59.4874L63.0167 58.3936Z" fill="#191919"/>
<path d="M52.6219 70.0737C52.4792 70.0424 52.3319 70.0403 52.1884 70.0674C52.0449 70.0945 51.908 70.1504 51.7856 70.2318C51.6632 70.3132 51.5576 70.4185 51.4749 70.5417C51.3923 70.6649 51.3342 70.8036 51.3039 70.9499L50.6918 73.874C48.7244 74.7867 46.5879 75.2537 44.4283 75.2431C42.2686 75.2324 40.1366 74.7445 38.1779 73.8125L37.5672 70.8883C37.5054 70.5934 37.3319 70.3357 37.0848 70.1717C36.8377 70.0077 36.5372 69.9509 36.2492 70.0137L33.7289 70.5688C33.2604 70.0747 32.825 69.5489 32.4255 68.9949H44.6889C44.828 68.9949 44.9203 68.9694 44.9203 68.8449V64.3949C44.9203 64.2659 44.828 64.2449 44.6889 64.2449H41.101V61.4228H44.9803C45.5586 61.4287 46.116 61.645 46.553 62.0331C46.99 62.4211 47.2781 62.9557 47.366 63.5413C47.5197 64.1609 47.858 66.1773 48.0894 66.8225C48.3193 67.5471 49.261 68.9934 50.2597 68.9934H56.5906C56.1661 69.5766 55.7016 70.1281 55.2008 70.6438L52.6219 70.0737Z" fill="#F6F7F8"/>
<path d="M59.4317 58.3396C59.5178 59.2267 59.5286 60.1197 59.4639 61.0087H57.9247C57.771 61.0087 57.708 61.1122 57.708 61.2668V61.9914C57.708 63.6958 56.7693 64.0679 55.9506 64.1624C55.1672 64.2524 54.2987 63.8263 54.1933 63.3357C54.1368 62.486 53.8858 61.6618 53.4607 60.9299C53.0356 60.198 52.4482 59.5789 51.7462 59.1228C53.2546 58.1416 54.8215 56.6938 54.8215 54.7554C54.7905 53.9318 54.5587 53.1293 54.1474 52.4209C53.7361 51.7126 53.1583 51.121 52.4667 50.7C51.5019 50.0598 50.3922 49.6857 49.2449 49.6137H33.3217C35.5228 47.0933 38.4738 45.3868 41.7175 44.7587L43.595 46.7751C43.6955 46.8833 43.8159 46.9702 43.9492 47.0307C44.0826 47.0912 44.2262 47.1243 44.372 47.1279C44.5178 47.1315 44.6629 47.1057 44.7989 47.0518C44.935 46.998 45.0593 46.9172 45.1649 46.8141L47.2649 44.7557C49.4061 45.1672 51.4342 46.0515 53.2083 47.3469C54.9823 48.6423 56.4598 50.3179 57.5381 52.2573L56.1 55.5835C55.982 55.8594 55.9752 56.1719 56.0811 56.453C56.187 56.734 56.3969 56.9607 56.6653 57.0839L59.4317 58.3396Z" fill="#F6F7F8"/>
<path d="M41.101 57.2624V54.3683H46.1651C46.4272 54.3683 48.0118 54.6773 48.0118 55.8926C48.0118 56.9008 46.7963 57.2624 45.7961 57.2624H41.101Z" fill="#F6F7F8"/>
<path d="M32.2058 57.0208C32.4744 56.898 32.6847 56.6713 32.7906 56.3902C32.8965 56.109 32.8895 55.7964 32.7711 55.5205L32.2307 54.2677H34.3571V64.0874H30.0662C29.5366 62.1818 29.3715 60.1893 29.58 58.2196L32.2058 57.0208Z" fill="#F6F7F8"/>
<path d="M28.6838 55.252C28.6838 55.0051 28.7552 54.7637 28.8891 54.5585C29.023 54.3532 29.2133 54.1932 29.4359 54.0987C29.6586 54.0042 29.9036 53.9795 30.1399 54.0277C30.3763 54.0758 30.5934 54.1947 30.7638 54.3693C30.9342 54.5439 31.0502 54.7663 31.0972 55.0084C31.1443 55.2506 31.1201 55.5016 31.0279 55.7297C30.9357 55.9577 30.7795 56.1527 30.5791 56.2899C30.3788 56.427 30.1432 56.5002 29.9022 56.5002C29.7422 56.5002 29.5838 56.4679 29.4359 56.4052C29.2881 56.3425 29.1538 56.2505 29.0407 56.1346C28.9275 56.0187 28.8378 55.8811 28.7765 55.7297C28.7153 55.5782 28.6838 55.4159 28.6838 55.252Z" fill="#F6F7F8"/>
<path d="M34.1872 72.8463C34.1872 72.5994 34.2587 72.358 34.3926 72.1528C34.5265 71.9475 34.7168 71.7875 34.9394 71.693C35.162 71.5985 35.407 71.5738 35.6434 71.622C35.8797 71.6701 36.0968 71.789 36.2672 71.9636C36.4376 72.1382 36.5537 72.3606 36.6007 72.6027C36.6477 72.8449 36.6236 73.0959 36.5314 73.324C36.4391 73.552 36.283 73.747 36.0826 73.8842C35.8822 74.0213 35.6467 74.0945 35.4057 74.0945C35.2456 74.0947 35.0871 74.0626 34.9392 73.9999C34.7913 73.9373 34.6569 73.8453 34.5437 73.7294C34.4305 73.6134 34.3408 73.4757 34.2796 73.3242C34.2184 73.1727 34.1871 73.0102 34.1872 72.8463Z" fill="#F6F7F8"/>
<path d="M52.2455 72.9048C52.2455 72.6579 52.317 72.4166 52.4509 72.2113C52.5848 72.006 52.7751 71.846 52.9977 71.7515C53.2203 71.657 53.4653 71.6323 53.7017 71.6805C53.938 71.7287 54.1551 71.8475 54.3255 72.0221C54.4959 72.1967 54.612 72.4191 54.659 72.6613C54.706 72.9034 54.6819 73.1544 54.5897 73.3825C54.4974 73.6106 54.3413 73.8055 54.1409 73.9427C53.9405 74.0798 53.705 74.153 53.464 74.153C53.1408 74.153 52.8309 74.0215 52.6024 73.7874C52.3739 73.5533 52.2455 73.2358 52.2455 72.9048Z" fill="#F6F7F8"/>
<path d="M57.7622 55.3105C57.7622 55.0636 57.8336 54.8222 57.9675 54.617C58.1014 54.4117 58.2917 54.2517 58.5143 54.1572C58.737 54.0627 58.982 54.038 59.2183 54.0862C59.4547 54.1344 59.6718 54.2532 59.8422 54.4278C60.0126 54.6024 60.1286 54.8248 60.1756 55.0669C60.2227 55.3091 60.1985 55.5601 60.1063 55.7882C60.0141 56.0163 59.8579 56.2112 59.6575 56.3484C59.4572 56.4855 59.2216 56.5587 58.9806 56.5587C58.8206 56.5589 58.662 56.5268 58.5141 56.4641C58.3662 56.4015 58.2318 56.3095 58.1186 56.1936C58.0054 56.0776 57.9157 55.9399 57.8545 55.7884C57.7934 55.6369 57.762 55.4745 57.7622 55.3105Z" fill="#F6F7F8"/>
</g>
<defs>
<clipPath id="clip0_699_399">
<rect width="89" height="118" fill="white"/>
</clipPath>
</defs>
</svg>
