<svg width="89" height="118" viewBox="0 0 89 118" fill="none" xmlns="http://www.w3.org/2000/svg">
<g clip-path="url(#clip0_699_455)">
<path d="M63.7812 0.5L88.5 27.1963V117.5H0.5V0.5H63.7812Z" fill="#F6F7F8" stroke="#636464"/>
<path d="M8 12.5H67.5" stroke="#C9CACA"/>
<path d="M8 60.5H80" stroke="#C9CACA"/>
<path d="M8 36.5H80" stroke="#C9CACA"/>
<path d="M8 84.5H80" stroke="#C9CACA"/>
<path d="M8 24.5H80" stroke="#C9CACA"/>
<path d="M8 72.5H80" stroke="#C9CACA"/>
<path d="M8 48.5H80" stroke="#C9CACA"/>
<path d="M8 16.5H74" stroke="#C9CACA"/>
<path d="M8 64.5H80" stroke="#C9CACA"/>
<path d="M8 40.5H80" stroke="#C9CACA"/>
<path d="M8 88.5H80" stroke="#C9CACA"/>
<path d="M8 28.5H80" stroke="#C9CACA"/>
<path d="M8 76.5H80" stroke="#C9CACA"/>
<path d="M8 52.5H80" stroke="#C9CACA"/>
<path d="M8 20.5H80" stroke="#C9CACA"/>
<path d="M8 68.5H80" stroke="#C9CACA"/>
<path d="M8 44.5H80" stroke="#C9CACA"/>
<path d="M8 32.5H80" stroke="#C9CACA"/>
<path d="M8 80.5H80" stroke="#C9CACA"/>
<path d="M8 56.5H80" stroke="#C9CACA"/>
<path d="M64.5 26.5V1.27637L87.8555 26.5H64.5Z" fill="#EAEAEA" stroke="#636464"/>
<path d="M44.3451 39C33.429 39 34.1106 43.5373 34.1106 43.5373L34.1227 48.238H44.5397V49.6493H29.9852C29.9852 49.6493 23 48.89 23 59.4469C23 70.0041 29.0969 69.6297 29.0969 69.6297H32.7355V64.7307C32.7355 64.7307 32.5393 58.8871 38.735 58.8871H49.0668C49.0668 58.8871 54.8716 58.977 54.8716 53.5099V44.4706C54.8716 44.4706 55.7532 39 44.3451 39ZM38.6011 42.1612C38.8473 42.161 39.0911 42.2073 39.3186 42.2975C39.546 42.3877 39.7527 42.52 39.9268 42.6868C40.1008 42.8536 40.2389 43.0517 40.333 43.2697C40.4271 43.4878 40.4754 43.7214 40.4752 43.9574C40.4754 44.1933 40.4271 44.427 40.333 44.645C40.2389 44.863 40.1008 45.0611 39.9268 45.2279C39.7527 45.3948 39.546 45.5271 39.3186 45.6173C39.0911 45.7075 38.8473 45.7538 38.6011 45.7536C38.355 45.7538 38.1112 45.7075 37.8837 45.6173C37.6563 45.5271 37.4496 45.3948 37.2755 45.2279C37.1015 45.0611 36.9634 44.863 36.8693 44.645C36.7752 44.427 36.7269 44.1933 36.7271 43.9574C36.7269 43.7214 36.7752 43.4878 36.8693 43.2697C36.9634 43.0517 37.1015 42.8536 37.2755 42.6868C37.4496 42.52 37.6563 42.3877 37.8837 42.2975C38.1112 42.2073 38.355 42.161 38.6011 42.1612Z" fill="#191919"/>
<path d="M44.6551 80C55.5712 80 54.8896 75.4627 54.8896 75.4627L54.8775 70.7621H44.4603V69.3508H59.0148C59.0148 69.3508 66 70.1101 66 59.5529C66 48.9959 59.9031 49.3703 59.9031 49.3703H56.2645V54.2691C56.2645 54.2691 56.4607 60.1128 50.265 60.1128H39.9332C39.9332 60.1128 34.1284 60.0229 34.1284 65.4901V74.5296C34.1284 74.5296 33.2472 80 44.6551 80ZM50.399 76.8392C50.1529 76.8394 49.9091 76.7931 49.6816 76.7029C49.4541 76.6127 49.2475 76.4804 49.0734 76.3135C48.8993 76.1467 48.7613 75.9486 48.6672 75.7306C48.5731 75.5126 48.5248 75.2789 48.525 75.043C48.5248 74.807 48.5731 74.5733 48.6672 74.3553C48.7613 74.1372 48.8993 73.9391 49.0733 73.7723C49.2474 73.6054 49.4541 73.4731 49.6816 73.3829C49.909 73.2927 50.1529 73.2464 50.399 73.2466C50.6452 73.2464 50.889 73.2927 51.1164 73.3829C51.3439 73.4731 51.5506 73.6054 51.7247 73.7722C51.8987 73.9391 52.0367 74.1372 52.1308 74.3552C52.2249 74.5732 52.2733 74.8069 52.273 75.0428C52.2733 75.2787 52.2249 75.5124 52.1308 75.7304C52.0367 75.9484 51.8987 76.1465 51.7247 76.3134C51.5506 76.4802 51.3439 76.6125 51.1164 76.7027C50.889 76.7929 50.6452 76.8394 50.399 76.8392Z" fill="#191919"/>
<path d="M50.399 76.8392C50.1529 76.8394 49.9091 76.7931 49.6816 76.7029C49.4541 76.6127 49.2475 76.4804 49.0734 76.3135C48.8993 76.1467 48.7613 75.9486 48.6672 75.7306C48.5731 75.5126 48.5248 75.2789 48.525 75.043C48.5248 74.807 48.5731 74.5733 48.6672 74.3553C48.7613 74.1372 48.8993 73.9391 49.0733 73.7723C49.2474 73.6054 49.4541 73.4731 49.6816 73.3829C49.909 73.2927 50.1529 73.2464 50.399 73.2466C50.6452 73.2464 50.889 73.2927 51.1164 73.3829C51.3439 73.4731 51.5506 73.6054 51.7247 73.7722C51.8987 73.9391 52.0367 74.1372 52.1308 74.3552C52.2249 74.5732 52.2733 74.8069 52.273 75.0428C52.2733 75.2787 52.2249 75.5124 52.1308 75.7304C52.0367 75.9484 51.8987 76.1465 51.7247 76.3134C51.5506 76.4802 51.3439 76.6125 51.1164 76.7027C50.889 76.7929 50.6452 76.8394 50.399 76.8392Z" fill="#F6F7F8"/>
<path d="M38.6011 42.1612C38.8473 42.161 39.0911 42.2073 39.3186 42.2975C39.546 42.3877 39.7527 42.52 39.9268 42.6868C40.1008 42.8536 40.2389 43.0517 40.333 43.2697C40.4271 43.4878 40.4754 43.7214 40.4752 43.9574C40.4754 44.1933 40.4271 44.427 40.333 44.645C40.2389 44.863 40.1008 45.0611 39.9268 45.2279C39.7527 45.3948 39.546 45.5271 39.3186 45.6173C39.0911 45.7075 38.8473 45.7538 38.6011 45.7536C38.355 45.7538 38.1112 45.7075 37.8837 45.6173C37.6563 45.5271 37.4496 45.3948 37.2755 45.2279C37.1015 45.0611 36.9634 44.863 36.8693 44.645C36.7752 44.427 36.7269 44.1933 36.7271 43.9574C36.7269 43.7214 36.7752 43.4878 36.8693 43.2697C36.9634 43.0517 37.1015 42.8536 37.2755 42.6868C37.4496 42.52 37.6563 42.3877 37.8837 42.2975C38.1112 42.2073 38.355 42.161 38.6011 42.1612Z" fill="#F6F7F8"/>
</g>
<defs>
<clipPath id="clip0_699_455">
<rect width="89" height="118" fill="white"/>
</clipPath>
</defs>
</svg>
