<svg width="89" height="118" viewBox="0 0 89 118" fill="none" xmlns="http://www.w3.org/2000/svg">
<g clip-path="url(#clip0_699_593)">
<path d="M63.7812 0.5L88.5 27.1963V117.5H0.5V0.5H63.7812Z" fill="#F6F7F8" stroke="#636464"/>
<path d="M8 12.5H67.5" stroke="#C9CACA"/>
<path d="M8 60.5H80" stroke="#C9CACA"/>
<path d="M8 36.5H80" stroke="#C9CACA"/>
<path d="M8 84.5H80" stroke="#C9CACA"/>
<path d="M8 24.5H80" stroke="#C9CACA"/>
<path d="M8 72.5H80" stroke="#C9CACA"/>
<path d="M8 48.5H80" stroke="#C9CACA"/>
<path d="M8 96.5H80" stroke="#C9CACA"/>
<path d="M8 16.5H74" stroke="#C9CACA"/>
<path d="M8 64.5H80" stroke="#C9CACA"/>
<path d="M8 40.5H80" stroke="#C9CACA"/>
<path d="M8 88.5H80" stroke="#C9CACA"/>
<path d="M8 28.5H80" stroke="#C9CACA"/>
<path d="M8 76.5H80" stroke="#C9CACA"/>
<path d="M8 52.5H80" stroke="#C9CACA"/>
<path d="M8 100.5H80" stroke="#C9CACA"/>
<path d="M8 20.5H80" stroke="#C9CACA"/>
<path d="M8 68.5H80" stroke="#C9CACA"/>
<path d="M8 44.5H80" stroke="#C9CACA"/>
<path d="M8 92.5H80" stroke="#C9CACA"/>
<path d="M8 32.5H80" stroke="#C9CACA"/>
<path d="M8 80.5H80" stroke="#C9CACA"/>
<path d="M8 56.5H80" stroke="#C9CACA"/>
<path d="M8 104.5H80" stroke="#C9CACA"/>
<path d="M64.5 26.5V1.27637L87.8555 26.5H64.5Z" fill="#EAEAEA" stroke="#636464"/>
<path d="M58.3972 45.5941C58.3972 45.2033 58.2166 44.7055 57.6344 44.1199C57.0482 43.5302 56.1323 42.9375 54.8951 42.4111C52.427 41.361 48.9277 40.6803 44.9955 40.6803C41.0634 40.6803 37.5641 41.361 35.0959 42.4111C33.8588 42.9375 32.9429 43.5302 32.3567 44.1199C31.7745 44.7055 31.5939 45.2033 31.5939 45.5941C31.5939 45.9849 31.7745 46.4826 32.3567 47.0682C32.9429 47.6579 33.8588 48.2507 35.0959 48.7771C37.5641 49.8272 41.0634 50.5079 44.9955 50.5079C48.9277 50.5079 52.427 49.8272 54.8951 48.7771C56.1323 48.2507 57.0482 47.6579 57.6344 47.0682C58.2166 46.4826 58.3972 45.9849 58.3972 45.5941ZM31.5939 72.3246C31.6378 72.7034 31.8644 73.2124 32.4906 73.8061C33.1397 74.4216 34.1273 75.037 35.4479 75.5805C36.7601 76.1207 38.3272 76.5596 40.0638 76.8617C41.7984 77.1634 43.651 77.3197 45.5128 77.3197C47.3748 77.3197 49.1984 77.1634 50.8768 76.8627C52.5581 76.5616 54.0399 76.1255 55.245 75.5933C56.4607 75.0564 57.3085 74.4598 57.8183 73.8867C58.3143 73.3291 58.4316 72.8693 58.4019 72.5106L58.3972 72.4537V67.9371C57.7686 68.3814 57.0495 68.7768 56.2645 69.1235C54.8359 69.7544 53.1531 70.241 51.3198 70.5694C49.4836 70.8982 47.5112 71.0658 45.5128 71.0658C43.5141 71.0658 41.5172 70.8983 39.6332 70.5706C37.7512 70.2432 36.0014 69.7593 34.4878 69.1362C33.3947 68.6862 32.4141 68.1592 31.5939 67.5581V72.3246ZM31.5939 63.3904C31.6378 63.7692 31.8644 64.2782 32.4906 64.8719C33.1397 65.4874 34.1273 66.1028 35.4479 66.6463C36.7601 67.1865 38.3272 67.6254 40.0638 67.9275C41.7984 68.2292 43.651 68.3855 45.5128 68.3855C47.3748 68.3855 49.1984 68.2292 50.8768 67.9285C52.5581 67.6274 54.0399 67.1913 55.245 66.6591C56.4607 66.1222 57.3085 65.5256 57.8183 64.9525C58.2054 64.5173 58.3613 64.1416 58.3972 63.8272V59.0029C57.7686 59.4472 57.0495 59.8426 56.2645 60.1893C54.8359 60.8202 53.1531 61.3068 51.3198 61.6352C49.4836 61.964 47.5112 62.1316 45.5128 62.1316C43.5141 62.1316 41.5172 61.9641 39.6332 61.6364C37.7512 61.309 36.0014 60.8251 34.4878 60.202C33.3947 59.752 32.4141 59.225 31.5939 58.6239V63.3904ZM58.3972 49.8729C57.6669 50.3983 56.8148 50.8589 55.8829 51.2554C53.0312 52.4688 49.1812 53.1881 44.9955 53.1881C40.8099 53.1881 36.9599 52.4688 34.1082 51.2554C33.1763 50.8589 32.3242 50.3983 31.5939 49.8729V54.4562C31.6378 54.835 31.8644 55.344 32.4906 55.9377C33.1397 56.5532 34.1273 57.1686 35.4479 57.7121C36.7601 58.2523 38.3272 58.6912 40.0638 58.9933C41.7984 59.295 43.651 59.4513 45.5128 59.4513C47.3748 59.4513 49.1984 59.295 50.8768 58.9943C52.5581 58.6932 54.0399 58.2571 55.245 57.7249C56.4607 57.188 57.3085 56.5914 57.8183 56.0183C58.2054 55.5831 58.3613 55.2074 58.3972 54.893V49.8729ZM60.9911 54.4829C61.0031 54.6648 61.0029 54.8443 60.9911 55.0212V63.4171C61.0031 63.599 61.0029 63.7785 60.9911 63.9554V72.3513C61.074 73.6106 60.5687 74.7553 59.7281 75.7004C58.886 76.6471 57.6825 77.4314 56.2645 78.0577C54.8359 78.6886 53.1531 79.1752 51.3198 79.5036C49.4836 79.8324 47.5112 80 45.5128 80C43.5141 80 41.5172 79.8325 39.6332 79.5048C37.7512 79.1774 36.0014 78.6935 34.4878 78.0704C32.9825 77.4508 31.6906 76.6853 30.7368 75.781C29.7836 74.8772 29.109 73.7729 29.0047 72.5106L29 72.4537V45.5941C29 44.2579 29.642 43.1104 30.5474 42.1996C31.4487 41.2929 32.6854 40.5381 34.1082 39.9327C36.9599 38.7194 40.8099 38 44.9955 38C49.1812 38 53.0312 38.7194 55.8829 39.9327C57.3056 40.5381 58.5424 41.2929 59.4437 42.1996C60.3491 43.1104 60.9911 44.2579 60.9911 45.5941V54.4829Z" fill="#191919"/>
<path d="M31.5939 72.3246C31.6378 72.7034 31.8644 73.2124 32.4906 73.8061C33.1397 74.4216 34.1273 75.037 35.4479 75.5805C36.7601 76.1207 38.3272 76.5596 40.0638 76.8617C41.7984 77.1634 43.651 77.3197 45.5128 77.3197C47.3748 77.3197 49.1984 77.1634 50.8768 76.8627C52.5581 76.5616 54.0399 76.1255 55.245 75.5933C56.4607 75.0564 57.3085 74.4598 57.8183 73.8867C58.3143 73.3291 58.4316 72.8693 58.4019 72.5106L58.3972 72.4537V67.9371C57.7686 68.3814 57.0495 68.7768 56.2645 69.1235C54.8359 69.7544 53.1531 70.241 51.3198 70.5694C49.4836 70.8982 47.5112 71.0658 45.5128 71.0658C43.5141 71.0658 41.5172 70.8983 39.6332 70.5706C37.7512 70.2432 36.0014 69.7593 34.4878 69.1362C33.3947 68.6862 32.4141 68.1592 31.5939 67.5581V72.3246Z" fill="#F6F7F8"/>
<path d="M31.5939 63.3904C31.6378 63.7692 31.8644 64.2782 32.4906 64.8719C33.1397 65.4874 34.1273 66.1028 35.4479 66.6463C36.7601 67.1865 38.3272 67.6254 40.0638 67.9275C41.7984 68.2292 43.651 68.3855 45.5128 68.3855C47.3748 68.3855 49.1984 68.2292 50.8768 67.9285C52.5581 67.6274 54.0399 67.1913 55.245 66.6591C56.4607 66.1222 57.3085 65.5256 57.8183 64.9525C58.2054 64.5173 58.3613 64.1416 58.3972 63.8272V59.0029C57.7686 59.4472 57.0495 59.8426 56.2645 60.1893C54.8359 60.8202 53.1531 61.3068 51.3198 61.6352C49.4836 61.964 47.5112 62.1316 45.5128 62.1316C43.5141 62.1316 41.5172 61.9641 39.6332 61.6364C37.7512 61.309 36.0014 60.8251 34.4878 60.202C33.3947 59.752 32.4141 59.225 31.5939 58.6239V63.3904Z" fill="#F6F7F8"/>
<path d="M58.3972 49.8729C57.6669 50.3983 56.8148 50.8589 55.8829 51.2554C53.0312 52.4688 49.1812 53.1881 44.9955 53.1881C40.8099 53.1881 36.9599 52.4688 34.1082 51.2554C33.1763 50.8589 32.3242 50.3983 31.5939 49.8729V54.4562C31.6378 54.835 31.8644 55.344 32.4906 55.9377C33.1397 56.5532 34.1273 57.1686 35.4479 57.7121C36.7601 58.2523 38.3272 58.6912 40.0638 58.9933C41.7984 59.295 43.651 59.4513 45.5128 59.4513C47.3748 59.4513 49.1984 59.295 50.8768 58.9943C52.5581 58.6932 54.0399 58.2571 55.245 57.7249C56.4607 57.188 57.3085 56.5914 57.8183 56.0183C58.2054 55.5831 58.3613 55.2074 58.3972 54.893V49.8729Z" fill="#F6F7F8"/>
<path d="M58.3972 45.5941C58.3972 45.2033 58.2166 44.7055 57.6344 44.1199C57.0482 43.5302 56.1323 42.9375 54.8951 42.4111C52.427 41.361 48.9277 40.6803 44.9955 40.6803C41.0634 40.6803 37.5641 41.361 35.0959 42.4111C33.8588 42.9375 32.9429 43.5302 32.3567 44.1199C31.7745 44.7055 31.5939 45.2033 31.5939 45.5941C31.5939 45.9849 31.7745 46.4826 32.3567 47.0682C32.9429 47.6579 33.8588 48.2507 35.0959 48.7771C37.5641 49.8272 41.0634 50.5079 44.9955 50.5079C48.9277 50.5079 52.427 49.8272 54.8951 48.7771C56.1323 48.2507 57.0482 47.6579 57.6344 47.0682C58.2166 46.4826 58.3972 45.9849 58.3972 45.5941Z" fill="#F6F7F8"/>
</g>
<defs>
<clipPath id="clip0_699_593">
<rect width="89" height="118" fill="white"/>
</clipPath>
</defs>
</svg>
