<svg width="89" height="118" viewBox="0 0 89 118" fill="none" xmlns="http://www.w3.org/2000/svg">
<g clip-path="url(#clip0_699_564)">
<path d="M63.7812 0.5L88.5 27.1963V117.5H0.5V0.5H63.7812Z" fill="#F6F7F8" stroke="#636464"/>
<path d="M8 12.5H67.5" stroke="#C9CACA"/>
<path d="M8 60.5H80" stroke="#C9CACA"/>
<path d="M8 36.5H80" stroke="#C9CACA"/>
<path d="M8 84.5H80" stroke="#C9CACA"/>
<path d="M8 24.5H80" stroke="#C9CACA"/>
<path d="M8 72.5H80" stroke="#C9CACA"/>
<path d="M8 48.5H80" stroke="#C9CACA"/>
<path d="M8 96.5H80" stroke="#C9CACA"/>
<path d="M8 16.5H74" stroke="#C9CACA"/>
<path d="M8 64.5H80" stroke="#C9CACA"/>
<path d="M8 40.5H80" stroke="#C9CACA"/>
<path d="M8 88.5H80" stroke="#C9CACA"/>
<path d="M8 28.5H80" stroke="#C9CACA"/>
<path d="M8 76.5H80" stroke="#C9CACA"/>
<path d="M8 52.5H80" stroke="#C9CACA"/>
<path d="M8 100.5H80" stroke="#C9CACA"/>
<path d="M8 20.5H80" stroke="#C9CACA"/>
<path d="M8 68.5H80" stroke="#C9CACA"/>
<path d="M8 44.5H80" stroke="#C9CACA"/>
<path d="M8 92.5H80" stroke="#C9CACA"/>
<path d="M8 32.5H80" stroke="#C9CACA"/>
<path d="M8 80.5H80" stroke="#C9CACA"/>
<path d="M8 56.5H80" stroke="#C9CACA"/>
<path d="M8 104.5H80" stroke="#C9CACA"/>
<path d="M64.5 26.5V1.27637L87.8555 26.5H64.5Z" fill="#EAEAEA" stroke="#636464"/>
<path fill-rule="evenodd" clip-rule="evenodd" d="M64.1814 46.9566C64.6814 47.2316 65.1361 47.7065 65.4658 48.2501C65.7955 48.7936 66 49.4058 66 49.9558V69.0442C66 69.5942 65.7952 70.2065 65.4657 70.75C65.1361 71.2937 64.6815 71.7684 64.1814 72.0434L46.8186 81.5876C45.8185 82.1375 44.1816 82.1375 43.1814 81.5876L25.8186 72.0434C25.3186 71.7686 24.8639 71.2935 24.5343 70.75C24.2046 70.2065 24 69.5942 24 69.0442V49.9558C24 48.8561 24.8183 47.5064 25.8186 46.9566L43.1814 37.4124C44.1816 36.8625 45.8185 36.8625 46.8186 37.4124L64.1814 46.9566ZM51.0637 62.8333L54.1142 64.5101L57.1243 66.1685C54.6273 70.2772 49.9815 72.8296 45 72.8296C39.828 72.8296 35.3021 70.1455 32.8781 66.1636C31.684 64.2021 31 61.9257 31 59.5001C31 52.1502 37.2804 46.1706 45 46.1706C49.9813 46.1706 54.6269 48.7228 57.1239 52.8311L53.542 54.8046L51.0636 56.1669C49.8136 54.1119 47.4902 52.8353 45 52.8353C41.1401 52.8353 38 55.825 38 59.5001C38 60.7129 38.342 61.8511 38.939 62.8318C40.151 64.8228 42.414 66.1648 45 66.1648C47.4903 66.1648 49.8135 64.8884 51.0637 62.8333ZM63.2777 58.7595H64.8333V60.2405H63.2777V61.7216H61.7223V60.2405H60.1667V58.7595H61.7223V57.2785H63.2777V58.7595ZM59 58.7595H57.4444V57.2785H55.889V58.7595H54.3333V60.2405H55.889V61.7216H57.4444V60.2405H59V58.7595Z" fill="#191919"/>
<path d="M51.0637 62.8333L54.1142 64.5101L57.1243 66.1685C54.6273 70.2772 49.9815 72.8296 45 72.8296C39.828 72.8296 35.3021 70.1455 32.8781 66.1636C31.684 64.2021 31 61.9257 31 59.5001C31 52.1502 37.2804 46.1706 45 46.1706C49.9813 46.1706 54.6269 48.7228 57.1239 52.8311L53.542 54.8046L51.0636 56.1669C49.8136 54.1119 47.4902 52.8353 45 52.8353C41.1401 52.8353 38 55.825 38 59.5001C38 60.7129 38.342 61.8511 38.939 62.8318C40.151 64.8228 42.414 66.1648 45 66.1648C47.4903 66.1648 49.8135 64.8884 51.0637 62.8333Z" fill="#F6F7F8"/>
<path d="M59 58.7595H57.4444V57.2785H55.889V58.7595H54.3333V60.2405H55.889V61.7216H57.4444V60.2405H59V58.7595Z" fill="#F6F7F8"/>
<path d="M63.2777 58.7595H64.8333V60.2405H63.2777V61.7216H61.7223V60.2405H60.1667V58.7595H61.7223V57.2785H63.2777V58.7595Z" fill="#F6F7F8"/>
</g>
<defs>
<clipPath id="clip0_699_564">
<rect width="89" height="118" fill="white"/>
</clipPath>
</defs>
</svg>
