<svg width="89" height="118" viewBox="0 0 89 118" fill="none" xmlns="http://www.w3.org/2000/svg">
<g clip-path="url(#clip0_716_1368)">
<path d="M63.7812 0.5L88.5 27.1963V117.5H0.5V0.5H63.7812Z" fill="#E2E2E2" stroke="#636464"/>
<path d="M8 12.5H67.5" stroke="#C9CACA"/>
<path d="M8 60.5H80" stroke="#C9CACA"/>
<path d="M8 36.5H80" stroke="#C9CACA"/>
<path d="M8 84.5H80" stroke="#C9CACA"/>
<path d="M8 24.5H80" stroke="#C9CACA"/>
<path d="M8 72.5H80" stroke="#C9CACA"/>
<path d="M8 48.5H80" stroke="#C9CACA"/>
<path d="M8 96.5H80" stroke="#C9CACA"/>
<path d="M8 16.5H74" stroke="#C9CACA"/>
<path d="M8 64.5H80" stroke="#C9CACA"/>
<path d="M8 40.5H80" stroke="#C9CACA"/>
<path d="M8 88.5H80" stroke="#C9CACA"/>
<path d="M8 28.5H80" stroke="#C9CACA"/>
<path d="M8 76.5H80" stroke="#C9CACA"/>
<path d="M8 52.5H80" stroke="#C9CACA"/>
<path d="M8 100.5H80" stroke="#C9CACA"/>
<path d="M8 20.5H80" stroke="#C9CACA"/>
<path d="M8 68.5H80" stroke="#C9CACA"/>
<path d="M8 44.5H80" stroke="#C9CACA"/>
<path d="M8 92.5H80" stroke="#C9CACA"/>
<path d="M8 32.5H80" stroke="#C9CACA"/>
<path d="M8 80.5H80" stroke="#C9CACA"/>
<path d="M8 56.5H80" stroke="#C9CACA"/>
<path d="M8 104.5H80" stroke="#C9CACA"/>
<path d="M64.5 26.5V1.27637L87.8555 26.5H64.5Z" fill="#EAEAEA" stroke="#636464"/>
<path fill-rule="evenodd" clip-rule="evenodd" d="M62.9649 47.0629C63.5244 47.3685 64.0333 47.8961 64.4022 48.5001C64.7712 49.104 65 49.7842 65 50.3953V71.6046C65 72.2158 64.7708 72.8961 64.4021 73.5C64.0333 74.1041 63.5245 74.6315 62.9649 74.9371L43.5351 85.5417C42.4159 86.1527 40.5842 86.1527 39.4649 85.5417L20.0351 74.9371C19.4756 74.6318 18.9667 74.1039 18.5979 73.5C18.229 72.8961 18 72.2158 18 71.6046V50.3953C18 49.1735 18.9157 47.6738 20.0351 47.0629L39.4649 36.4582C40.5842 35.8473 42.4159 35.8473 43.5351 36.4582L62.9649 47.0629ZM48.2856 64.7037L51.6992 66.5668L55.0677 68.4094C52.2734 72.9747 47.0745 75.8106 41.5 75.8106C35.7123 75.8106 30.6476 72.8283 27.935 68.404C26.5988 66.2245 25.8333 63.6952 25.8333 61.0001C25.8333 52.8336 32.8614 46.1896 41.5 46.1896C47.0743 46.1896 52.273 49.0253 55.0672 53.5901L51.0589 55.7829L48.2855 57.2966C46.8866 55.0132 44.2867 53.5948 41.5 53.5948C37.1806 53.5948 33.6667 56.9167 33.6667 61.0001C33.6667 62.3477 34.0494 63.6123 34.7175 64.702C36.0737 66.9142 38.6061 68.4053 41.5 68.4053C44.2868 68.4053 46.8865 66.9871 48.2856 64.7037ZM61.9536 60.1772H63.6944V61.8228H61.9536V63.4684H60.2131V61.8228H58.4723V60.1772H60.2131V58.5317H61.9536V60.1772ZM57.1667 60.1772H55.4259V58.5317H53.6853V60.1772H51.9444V61.8228H53.6853V63.4684H55.4259V61.8228H57.1667V60.1772Z" fill="#FE2B2B"/>
<path d="M48.2856 64.7037L51.6992 66.5668L55.0677 68.4094C52.2734 72.9747 47.0745 75.8106 41.5 75.8106C35.7123 75.8106 30.6476 72.8283 27.935 68.404C26.5988 66.2245 25.8333 63.6952 25.8333 61.0001C25.8333 52.8336 32.8614 46.1896 41.5 46.1896C47.0743 46.1896 52.273 49.0253 55.0672 53.5901L51.0589 55.7829L48.2855 57.2966C46.8866 55.0132 44.2867 53.5948 41.5 53.5948C37.1806 53.5948 33.6667 56.9167 33.6667 61.0001C33.6667 62.3477 34.0494 63.6123 34.7175 64.702C36.0737 66.9142 38.6061 68.4053 41.5 68.4053C44.2868 68.4053 46.8865 66.9871 48.2856 64.7037Z" fill="#E2E2E2"/>
<path d="M57.1667 60.1772H55.4259V58.5317H53.6853V60.1772H51.9444V61.8228H53.6853V63.4684H55.4259V61.8228H57.1667V60.1772Z" fill="#E2E2E2"/>
<path d="M61.9536 60.1772H63.6944V61.8228H61.9536V63.4684H60.2131V61.8228H58.4723V60.1772H60.2131V58.5317H61.9536V60.1772Z" fill="#E2E2E2"/>
</g>
<defs>
<clipPath id="clip0_716_1368">
<rect width="89" height="118" fill="white"/>
</clipPath>
</defs>
</svg>
