<svg width="89" height="118" viewBox="0 0 89 118" fill="none" xmlns="http://www.w3.org/2000/svg">
<g clip-path="url(#clip0_716_1312)">
<path d="M63.7812 0.5L88.5 27.1963V117.5H0.5V0.5H63.7812Z" fill="#E2E2E2" stroke="#636464"/>
<path d="M8 12.5H67.5" stroke="#C9CACA"/>
<path d="M8 60.5H80" stroke="#C9CACA"/>
<path d="M8 36.5H80" stroke="#C9CACA"/>
<path d="M8 84.5H80" stroke="#C9CACA"/>
<path d="M8 24.5H80" stroke="#C9CACA"/>
<path d="M8 72.5H80" stroke="#C9CACA"/>
<path d="M8 48.5H80" stroke="#C9CACA"/>
<path d="M8 96.5H80" stroke="#C9CACA"/>
<path d="M8 16.5H74" stroke="#C9CACA"/>
<path d="M8 64.5H80" stroke="#C9CACA"/>
<path d="M8 40.5H80" stroke="#C9CACA"/>
<path d="M8 88.5H80" stroke="#C9CACA"/>
<path d="M8 28.5H80" stroke="#C9CACA"/>
<path d="M8 76.5H80" stroke="#C9CACA"/>
<path d="M8 52.5H80" stroke="#C9CACA"/>
<path d="M8 100.5H80" stroke="#C9CACA"/>
<path d="M8 20.5H80" stroke="#C9CACA"/>
<path d="M8 68.5H80" stroke="#C9CACA"/>
<path d="M8 44.5H80" stroke="#C9CACA"/>
<path d="M8 92.5H80" stroke="#C9CACA"/>
<path d="M8 32.5H80" stroke="#C9CACA"/>
<path d="M8 80.5H80" stroke="#C9CACA"/>
<path d="M8 56.5H80" stroke="#C9CACA"/>
<path d="M8 104.5H80" stroke="#C9CACA"/>
<path d="M64.5 26.5V1.27637L87.8555 26.5H64.5Z" fill="#EAEAEA" stroke="#636464"/>
<path d="M43.0294 40.6554C43.0294 40.3733 43.1113 40.0975 43.2648 39.8629C43.4183 39.6282 43.6365 39.4454 43.8916 39.3375C44.1468 39.2295 44.4277 39.2013 44.6987 39.2562C44.9695 39.3113 45.2184 39.4472 45.4137 39.6467C45.6091 39.8462 45.7422 40.1003 45.7961 40.3771C45.8499 40.6538 45.8223 40.9407 45.7166 41.2014C45.6108 41.4621 45.4319 41.6849 45.2021 41.8416C44.9724 41.9984 44.7023 42.0821 44.4262 42.0821C44.2426 42.0823 44.061 42.0455 43.8914 41.9739C43.7217 41.9023 43.5678 41.7973 43.438 41.6647C43.3083 41.5322 43.2053 41.3749 43.1353 41.2016C43.0651 41.0285 43.0291 40.8429 43.0294 40.6554ZM26.3692 53.5737C26.3692 53.2915 26.4511 53.0157 26.6046 52.7811C26.7581 52.5465 26.9762 52.3637 27.2314 52.2557C27.4867 52.1477 27.7675 52.1194 28.0384 52.1745C28.3094 52.2295 28.5583 52.3654 28.7536 52.5649C28.949 52.7645 29.0819 53.0186 29.1358 53.2953C29.1898 53.5721 29.1621 53.859 29.0564 54.1197C28.9507 54.3802 28.7716 54.6031 28.5419 54.7599C28.3123 54.9166 28.0422 55.0002 27.7659 55.0002C27.5825 55.0002 27.4009 54.9633 27.2314 54.8917C27.062 54.82 26.908 54.7149 26.7784 54.5824C26.6486 54.4499 26.5458 54.2927 26.4755 54.1197C26.4053 53.9465 26.3692 53.761 26.3692 53.5737ZM59.703 53.6406C59.703 53.3584 59.7849 53.0825 59.9384 52.848C60.0918 52.6134 60.31 52.4305 60.5652 52.3225C60.8205 52.2145 61.1013 52.1863 61.3722 52.2414C61.6432 52.2965 61.8921 52.4322 62.0874 52.6318C62.2827 52.8313 62.4157 53.0855 62.4696 53.3622C62.5236 53.639 62.4958 53.9258 62.3901 54.1865C62.2845 54.4472 62.1054 54.6699 61.8757 54.8267C61.6461 54.9834 61.376 55.0671 61.0997 55.0671C60.9163 55.0673 60.7345 55.0306 60.5649 54.959C60.3954 54.8874 60.2413 54.7823 60.1116 54.6498C59.9818 54.5173 59.879 54.3599 59.8088 54.1867C59.7388 54.0136 59.7028 53.828 59.703 53.6406ZM30.4066 55.5952C30.7146 55.4549 30.9556 55.1958 31.077 54.8745C31.1984 54.5531 31.1904 54.1959 31.0547 53.8806L30.4352 52.4488H32.8728V63.6713H27.9539C27.3468 61.4935 27.1576 59.2163 27.3966 56.9653L30.4066 55.5952ZM40.6036 55.8713V52.5638H46.4088C46.7092 52.5638 48.5257 52.9169 48.5257 54.3058C48.5257 55.4581 47.1323 55.8713 45.9858 55.8713H40.6036ZM32.678 73.6815C32.678 73.3993 32.76 73.1234 32.9135 72.8889C33.067 72.6543 33.2851 72.4714 33.5403 72.3634C33.7955 72.2554 34.0763 72.2272 34.3473 72.2823C34.6182 72.3373 34.8671 72.4731 35.0624 72.6727C35.2577 72.8722 35.3908 73.1264 35.4447 73.4031C35.4986 73.6799 35.471 73.9667 35.3653 74.2274C35.2595 74.488 35.0805 74.7109 34.8508 74.8677C34.6211 75.0243 34.3511 75.108 34.0748 75.108C33.8913 75.1082 33.7096 75.0715 33.5401 74.9999C33.3705 74.9283 33.2164 74.8232 33.0867 74.6907C32.9569 74.5582 32.8541 74.4008 32.7839 74.2277C32.7138 74.0545 32.6779 73.8688 32.678 73.6815ZM53.379 73.7483C53.379 73.4662 53.461 73.1904 53.6144 72.9558C53.7679 72.7211 53.9861 72.5383 54.2413 72.4303C54.4964 72.3223 54.7773 72.2941 55.0483 72.3491C55.3192 72.4042 55.568 72.54 55.7634 72.7395C55.9587 72.9391 56.0918 73.1933 56.1457 73.4701C56.1996 73.7467 56.1719 74.0336 56.0662 74.2943C55.9604 74.555 55.7815 74.7777 55.5518 74.9345C55.322 75.0912 55.0521 75.1749 54.7758 75.1749C54.4053 75.1749 54.0501 75.0246 53.7881 74.757C53.5262 74.4895 53.379 74.1266 53.379 73.7483ZM53.8105 70.5128C53.6469 70.477 53.478 70.4746 53.3135 70.5056C53.149 70.5366 52.9921 70.6005 52.8518 70.6935C52.7115 70.7865 52.5904 70.9069 52.4956 71.0477C52.4009 71.1885 52.3343 71.347 52.2996 71.5142L51.5979 74.856C49.3426 75.8991 46.8934 76.4328 44.4178 76.4207C41.9421 76.4085 39.4981 75.8509 37.2527 74.7857L36.5526 71.4438C36.4818 71.1067 36.2829 70.8122 35.9996 70.6248C35.7164 70.4374 35.3719 70.3725 35.0418 70.4442L32.1526 71.0786C31.6156 70.5139 31.1165 69.913 30.6585 69.2799H44.7165C44.876 69.2799 44.9818 69.2507 44.9818 69.1085V64.0227C44.9818 63.8753 44.876 63.8513 44.7165 63.8513H40.6036V60.6261H45.0506C45.7135 60.6328 46.3525 60.88 46.8534 61.3235C47.3544 61.767 47.6847 62.3779 47.7854 63.0472C47.9616 63.7553 48.3494 66.0598 48.6147 66.7971C48.8782 67.6253 49.9577 69.2782 51.1026 69.2782H58.36C57.8733 69.9447 57.3409 70.575 56.7668 71.1643L53.8105 70.5128ZM61.6168 57.1024C61.7155 58.1162 61.7279 59.1368 61.6537 60.1528H59.8893C59.7131 60.1528 59.6409 60.2711 59.6409 60.4478V61.2759C59.6409 63.2238 58.5648 63.649 57.6263 63.757C56.7283 63.8599 55.7327 63.3729 55.6118 62.8122C55.5471 61.8411 55.2593 60.8992 54.772 60.0627C54.2847 59.2263 53.6114 58.5187 52.8066 57.9975C54.5358 56.8761 56.332 55.2215 56.332 53.0062C56.2964 52.0649 56.0307 51.1478 55.5592 50.3382C55.0877 49.5287 54.4254 48.8526 53.6326 48.3714C52.5266 47.6398 51.2545 47.2122 49.9393 47.1299H31.6859C34.2091 44.2495 37.5919 42.2992 41.3103 41.5814L43.4626 43.8858C43.5778 44.0095 43.7158 44.1088 43.8686 44.1779C44.0215 44.2471 44.1861 44.2849 44.3533 44.289C44.5204 44.2931 44.6867 44.2637 44.8426 44.2021C44.9987 44.1406 45.1412 44.0482 45.2622 43.9304L47.6695 41.5779C50.1241 42.0482 52.449 43.0589 54.4827 44.5393C56.5163 46.0198 58.21 47.9347 59.4461 50.1512L57.7976 53.9526C57.6623 54.2679 57.6545 54.625 57.7759 54.9463C57.8973 55.2674 58.1379 55.5265 58.4456 55.6673L61.6168 57.1024ZM65.7265 57.1641L65.6711 56.576L67.3682 54.9591C67.4326 54.8907 67.4831 54.8101 67.5168 54.7217C67.5505 54.6334 67.5668 54.5392 67.5648 54.4443C67.5628 54.3496 67.5425 54.2561 67.505 54.1694C67.4675 54.0826 67.4136 54.0043 67.3465 53.9389C67.287 53.881 67.2183 53.8341 67.1433 53.8L64.9811 52.9718L64.8132 52.3991L66.1663 50.4787C66.2663 50.3169 66.2994 50.1213 66.2585 49.9346C66.2176 49.7479 66.106 49.5854 65.948 49.4825C65.8794 49.4385 65.8038 49.4066 65.7247 49.3882L63.4366 49.0075L63.1613 48.4829L64.1232 46.3275C64.1572 46.2398 64.174 46.1459 64.1725 46.0515C64.171 45.957 64.1513 45.8639 64.1145 45.7773C64.0777 45.6906 64.0245 45.6122 63.958 45.5466C63.8915 45.481 63.813 45.4294 63.727 45.3947C63.6488 45.3637 63.5658 45.3467 63.4819 45.345L61.1601 45.4273L60.7841 44.9746L61.318 42.665C61.3339 42.5715 61.3316 42.4759 61.3113 42.3833C61.2909 42.2907 61.253 42.2032 61.1994 42.1256C61.146 42.0481 61.0782 41.9821 60.9996 41.9313C60.9211 41.8806 60.8336 41.8462 60.7422 41.8299C60.6622 41.8162 60.5804 41.8162 60.5004 41.8299L58.2374 42.3701L57.7909 41.9946L57.8731 39.6266C57.8709 39.5319 57.8505 39.4384 57.8129 39.3517C57.7754 39.2649 57.7216 39.1866 57.6543 39.1211C57.5871 39.0558 57.508 39.0045 57.4213 38.9703C57.3348 38.9361 57.2424 38.9197 57.1495 38.9219C57.0686 38.9241 56.9886 38.9403 56.9128 38.9699L54.8026 39.9525L54.289 39.6712L53.9163 37.3342C53.8749 37.1486 53.7636 36.9873 53.6064 36.8851C53.4491 36.7831 53.2588 36.7485 53.0768 36.7889C52.9978 36.8073 52.9223 36.8392 52.8536 36.8832L50.9717 38.2653L50.4126 38.0937L49.6018 35.8767C49.526 35.7017 49.3854 35.5645 49.2107 35.4954C49.036 35.4263 48.8415 35.4309 48.67 35.508C48.596 35.5422 48.528 35.5886 48.4686 35.6453L46.8805 37.3805L46.3047 37.3239L45.0826 35.3057C45.0172 35.2112 44.9308 35.1342 44.8303 35.0809C44.7297 35.0278 44.6182 35 44.505 35C44.3918 35 44.2804 35.0278 44.1798 35.0809C44.0793 35.1342 43.9927 35.2112 43.9275 35.3057L42.7054 37.3239L42.1296 37.3805L40.5465 35.6453C40.4107 35.5134 40.2292 35.4421 40.0419 35.4469C39.8546 35.4517 39.6768 35.5323 39.5476 35.671C39.4921 35.7315 39.4467 35.801 39.4133 35.8767L38.5958 38.0834L38.0367 38.255L36.1565 36.8832C35.998 36.7811 35.8065 36.7473 35.6238 36.789C35.4409 36.8309 35.2818 36.9448 35.1812 37.1061C35.1381 37.1762 35.1068 37.2534 35.0888 37.3342L34.7161 39.6712L34.2024 39.9525L32.0905 38.9699C31.9162 38.901 31.7222 38.9054 31.551 38.9822C31.3799 39.059 31.2454 39.2019 31.1772 39.3798C31.1482 39.4589 31.1324 39.5423 31.1302 39.6266L31.2108 41.9981L30.7643 42.3701L28.5029 41.8282C28.4114 41.812 28.3177 41.8143 28.2271 41.8351C28.1364 41.8559 28.0508 41.8946 27.9748 41.9493C27.8989 42.0039 27.8343 42.0733 27.7846 42.1534C27.7349 42.2336 27.7012 42.323 27.6853 42.4163C27.6719 42.4982 27.6719 42.5816 27.6853 42.6633L28.2159 44.9746L27.8498 45.429L25.5299 45.3467C25.4165 45.3497 25.3055 45.3806 25.2063 45.4365C25.107 45.4923 25.0223 45.5718 24.9593 45.668C24.8963 45.7642 24.8569 45.8745 24.8443 45.9896C24.8316 46.1047 24.8463 46.2211 24.8869 46.3293L25.8488 48.4846L25.5734 49.0093L23.2853 49.3899C23.1034 49.4317 22.9452 49.5454 22.8452 49.7061C22.7451 49.8667 22.7114 50.0613 22.7515 50.2472C22.7695 50.328 22.8007 50.4051 22.8438 50.4753L24.1969 52.3957L24.029 52.9683L21.8584 53.7966C21.687 53.8739 21.5527 54.0176 21.485 54.1961C21.4173 54.3745 21.4217 54.5731 21.4974 54.7482C21.5304 54.825 21.5764 54.8953 21.6334 54.9557L23.3306 56.5726L23.2753 57.1607L21.2993 58.409C21.2068 58.4757 21.1314 58.564 21.0793 58.6666C21.0272 58.7693 21 58.8832 21 58.9989C21 59.1144 21.0272 59.2283 21.0793 59.331C21.1314 59.4337 21.2068 59.5221 21.2993 59.5887L23.2753 60.8369L23.3306 61.425L21.6334 63.0421C21.5044 63.1807 21.4345 63.3662 21.4392 63.5575C21.444 63.7488 21.5228 63.9303 21.6586 64.0622C21.7173 64.1189 21.7848 64.1653 21.8584 64.1994L24.029 65.0275L24.1969 65.6002L22.8438 67.5275C22.7941 67.6077 22.7604 67.697 22.7446 67.7905C22.7288 67.884 22.7312 67.9797 22.7516 68.0722C22.7721 68.1647 22.8102 68.2522 22.8637 68.3297C22.9173 68.4072 22.9852 68.4731 23.0638 68.5238C23.1324 68.5678 23.2079 68.5997 23.287 68.6181L25.5752 68.9987L25.8505 69.5251L24.8885 71.6805C24.8211 71.859 24.8256 72.0575 24.9011 72.2327C24.9765 72.4078 25.117 72.5453 25.2914 72.615C25.3682 72.6445 25.4494 72.6607 25.5315 72.663L27.8533 72.5807L28.2209 73.0367L27.6888 75.3481C27.6566 75.5361 27.6988 75.7295 27.8061 75.8858C27.9135 76.0421 28.0772 76.1483 28.2612 76.1814C28.3422 76.1968 28.4253 76.1968 28.5064 76.1814L30.7643 75.6344L31.2108 76.0082L31.1285 78.3779C31.1306 78.4723 31.1507 78.5656 31.188 78.6521C31.2253 78.7386 31.2789 78.8167 31.3458 78.8821C31.4127 78.9473 31.4915 78.9985 31.5779 79.0327C31.6642 79.0667 31.7562 79.0832 31.8487 79.0809C31.9309 79.0795 32.0122 79.0633 32.0888 79.0329L34.1991 78.0504L34.7128 78.3315L35.0854 80.667C35.1264 80.8528 35.2376 81.0146 35.3948 81.117C35.552 81.2195 35.7425 81.2543 35.9248 81.2139C36.0041 81.1963 36.0798 81.1643 36.1481 81.1197L38.0283 79.7359L38.589 79.9073L39.3999 82.1227C39.4763 82.2976 39.6174 82.4344 39.7923 82.5031C39.9674 82.5719 40.1618 82.5671 40.3333 82.4896C40.4069 82.4554 40.4743 82.4091 40.5331 82.3525L42.1162 80.619L42.692 80.6773L43.9141 82.6954C44.0228 82.8518 44.1878 82.9576 44.373 82.9897C44.558 83.0219 44.7481 82.9777 44.9012 82.8669C44.9664 82.82 45.0232 82.7619 45.0692 82.6954L46.2913 80.6773L46.8671 80.619L48.4502 82.3525C48.586 82.4842 48.7675 82.5557 48.9548 82.5507C49.1421 82.5459 49.3199 82.4654 49.449 82.3267C49.5045 82.2667 49.5499 82.1978 49.5833 82.1227L50.3941 79.9073L50.9549 79.7359L52.8352 81.1197C52.9136 81.1703 53.001 81.2047 53.0926 81.2209C53.1841 81.237 53.2778 81.2346 53.3683 81.2137C53.459 81.1929 53.5446 81.1539 53.6205 81.0993C53.6963 81.0446 53.7609 80.9752 53.8105 80.895C53.8536 80.8248 53.8848 80.7478 53.9029 80.667L54.2755 78.3315L54.7892 78.0504L56.8994 79.0329C57.0738 79.1018 57.2677 79.0975 57.4389 79.0206C57.6101 78.9438 57.7445 78.8009 57.8127 78.6231C57.8417 78.5446 57.8575 78.4617 57.8597 78.3779L57.7791 76.0048L58.224 75.631L60.4853 76.1745C60.6694 76.2075 60.8586 76.1647 61.0119 76.0554C61.1651 75.9462 61.2697 75.7794 61.3028 75.5915C61.3163 75.5087 61.3163 75.4241 61.3028 75.3413L60.7841 73.0333L61.1502 72.5773L63.4718 72.6595C63.659 72.6545 63.8366 72.5739 63.9657 72.4354C64.0948 72.2969 64.1647 72.1117 64.1601 71.9205C64.1591 71.8371 64.1431 71.7546 64.1131 71.677L63.1512 69.5217L63.4266 68.9953L65.7147 68.6146C65.8967 68.5728 66.055 68.4592 66.1553 68.2986C66.2556 68.1381 66.2898 67.9434 66.2502 67.7573C66.2319 67.6753 66.2001 67.597 66.1562 67.5258L64.8031 65.6054L64.971 65.0327L67.1416 64.2046C67.2264 64.1664 67.303 64.1115 67.3671 64.0432C67.4312 63.9749 67.4814 63.8942 67.5149 63.8059C67.5483 63.7177 67.5645 63.6237 67.5624 63.529C67.5604 63.4344 67.54 63.3411 67.5026 63.2546C67.4696 63.1778 67.4236 63.1075 67.3666 63.0472L65.6694 61.4302L65.7247 60.8421L67.7007 59.5938C67.7932 59.5272 67.8686 59.4389 67.9207 59.3361C67.9728 59.2335 68 59.1195 68 59.004C68 58.8883 67.9728 58.7744 67.9207 58.6718C67.8686 58.5691 67.7932 58.4808 67.7007 58.4142L65.7265 57.1641Z" fill="#FE2B2B"/>
<path d="M53.8105 70.5128C53.6469 70.477 53.478 70.4746 53.3135 70.5056C53.149 70.5366 52.9921 70.6005 52.8518 70.6935C52.7115 70.7865 52.5904 70.9069 52.4956 71.0477C52.4009 71.1885 52.3343 71.347 52.2996 71.5142L51.5979 74.856C49.3426 75.8991 46.8934 76.4328 44.4178 76.4207C41.9421 76.4085 39.4981 75.8509 37.2527 74.7857L36.5526 71.4438C36.4818 71.1067 36.2829 70.8122 35.9996 70.6248C35.7164 70.4374 35.3719 70.3725 35.0418 70.4442L32.1526 71.0786C31.6156 70.5139 31.1165 69.913 30.6585 69.2799H44.7165C44.876 69.2799 44.9818 69.2507 44.9818 69.1085V64.0227C44.9818 63.8753 44.876 63.8513 44.7165 63.8513H40.6036V60.6261H45.0506C45.7135 60.6328 46.3525 60.88 46.8534 61.3235C47.3544 61.767 47.6847 62.3779 47.7854 63.0472C47.9616 63.7553 48.3494 66.0598 48.6147 66.7971C48.8782 67.6253 49.9577 69.2782 51.1026 69.2782H58.36C57.8733 69.9447 57.3409 70.575 56.7668 71.1643L53.8105 70.5128Z" fill="#E2E2E2"/>
<path d="M61.6168 57.1024C61.7155 58.1162 61.7279 59.1368 61.6537 60.1528H59.8893C59.7131 60.1528 59.6409 60.2711 59.6409 60.4478V61.2759C59.6409 63.2238 58.5648 63.649 57.6263 63.757C56.7283 63.8599 55.7327 63.3729 55.6118 62.8122C55.5471 61.8411 55.2593 60.8992 54.772 60.0627C54.2847 59.2263 53.6114 58.5187 52.8066 57.9975C54.5358 56.8761 56.332 55.2215 56.332 53.0062C56.2964 52.0649 56.0307 51.1478 55.5592 50.3382C55.0877 49.5287 54.4254 48.8526 53.6326 48.3714C52.5266 47.6398 51.2545 47.2122 49.9393 47.1299H31.6859C34.2091 44.2495 37.5919 42.2992 41.3103 41.5814L43.4626 43.8858C43.5778 44.0095 43.7158 44.1088 43.8686 44.1779C44.0215 44.2471 44.1861 44.2849 44.3533 44.289C44.5204 44.2931 44.6867 44.2637 44.8426 44.2021C44.9987 44.1406 45.1412 44.0482 45.2622 43.9304L47.6695 41.5779C50.1241 42.0482 52.449 43.0589 54.4827 44.5393C56.5163 46.0198 58.21 47.9347 59.4461 50.1512L57.7976 53.9526C57.6623 54.2679 57.6545 54.625 57.7759 54.9463C57.8973 55.2674 58.1379 55.5265 58.4456 55.6673L61.6168 57.1024Z" fill="#E2E2E2"/>
<path d="M40.6036 55.8713V52.5638H46.4088C46.7092 52.5638 48.5257 52.9169 48.5257 54.3058C48.5257 55.4581 47.1323 55.8713 45.9858 55.8713H40.6036Z" fill="#E2E2E2"/>
<path d="M30.4066 55.5952C30.7146 55.4549 30.9556 55.1958 31.077 54.8745C31.1984 54.5531 31.1904 54.1959 31.0547 53.8806L30.4352 52.4488H32.8728V63.6713H27.9539C27.3468 61.4935 27.1576 59.2163 27.3966 56.9653L30.4066 55.5952Z" fill="#E2E2E2"/>
<path d="M26.3692 53.5737C26.3692 53.2915 26.4511 53.0157 26.6046 52.7811C26.7581 52.5465 26.9762 52.3637 27.2314 52.2557C27.4867 52.1477 27.7675 52.1194 28.0384 52.1745C28.3094 52.2295 28.5583 52.3654 28.7536 52.5649C28.949 52.7645 29.0819 53.0186 29.1358 53.2953C29.1898 53.5721 29.1621 53.859 29.0564 54.1197C28.9507 54.3802 28.7716 54.6031 28.5419 54.7599C28.3123 54.9166 28.0422 55.0002 27.7659 55.0002C27.5825 55.0002 27.4009 54.9633 27.2314 54.8917C27.062 54.82 26.908 54.7149 26.7784 54.5824C26.6486 54.4499 26.5458 54.2927 26.4755 54.1197C26.4053 53.9465 26.3692 53.761 26.3692 53.5737Z" fill="#E2E2E2"/>
<path d="M32.678 73.6815C32.678 73.3993 32.76 73.1234 32.9135 72.8889C33.067 72.6543 33.2851 72.4714 33.5403 72.3634C33.7955 72.2554 34.0763 72.2272 34.3473 72.2823C34.6182 72.3373 34.8671 72.4731 35.0624 72.6727C35.2577 72.8722 35.3908 73.1264 35.4447 73.4031C35.4986 73.6799 35.471 73.9667 35.3653 74.2274C35.2595 74.488 35.0805 74.7109 34.8508 74.8677C34.6211 75.0243 34.3511 75.108 34.0748 75.108C33.8913 75.1082 33.7096 75.0715 33.5401 74.9999C33.3705 74.9283 33.2164 74.8232 33.0867 74.6907C32.9569 74.5582 32.8541 74.4008 32.7839 74.2277C32.7138 74.0545 32.6779 73.8688 32.678 73.6815Z" fill="#E2E2E2"/>
<path d="M53.379 73.7483C53.379 73.4662 53.461 73.1904 53.6144 72.9558C53.7679 72.7211 53.9861 72.5383 54.2413 72.4303C54.4964 72.3223 54.7773 72.2941 55.0483 72.3491C55.3192 72.4042 55.568 72.54 55.7634 72.7395C55.9587 72.9391 56.0918 73.1933 56.1457 73.4701C56.1996 73.7467 56.1719 74.0336 56.0662 74.2943C55.9604 74.555 55.7815 74.7777 55.5518 74.9345C55.322 75.0912 55.0521 75.1749 54.7758 75.1749C54.4053 75.1749 54.0501 75.0246 53.7881 74.757C53.5262 74.4895 53.379 74.1266 53.379 73.7483Z" fill="#E2E2E2"/>
<path d="M59.703 53.6406C59.703 53.3584 59.7849 53.0825 59.9384 52.848C60.0918 52.6134 60.31 52.4305 60.5652 52.3225C60.8205 52.2145 61.1013 52.1863 61.3722 52.2414C61.6432 52.2965 61.8921 52.4322 62.0874 52.6318C62.2827 52.8313 62.4157 53.0855 62.4696 53.3622C62.5236 53.639 62.4958 53.9258 62.3901 54.1865C62.2845 54.4472 62.1054 54.6699 61.8757 54.8267C61.6461 54.9834 61.376 55.0671 61.0997 55.0671C60.9163 55.0673 60.7345 55.0306 60.5649 54.959C60.3954 54.8874 60.2413 54.7823 60.1116 54.6498C59.9818 54.5173 59.879 54.3599 59.8088 54.1867C59.7388 54.0136 59.7028 53.828 59.703 53.6406Z" fill="#E2E2E2"/>
</g>
<defs>
<clipPath id="clip0_716_1312">
<rect width="89" height="118" fill="white"/>
</clipPath>
</defs>
</svg>
