<svg width="13" height="11" viewBox="0 0 13 11" fill="none" xmlns="http://www.w3.org/2000/svg">
<path d="M7.55357 1.8762L2.00756 7.01261C1.90232 7.11007 1.72438 7.10541 1.62589 7.00261L0.246849 5.56316C0.207775 5.52237 0.186339 5.47071 0.186339 5.41733V0.226027C0.186339 0.101196 0.301147 0 0.44277 0H6.00416C6.08183 0 6.1553 0.0310226 6.20398 0.0843628L7.56763 1.57871C7.64818 1.66697 7.64216 1.79415 7.55357 1.8762Z" fill="#9D9D9D"/>
<path d="M12.3347 2.15295L9.14268 2.18387C9.07275 2.18455 9.00617 2.21037 8.95835 2.25537L0.0697894 10.6195C-0.0836439 10.7638 0.032501 11 0.256939 11H3.40535C3.47826 11 3.54773 10.9726 3.59637 10.9248L5.88293 8.67418C5.98843 8.57034 6.17438 8.5746 6.27361 8.68313L8.31514 10.9158C8.36382 10.969 8.43723 11 8.5148 11H12.2943C12.5178 11 12.6343 10.7655 12.4828 10.6207L8.46573 6.78215C8.37568 6.6961 8.37507 6.56368 8.46433 6.477L12.5274 2.53087C12.6779 2.38476 12.5586 2.15078 12.3347 2.15295Z" fill="#9D9D9D"/>
</svg>
