<svg width="12" height="12" viewBox="0 0 12 12" fill="none" xmlns="http://www.w3.org/2000/svg">
<path d="M4.71456 8.64345C5.75656 8.64345 6.75589 8.22951 7.4927 7.4927C8.22951 6.75589 8.64345 5.75656 8.64345 4.71456C8.64345 3.67255 8.22951 2.67322 7.4927 1.93641C6.75589 1.1996 5.75656 0.785663 4.71456 0.785663C3.67255 0.785663 2.67322 1.1996 1.93641 1.93641C1.1996 2.67322 0.785663 3.67255 0.785663 4.71456C0.785663 5.75656 1.1996 6.75589 1.93641 7.4927C2.67322 8.22951 3.67255 8.64345 4.71456 8.64345ZM8.36528 7.69816L12 11.3329L11.3329 12L7.69816 8.36528C6.76161 9.13068 5.56673 9.50686 4.36062 9.41603C3.15451 9.3252 2.02944 8.7743 1.21809 7.87727C0.406742 6.98024 -0.0288211 5.8057 0.00148139 4.59656C0.0317839 3.38741 0.525634 2.23616 1.3809 1.3809C2.23616 0.525634 3.38741 0.0317839 4.59656 0.00148139C5.8057 -0.0288211 6.98024 0.406742 7.87727 1.21809C8.7743 2.02944 9.3252 3.15451 9.41603 4.36062C9.50686 5.56673 9.13068 6.76161 8.36528 7.69816Z" fill="white"/>
</svg>
