<svg width="27" height="22" viewBox="0 0 27 22" fill="none" xmlns="http://www.w3.org/2000/svg">
<path d="M13.3837 2.13375L11.7988 0.54875C11.4475 0.1975 10.9706 0 10.4731 0H1.25C0.559375 0 0 0.559375 0 1.25V20C0 20.6906 0.559375 21.25 1.25 21.25H25C25.6906 21.25 26.25 20.6906 26.25 20V3.75C26.25 3.05938 25.6906 2.5 25 2.5H14.2675C13.9362 2.5 13.6181 2.36813 13.3837 2.13375Z" fill="url(#paint0_linear_699_118)"/>
<path d="M1.75586 4.2041V12.796C1.75586 13.0731 1.87084 13.3378 2.07339 13.5269L4.16459 15.4795C4.40358 15.7027 4.73658 15.7949 5.05632 15.7265L19.6822 12.5965C19.9134 12.547 20.1197 12.4172 20.2642 12.23L24.284 7.02681C24.4193 6.85172 24.4927 6.63671 24.4927 6.41545V4.2041C24.4927 3.65182 24.045 3.2041 23.4927 3.2041H2.75586C2.20357 3.2041 1.75586 3.65182 1.75586 4.2041Z" fill="white"/>
<path d="M11.6163 4.63375L13.6588 2.59125C13.7169 2.53312 13.7963 2.5 13.8794 2.5H25C25.6906 2.5 26.25 3.05937 26.25 3.75V20C26.25 20.6906 25.6906 21.25 25 21.25H1.25C0.559375 21.25 0 20.6906 0 20V5.3125C0 5.14 0.14 5 0.3125 5H10.7325C11.0638 5 11.3819 4.86812 11.6163 4.63375Z" fill="url(#paint1_linear_699_118)"/>
<defs>
<linearGradient id="paint0_linear_699_118" x1="13.125" y1="-0.1825" x2="13.125" y2="4.98563" gradientUnits="userSpaceOnUse">
<stop stop-color="#EB0000"/>
<stop offset="1" stop-color="#C20000"/>
</linearGradient>
<linearGradient id="paint1_linear_699_118" x1="13.125" y1="2.40875" x2="13.125" y2="21.2394" gradientUnits="userSpaceOnUse">
<stop stop-color="#FF6969"/>
<stop offset="1" stop-color="#FE2B2B"/>
</linearGradient>
</defs>
</svg>
