<svg width="9" height="8" viewBox="0 0 9 8" fill="none" xmlns="http://www.w3.org/2000/svg">
<path d="M4.46125 0.71125L3.93292 0.182917C3.81583 0.0658333 3.65687 0 3.49104 0H0.416667C0.186458 0 0 0.186458 0 0.416667V6.66667C0 6.89688 0.186458 7.08333 0.416667 7.08333H8.33333C8.56354 7.08333 8.75 6.89688 8.75 6.66667V1.25C8.75 1.01979 8.56354 0.833333 8.33333 0.833333H4.75583C4.64542 0.833333 4.53937 0.789375 4.46125 0.71125Z" fill="url(#paint0_linear_699_69)"/>
<path d="M0.585938 2.06787V3.97555C0.585938 4.25266 0.700923 4.51734 0.903463 4.70646L1.13456 4.92224C1.37355 5.1454 1.70655 5.23762 2.0263 5.16919L6.3226 4.24978C6.55386 4.20029 6.7601 4.07044 6.90468 3.88329L7.98067 2.49053C8.1001 2.33594 8.16488 2.14611 8.16488 1.95076C8.16488 1.46316 7.7696 1.06787 7.28199 1.06787H1.58594C1.03365 1.06787 0.585938 1.51559 0.585938 2.06787Z" fill="white"/>
<path d="M3.87208 1.54426L4.55292 0.863424C4.57229 0.844049 4.59875 0.833008 4.62646 0.833008H8.33333C8.56354 0.833008 8.75 1.01947 8.75 1.24967V6.66634C8.75 6.89655 8.56354 7.08301 8.33333 7.08301H0.416667C0.186458 7.08301 0 6.89655 0 6.66634V1.77051C0 1.71301 0.0466667 1.66634 0.104167 1.66634H3.5775C3.68792 1.66634 3.79396 1.62238 3.87208 1.54426Z" fill="url(#paint1_linear_699_69)"/>
<defs>
<linearGradient id="paint0_linear_699_69" x1="4.375" y1="-0.0608333" x2="4.375" y2="1.66188" gradientUnits="userSpaceOnUse">
<stop stop-color="#EB0000"/>
<stop offset="1" stop-color="#C20000"/>
</linearGradient>
<linearGradient id="paint1_linear_699_69" x1="4.375" y1="0.802591" x2="4.375" y2="7.07947" gradientUnits="userSpaceOnUse">
<stop stop-color="#FF6969"/>
<stop offset="1" stop-color="#FE2B2B"/>
</linearGradient>
</defs>
</svg>
