<svg width="24" height="24" viewBox="0 0 24 24" fill="none" xmlns="http://www.w3.org/2000/svg">
<path d="M24 6.39998C24 5.75998 23.7867 5.22665 23.36 4.79998L19.2 0.63998C18.7734 0.213314 18.2534 -1.90735e-05 17.64 -1.90735e-05C17.0267 -1.90735e-05 16.5067 0.213314 16.08 0.63998L12.72 3.91998V3.75998C12.72 3.11998 12.5067 2.58665 12.08 2.15998C11.6534 1.73331 11.12 1.51998 10.48 1.51998H3.76002C3.12002 1.51998 2.58669 1.73331 2.16002 2.15998C1.73335 2.58665 1.52002 3.11998 1.52002 3.75998V20.24C1.52002 20.88 1.73335 21.4133 2.16002 21.84C2.58669 22.2666 3.12002 22.48 3.76002 22.48H20.24C20.88 22.48 21.4134 22.2666 21.84 21.84C22.2667 21.4133 22.48 20.88 22.48 20.24V13.52C22.48 12.88 22.2667 12.3466 21.84 11.92C21.4134 11.4933 20.88 11.28 20.24 11.28H20.08L23.36 7.91998C23.7867 7.49331 24 6.98665 24 6.39998ZM3.76002 2.95998H10.48C10.6934 2.95998 10.88 3.03998 11.04 3.19998C11.2 3.35998 11.28 3.54665 11.28 3.75998V11.28H3.04002V3.75998C2.98669 3.54665 3.04002 3.35998 3.20002 3.19998C3.36002 3.03998 3.54669 2.95998 3.76002 2.95998ZM3.04002 20.24V12.72H11.28V20.96H3.76002C3.54669 20.96 3.37335 20.8933 3.24002 20.76C3.10669 20.6266 3.04002 20.4533 3.04002 20.24ZM21.04 13.52V20.24C21.04 20.4533 20.96 20.6266 20.8 20.76C20.64 20.8933 20.4534 20.96 20.24 20.96H12.72V12.72H20.24C20.4534 12.72 20.64 12.8 20.8 12.96C20.96 13.12 21.04 13.3066 21.04 13.52ZM12.72 11.28V8.79998L15.2 11.28H12.72ZM22.32 6.87998L18.16 11.04C18 11.2 17.8134 11.28 17.6 11.28C17.3867 11.28 17.2267 11.2 17.12 11.04L12.96 6.87998C12.8 6.71998 12.72 6.54665 12.72 6.35998C12.72 6.17332 12.8 5.99998 12.96 5.83998L17.12 1.67998C17.28 1.57331 17.4534 1.51998 17.64 1.51998C17.8267 1.51998 18 1.57331 18.16 1.67998L22.32 5.83998C22.4267 5.99998 22.48 6.17332 22.48 6.35998C22.48 6.54665 22.4267 6.71998 22.32 6.87998Z" fill="#868686"/>
</svg>
