<svg width="24" height="24" viewBox="0 0 24 24" fill="none" xmlns="http://www.w3.org/2000/svg">
<path d="M12 8.95998C11.1467 8.95998 10.44 9.25331 9.87999 9.83998C9.31999 10.4266 9.03999 11.1466 9.03999 12C9.03999 12.8533 9.31999 13.56 9.87999 14.12C10.44 14.68 11.1467 14.96 12 14.96C12.8533 14.96 13.5733 14.68 14.16 14.12C14.7467 13.56 15.04 12.8533 15.04 12C15.04 11.1466 14.7467 10.4266 14.16 9.83998C13.5733 9.25331 12.8533 8.95998 12 8.95998ZM12 13.52C11.5733 13.52 11.2133 13.3733 10.92 13.08C10.6267 12.7866 10.48 12.4266 10.48 12C10.48 11.5733 10.6267 11.2133 10.92 10.92C11.2133 10.6266 11.5733 10.48 12 10.48C12.4267 10.48 12.7867 10.6266 13.08 10.92C13.3733 11.2133 13.52 11.5733 13.52 12C13.52 12.4266 13.3733 12.7866 13.08 13.08C12.7867 13.3733 12.4267 13.52 12 13.52ZM21.84 14.56L19.92 12.96L19.76 12.8C19.5467 12.5333 19.4533 12.2266 19.48 11.88C19.5067 11.5333 19.6533 11.2533 19.92 11.04L21.84 9.43998C22.0533 9.27998 22.1067 9.06665 22 8.79998C21.5733 7.35998 20.8533 6.07998 19.84 4.95998C19.7333 4.79998 19.5733 4.71998 19.36 4.71998L19.12 4.79998L16.56 5.67998H16.4C16.08 5.67998 15.8 5.58665 15.56 5.39998C15.32 5.21331 15.1733 4.98665 15.12 4.71998L14.72 2.23998C14.6667 1.97331 14.5067 1.81331 14.24 1.75998C13.4933 1.59998 12.7467 1.51998 12 1.51998C11.2533 1.51998 10.5067 1.59998 9.75999 1.75998C9.49332 1.81331 9.33332 1.97331 9.27999 2.23998L8.79999 4.87998C8.69332 5.14665 8.53332 5.34665 8.31999 5.47998C8.10666 5.61331 7.89332 5.67998 7.67999 5.67998C7.51999 5.67998 7.35999 5.67998 7.19999 5.67998L4.87999 4.79998L4.63999 4.71998C4.42666 4.71998 4.26666 4.79998 4.15999 4.95998C3.14666 6.07998 2.42666 7.35998 1.99999 8.79998C1.89332 9.06665 1.94666 9.27998 2.15999 9.43998L4.23999 11.2C4.45332 11.4666 4.54666 11.7733 4.51999 12.12C4.49332 12.4666 4.34666 12.7466 4.07999 12.96L2.15999 14.56C1.94666 14.7733 1.89332 14.9866 1.99999 15.2C2.42666 16.64 3.14666 17.92 4.15999 19.04C4.26666 19.2 4.42666 19.28 4.63999 19.28L4.87999 19.2L7.43999 18.32H7.67999C7.94665 18.32 8.19999 18.4133 8.43999 18.6C8.67999 18.7866 8.82665 19.0133 8.87999 19.28L9.27999 21.76C9.33332 22.0266 9.49332 22.1866 9.75999 22.24C10.5067 22.4 11.2533 22.48 12 22.48C12.7467 22.48 13.4933 22.4 14.24 22.24C14.5067 22.1866 14.6667 22.0266 14.72 21.76L15.2 19.12C15.3067 18.8533 15.4667 18.6533 15.68 18.52C15.8933 18.3866 16.1333 18.32 16.4 18.32C16.5067 18.32 16.64 18.32 16.8 18.32L19.12 19.2L19.36 19.28C19.5733 19.28 19.7333 19.2 19.84 19.04C20.8533 17.92 21.5733 16.64 22 15.2C22.1067 14.9866 22.0533 14.7733 21.84 14.56ZM19.12 17.6L17.28 16.96C16.96 16.8533 16.6667 16.8 16.4 16.8C15.8133 16.8 15.28 16.96 14.8 17.28C14.32 17.6 13.9733 18.0266 13.76 18.56L13.68 19.04L13.36 20.88C12.88 20.9333 12.4267 20.96 12 20.96C11.5733 20.96 11.1467 20.9333 10.72 20.88L10.32 19.04C10.2133 18.4 9.90665 17.8666 9.39999 17.44C8.89332 17.0133 8.31999 16.8 7.67999 16.8H7.11999L6.71999 16.96L4.87999 17.6C4.34666 16.9066 3.91999 16.16 3.59999 15.36L5.03999 14.08C5.62666 13.6 5.94666 12.9866 5.99999 12.24C6.05332 11.4933 5.83999 10.8266 5.35999 10.24L5.03999 9.91998L3.59999 8.63998C3.91999 7.83998 4.34666 7.09331 4.87999 6.39998L6.71999 7.03998C7.03999 7.14665 7.35999 7.19998 7.67999 7.19998C8.21332 7.19998 8.71999 7.03998 9.19999 6.71998C9.67999 6.39998 10.0267 5.97331 10.24 5.43998L10.32 4.95998L10.72 3.11998C11.1467 3.01331 11.5733 2.95998 12 2.95998C12.4267 2.95998 12.88 3.01331 13.36 3.11998L13.68 4.95998C13.7867 5.59998 14.0933 6.13331 14.6 6.55998C15.1067 6.98665 15.68 7.19998 16.32 7.19998H16.88L17.28 7.03998L19.12 6.39998C19.6533 7.09331 20.08 7.83998 20.4 8.63998L18.96 9.91998C18.3733 10.4 18.0533 11.0133 18 11.76C17.9467 12.5066 18.16 13.1733 18.64 13.76L18.96 14.08L20.4 15.28C20.08 16.1333 19.6533 16.9066 19.12 17.6Z" fill="#868686"/>
</svg>
