<svg width="16" height="16" viewBox="0 0 16 16" fill="none" xmlns="http://www.w3.org/2000/svg">
<path d="M3.73339 2.98672C3.52006 2.98672 3.34228 3.05783 3.20006 3.20006C3.05783 3.34228 2.98672 3.52006 2.98672 3.73339V5.49339C2.98672 5.63561 2.94228 5.75117 2.85339 5.84006C2.7645 5.92894 2.64894 5.97339 2.50672 5.97339C2.3645 5.97339 2.24894 5.92894 2.16006 5.84006C2.07117 5.75117 2.00894 5.63561 1.97339 5.49339V3.73339C2.00894 3.27117 2.19561 2.86228 2.53339 2.50672C2.87117 2.15117 3.27117 1.97339 3.73339 1.97339H5.49339C5.63561 1.97339 5.76006 2.02672 5.86672 2.13339C5.97339 2.24006 6.02672 2.3645 6.02672 2.50672C6.02672 2.64894 5.97339 2.7645 5.86672 2.85339C5.76006 2.94228 5.63561 2.98672 5.49339 2.98672H3.73339ZM10.0267 2.50672C10.0267 2.3645 10.0712 2.24006 10.1601 2.13339C10.2489 2.02672 10.3645 1.97339 10.5067 1.97339H12.2667C12.7289 1.97339 13.1378 2.15117 13.4934 2.50672C13.8489 2.86228 14.0267 3.27117 14.0267 3.73339V5.49339C14.0267 5.63561 13.9734 5.75117 13.8667 5.84006C13.7601 5.92894 13.6356 5.98228 13.4934 6.00006C13.3512 6.01783 13.2356 5.97339 13.1467 5.86672C13.0578 5.76006 13.0134 5.63561 13.0134 5.49339V3.73339C13.0134 3.52006 12.9423 3.34228 12.8001 3.20006C12.6578 3.05783 12.4801 2.98672 12.2667 2.98672H10.5067C10.3645 2.98672 10.2489 2.94228 10.1601 2.85339C10.0712 2.7645 10.0267 2.64894 10.0267 2.50672ZM2.50672 9.97339C2.64894 9.97339 2.7645 10.0267 2.85339 10.1334C2.94228 10.2401 2.98672 10.3645 2.98672 10.5067V12.2667C2.98672 12.4801 3.05783 12.6578 3.20006 12.8001C3.34228 12.9423 3.52006 13.0134 3.73339 13.0134H5.49339C5.63561 13.0134 5.76006 13.0578 5.86672 13.1467C5.97339 13.2356 6.01783 13.3512 6.00006 13.4934C5.98228 13.6356 5.92894 13.7512 5.84006 13.8401C5.75117 13.9289 5.63561 13.9734 5.49339 13.9734H3.73339C3.27117 13.9734 2.87117 13.8045 2.53339 13.4667C2.19561 13.1289 2.02672 12.7289 2.02672 12.2667V10.5067C2.02672 10.3645 2.07117 10.2401 2.16006 10.1334C2.24894 10.0267 2.3645 9.97339 2.50672 9.97339ZM13.4934 9.97339C13.6356 10.0089 13.7601 10.0712 13.8667 10.1601C13.9734 10.2489 14.0267 10.3645 14.0267 10.5067V12.2667C14.0267 12.7289 13.8489 13.1289 13.4934 13.4667C13.1378 13.8045 12.7289 13.9734 12.2667 13.9734H10.5067C10.3645 13.9734 10.2489 13.9289 10.1601 13.8401C10.0712 13.7512 10.0267 13.6356 10.0267 13.4934C10.0267 13.3512 10.0712 13.2356 10.1601 13.1467C10.2489 13.0578 10.3645 13.0134 10.5067 13.0134H12.2667C12.4801 13.0134 12.6578 12.9423 12.8001 12.8001C12.9423 12.6578 13.0134 12.4801 13.0134 12.2667V10.5067C13.0134 10.3645 13.0578 10.2489 13.1467 10.1601C13.2356 10.0712 13.3512 10.0089 13.4934 9.97339Z" fill="#CCCCCC"/>
</svg>
