<svg width="9" height="9" viewBox="0 0 9 9" fill="none" xmlns="http://www.w3.org/2000/svg">
<path d="M5.17333 4.47996L8.85333 0.853294C8.92444 0.746628 8.96 0.622183 8.96 0.47996C8.96 0.337738 8.91556 0.222183 8.82667 0.133294C8.73778 0.0444052 8.62222 -3.91006e-05 8.48 -3.91006e-05C8.33778 -3.91006e-05 8.21333 0.0355164 8.10667 0.106627L4.48 3.78663L0.853333 0.106627C0.746667 0.0355164 0.622222 -3.91006e-05 0.48 -3.91006e-05C0.337778 -3.91006e-05 0.222222 0.0444052 0.133333 0.133294C0.0444444 0.222183 0 0.337738 0 0.47996C0 0.622183 0.0355556 0.746628 0.106667 0.853294L3.78667 4.47996L0.106667 8.10663C0.0355556 8.21329 0 8.33774 0 8.47996C0 8.62218 0.0444444 8.73774 0.133333 8.82663C0.222222 8.91552 0.337778 8.95996 0.48 8.95996C0.622222 8.95996 0.746667 8.92441 0.853333 8.85329L4.48 5.17329L8.10667 8.85329C8.21333 8.92441 8.33778 8.95996 8.48 8.95996C8.62222 8.95996 8.73778 8.91552 8.82667 8.82663C8.91556 8.73774 8.96 8.62218 8.96 8.47996C8.96 8.33774 8.92444 8.21329 8.85333 8.10663L5.17333 4.47996Z" fill="#CCCCCC"/>
</svg>
