<svg width="16" height="16" viewBox="0 0 16 16" fill="none" xmlns="http://www.w3.org/2000/svg">
<path d="M14.9865 12.4801C14.9865 13.1913 14.7465 13.7868 14.2665 14.2668C13.7865 14.7468 13.191 14.9868 12.4799 14.9868H3.51985C2.80874 14.9868 2.21318 14.7468 1.73318 14.2668C1.25318 13.7868 1.01318 13.1913 1.01318 12.4801V3.52015C1.01318 2.80904 1.25318 2.21348 1.73318 1.73348C2.21318 1.25348 2.80874 1.01348 3.51985 1.01348H12.4799C13.191 1.01348 13.7865 1.25348 14.2665 1.73348C14.7465 2.21348 14.9865 2.80904 14.9865 3.52015V12.4801ZM2.02652 9.97348H14.0265V3.52015C14.0265 3.09348 13.8754 2.73793 13.5732 2.45348C13.271 2.16904 12.9065 2.02682 12.4799 2.02682H3.51985C3.09318 1.99126 2.73763 2.12459 2.45318 2.42682C2.16874 2.72904 2.00874 3.09348 1.97318 3.52015V9.97348H2.02652Z" fill="#9D9D9D"/>
</svg>
