<svg width="16" height="16" viewBox="0 0 16 16" fill="none" xmlns="http://www.w3.org/2000/svg">
<path d="M1.01318 3.52015V12.4801C1.01318 13.1913 1.25318 13.7868 1.73318 14.2668C2.21318 14.7468 2.80874 14.9868 3.51985 14.9868H12.4799C13.191 14.9868 13.7865 14.7468 14.2665 14.2668C14.7465 13.7868 14.9865 13.1913 14.9865 12.4801V3.52015C14.9865 2.80904 14.7465 2.21348 14.2665 1.73348C13.7865 1.25348 13.191 1.01348 12.4799 1.01348H3.51985C2.80874 1.01348 2.21318 1.25348 1.73318 1.73348C1.25318 2.21348 1.01318 2.80904 1.01318 3.52015ZM12.4799 13.9735H6.98652V1.97348H12.4799C12.9065 1.97348 13.271 2.12459 13.5732 2.42682C13.8754 2.72904 14.0265 3.09348 14.0265 3.52015V12.4801C14.0265 12.9068 13.8754 13.2624 13.5732 13.5468C13.271 13.8313 12.9065 13.9735 12.4799 13.9735ZM2.02652 3.52015C2.02652 3.09348 2.16874 2.72904 2.45318 2.42682C2.73763 2.12459 3.09318 1.97348 3.51985 1.97348H6.02652V13.9735H3.51985C3.09318 13.9735 2.73763 13.8313 2.45318 13.5468C2.16874 13.2624 2.02652 12.9068 2.02652 12.4801V3.52015Z" fill="#9D9D9D"/>
</svg>
