<svg width="16" height="16" viewBox="0 0 16 16" fill="none" xmlns="http://www.w3.org/2000/svg">
<path d="M5.49318 1.01348C5.91985 1.01348 6.27541 1.1557 6.55985 1.44015C6.84429 1.72459 6.98652 2.08015 6.98652 2.50682V13.4935C6.98652 13.9201 6.84429 14.2757 6.55985 14.5601C6.27541 14.8446 5.91985 14.9868 5.49318 14.9868H2.50652C2.07985 14.9868 1.72429 14.8446 1.43985 14.5601C1.15541 14.2757 1.01318 13.9201 1.01318 13.4935V2.50682C1.01318 2.08015 1.15541 1.72459 1.43985 1.44015C1.72429 1.1557 2.07985 1.01348 2.50652 1.01348H5.49318ZM2.50652 1.97348C2.36429 1.97348 2.24874 2.02682 2.15985 2.13348C2.07096 2.24015 2.02652 2.36459 2.02652 2.50682V13.4935C2.02652 13.6357 2.07096 13.7513 2.15985 13.8401C2.24874 13.929 2.36429 13.9735 2.50652 13.9735H5.49318C5.63541 13.9735 5.75985 13.929 5.86652 13.8401C5.97318 13.7513 6.02652 13.6357 6.02652 13.4935V2.50682C6.02652 2.36459 5.97318 2.24015 5.86652 2.13348C5.75985 2.02682 5.63541 1.97348 5.49318 1.97348H2.50652ZM13.4932 9.01348C13.9199 9.01348 14.2754 9.15571 14.5599 9.44015C14.8443 9.72459 14.9865 10.0801 14.9865 10.5068V13.4935C14.9865 13.9201 14.8443 14.2757 14.5599 14.5601C14.2754 14.8446 13.9199 14.9868 13.4932 14.9868H10.5065C10.0799 14.9868 9.72429 14.8446 9.43985 14.5601C9.15541 14.2757 9.01318 13.9201 9.01318 13.4935V10.5068C9.01318 10.0801 9.15541 9.72459 9.43985 9.44015C9.72429 9.15571 10.0799 9.01348 10.5065 9.01348H13.4932ZM10.5065 9.97348C10.3643 9.97348 10.2487 10.0268 10.1599 10.1335C10.071 10.2401 10.0265 10.3646 10.0265 10.5068V13.4935C10.0265 13.6357 10.071 13.7513 10.1599 13.8401C10.2487 13.929 10.3643 13.9735 10.5065 13.9735H13.4932C13.6354 13.9735 13.7599 13.929 13.8665 13.8401C13.9732 13.7513 14.0265 13.6357 14.0265 13.4935V10.5068C14.0265 10.3646 13.9732 10.2401 13.8665 10.1335C13.7599 10.0268 13.6354 9.97348 13.4932 9.97348H10.5065ZM13.4932 1.01348C13.9199 1.01348 14.2754 1.1557 14.5599 1.44015C14.8443 1.72459 14.9865 2.08015 14.9865 2.50682V5.49348C14.9865 5.92015 14.8443 6.27571 14.5599 6.56015C14.2754 6.84459 13.9199 6.98682 13.4932 6.98682H10.5065C10.0799 6.98682 9.72429 6.84459 9.43985 6.56015C9.15541 6.27571 9.01318 5.92015 9.01318 5.49348V2.50682C9.01318 2.08015 9.15541 1.72459 9.43985 1.44015C9.72429 1.1557 10.0799 1.01348 10.5065 1.01348H13.4932ZM10.5065 1.97348C10.3643 1.97348 10.2487 2.02682 10.1599 2.13348C10.071 2.24015 10.0265 2.36459 10.0265 2.50682V5.49348C10.0265 5.63571 10.071 5.75126 10.1599 5.84015C10.2487 5.92904 10.3643 5.97348 10.5065 5.97348H13.4932C13.6354 5.97348 13.7599 5.92904 13.8665 5.84015C13.9732 5.75126 14.0265 5.63571 14.0265 5.49348V2.50682C14.0265 2.36459 13.9732 2.24015 13.8665 2.13348C13.7599 2.02682 13.6354 1.97348 13.4932 1.97348H10.5065Z" fill="#9D9D9D"/>
</svg>
