<svg width="22" height="22" viewBox="0 0 22 22" fill="none" xmlns="http://www.w3.org/2000/svg">
<g opacity="0.8">
<path d="M11.7734 12.7799C11.3378 13.1533 10.8556 13.4333 10.3267 13.6199C9.79783 13.8066 9.25339 13.8999 8.69339 13.8999C7.82227 13.8999 7.01339 13.6821 6.26672 13.2466C5.52005 12.811 4.93672 12.2277 4.51672 11.4966C4.09672 10.7655 3.88672 9.96436 3.88672 9.09325C3.88672 8.22214 4.09672 7.41325 4.51672 6.66659C4.93672 5.91992 5.52005 5.33659 6.26672 4.91659C7.01339 4.49659 7.82227 4.28659 8.69339 4.28659C9.5645 4.28659 10.3656 4.49659 11.0967 4.91659C11.8278 5.33659 12.4112 5.91992 12.8467 6.66659C13.2823 7.41325 13.5001 8.22214 13.5001 9.09325C13.5001 9.65325 13.4067 10.1977 13.2201 10.7266C13.0334 11.2555 12.7534 11.7377 12.3801 12.1733L15.1334 14.8799C15.1956 14.9733 15.2267 15.0821 15.2267 15.2066C15.2267 15.331 15.1878 15.4321 15.1101 15.5099C15.0323 15.5877 14.9312 15.6266 14.8067 15.6266C14.6823 15.6266 14.5734 15.5955 14.4801 15.5333L11.7734 12.7799ZM12.6134 9.09325C12.6134 8.3777 12.4423 7.71659 12.1001 7.10992C11.7578 6.50325 11.2834 6.02881 10.6767 5.68659C10.0701 5.34436 9.40894 5.16548 8.69339 5.14992C7.97783 5.13436 7.31672 5.30548 6.71005 5.66325C6.10339 6.02103 5.62116 6.50325 5.26339 7.10992C4.90561 7.71659 4.7345 8.3777 4.75005 9.09325C4.76561 9.80881 4.9445 10.4699 5.28672 11.0766C5.62894 11.6833 6.10339 12.1577 6.71005 12.4999C7.31672 12.8421 7.97783 13.0133 8.69339 13.0133C9.40894 13.0133 10.0701 12.8421 10.6767 12.4999C11.2834 12.1577 11.7578 11.6833 12.1001 11.0766C12.4423 10.4699 12.6134 9.80881 12.6134 9.09325Z" fill="#9D9D9D"/>
</g>
</svg>
