<svg width="118" height="111" viewBox="0 0 118 111" fill="none" xmlns="http://www.w3.org/2000/svg">
<path d="M69.4576 19.3226L21.3135 69.9087C20.0823 71.2024 18.0005 71.1405 16.8483 69.7761L5.32412 56.129C4.86699 55.5877 4.61621 54.902 4.61621 54.1934V3C4.61621 1.34315 5.95935 0 7.61621 0H55.819C56.7275 0 57.5872 0.411756 58.1566 1.11972L69.6221 15.3741C70.5643 16.5456 70.494 18.2336 69.4576 19.3226Z" fill="#FE1800"/>
<path d="M110.594 21.6616L84.2885 21.9507C83.4703 21.9597 82.6913 22.3025 82.132 22.8996L4.73121 105.53C2.93618 107.447 4.29497 110.581 6.92069 110.581H32.8144C33.6674 110.581 34.4802 110.218 35.0492 109.583L54.5219 87.8382C55.7562 86.46 57.9316 86.5165 59.0926 87.957L76.4265 109.464C76.996 110.171 77.8548 110.581 78.7623 110.581H110.242C112.857 110.581 114.22 107.469 112.447 105.547L78.4308 68.6694C77.3773 67.5272 77.3702 65.7697 78.4144 64.6192L112.849 26.6776C114.609 24.7383 113.213 21.6328 110.594 21.6616Z" fill="#FE1800"/>
</svg>
