<svg width="24" height="24" viewBox="0 0 24 24" fill="none" xmlns="http://www.w3.org/2000/svg">
<path d="M12 2.95998C10.3467 2.95998 8.84002 3.37331 7.48002 4.19998C6.12002 5.02665 5.04002 6.11998 4.24002 7.47998C3.44002 8.83998 3.04002 10.3466 3.04002 12C3.04002 13.6533 3.44002 15.16 4.24002 16.52C5.04002 17.88 6.12002 18.96 7.48002 19.76C8.84002 20.56 10.3467 20.96 12 20.96C13.6534 20.96 15.16 20.56 16.52 19.76C17.88 18.96 18.9734 17.88 19.8 16.52C20.6267 15.16 21.04 13.6533 21.04 12C21.04 10.3466 20.6267 8.83998 19.8 7.47998C18.9734 6.11998 17.88 5.02665 16.52 4.19998C15.16 3.37331 13.6534 2.95998 12 2.95998ZM1.52002 12C1.52002 10.08 1.98669 8.31998 2.92002 6.71998C3.85335 5.11998 5.12002 3.85331 6.72002 2.91998C8.32002 1.98665 10.08 1.51998 12 1.51998C13.92 1.51998 15.68 1.98665 17.28 2.91998C18.88 3.85331 20.1467 5.11998 21.08 6.71998C22.0134 8.31998 22.48 10.08 22.48 12C22.48 13.92 22.0134 15.68 21.08 17.28C20.1467 18.88 18.88 20.1466 17.28 21.08C15.68 22.0133 13.92 22.48 12 22.48C10.08 22.48 8.32002 22.0133 6.72002 21.08C5.12002 20.1466 3.85335 18.88 2.92002 17.28C1.98669 15.68 1.52002 13.92 1.52002 12ZM12 18.4C13.4934 18.4 14.7467 17.9733 15.76 17.12C16.7734 16.2666 17.28 15.1733 17.28 13.84C17.28 13.3066 17.0934 12.8666 16.72 12.52C16.3467 12.1733 15.92 12 15.44 12H8.56002C8.08002 12 7.65335 12.1733 7.28002 12.52C6.90669 12.8666 6.72002 13.3066 6.72002 13.84C6.72002 15.1733 7.22669 16.2666 8.24002 17.12C9.25335 17.9733 10.5067 18.4 12 18.4ZM12 10.88C12.8 10.88 13.4667 10.6 14 10.04C14.5334 9.47998 14.8 8.81331 14.8 8.03998C14.8 7.26665 14.5334 6.61331 14 6.07998C13.4667 5.54665 12.8 5.27998 12 5.27998C11.2 5.27998 10.5334 5.54665 10 6.07998C9.46669 6.61331 9.20002 7.26665 9.20002 8.03998C9.20002 8.81331 9.46669 9.47998 10 10.04C10.5334 10.6 11.2 10.88 12 10.88Z" fill="#868686"/>
</svg>
