<svg width="24" height="24" viewBox="0 0 24 24" fill="none" xmlns="http://www.w3.org/2000/svg">
<path d="M7.52002 22.48H17.6C17.3334 22.96 16.9734 23.3333 16.52 23.6C16.0667 23.8667 15.5734 24 15.04 24H7.52002C6.40002 24 5.38669 23.7333 4.48002 23.2C3.57335 22.6667 2.85335 21.9333 2.32002 21C1.78669 20.0667 1.52002 19.0667 1.52002 18V6C1.52002 5.46667 1.65335 4.97333 1.92002 4.52C2.18669 4.06667 2.56002 3.70667 3.04002 3.44V18C3.04002 19.2267 3.48002 20.28 4.36002 21.16C5.24002 22.04 6.29335 22.48 7.52002 22.48ZM21.04 8.16V18C21.04 18.8533 20.7467 19.5733 20.16 20.16C19.5734 20.7467 18.8534 21.04 18 21.04H7.52002C6.66669 20.9867 5.94669 20.68 5.36002 20.12C4.77335 19.56 4.48002 18.8533 4.48002 18V2.96C4.48002 2.16 4.77335 1.46667 5.36002 0.880001C5.94669 0.293333 6.66669 0 7.52002 0H12.88C13.52 0 14.0534 0.213333 14.48 0.640001L20.32 6.56C20.8 6.98667 21.0134 7.52 20.96 8.16H21.04ZM13.52 6.72C13.52 6.93333 13.5867 7.12 13.72 7.28C13.8534 7.44 14.0267 7.52 14.24 7.52H19.2L13.52 1.84V6.72ZM19.52 18V8.96H14.24C13.6 8.96 13.0667 8.74667 12.64 8.32C12.2134 7.89333 12 7.36 12 6.72V1.52H7.52002C7.09335 1.52 6.73335 1.66667 6.44002 1.96C6.14669 2.25333 6.00002 2.61333 6.00002 3.04V18C6.00002 18.4267 6.14669 18.7867 6.44002 19.08C6.73335 19.3733 7.09335 19.52 7.52002 19.52H18C18.4267 19.52 18.7867 19.3733 19.08 19.08C19.3734 18.7867 19.52 18.4267 19.52 18Z" fill="#D7D7D7"/>
</svg>
