<svg width="24" height="24" viewBox="0 0 24 24" fill="none" xmlns="http://www.w3.org/2000/svg">
<path d="M8.96488 19.2801C9.12488 19.7601 9.31155 20.2401 9.52488 20.7201H3.60488C3.39155 20.7201 3.21822 20.6534 3.08488 20.5201C2.95155 20.3868 2.88488 20.2134 2.88488 20.0001C2.88488 19.7868 2.95155 19.6134 3.08488 19.4801C3.21822 19.3468 3.39155 19.2801 3.60488 19.2801H5.76488V17.8401H2.88488C2.08488 17.8401 1.40488 17.5601 0.844883 17.0001C0.284883 16.4401 0.00488281 15.7601 0.00488281 14.9601V4.8801C0.00488281 4.0801 0.284883 3.4001 0.844883 2.8401C1.40488 2.2801 2.08488 2.0001 2.88488 2.0001H15.8449C16.6449 2.0001 17.3249 2.2801 17.8849 2.8401C18.4449 3.4001 18.7249 4.0801 18.7249 4.8801V9.5201C18.2449 9.3601 17.7649 9.25343 17.2849 9.2001V4.8801C17.2849 4.45343 17.1382 4.10676 16.8449 3.8401C16.5515 3.57343 16.2182 3.4401 15.8449 3.4401H2.88488C2.51155 3.4401 2.17822 3.57343 1.88488 3.8401C1.59155 4.10676 1.44488 4.45343 1.44488 4.8801V14.9601C1.44488 15.3334 1.59155 15.6668 1.88488 15.9601C2.17822 16.2534 2.51155 16.4001 2.88488 16.4001H8.64488V17.1201V17.8401H7.20488V19.2801H8.96488ZM23.0449 17.1201C23.0449 18.2934 22.7515 19.3734 22.1649 20.3601C21.5782 21.3468 20.7915 22.1334 19.8049 22.7201C18.8182 23.3068 17.7382 23.6001 16.5649 23.6001C15.3915 23.6001 14.3115 23.3068 13.3249 22.7201C12.3382 22.1334 11.5515 21.3468 10.9649 20.3601C10.3782 19.3734 10.0849 18.2934 10.0849 17.1201C10.0849 15.9468 10.3782 14.8668 10.9649 13.8801C11.5515 12.8934 12.3382 12.1068 13.3249 11.5201C14.3115 10.9334 15.3915 10.6401 16.5649 10.6401C17.7382 10.6401 18.8182 10.9334 19.8049 11.5201C20.7915 12.1068 21.5782 12.8934 22.1649 13.8801C22.7515 14.8668 23.0449 15.9468 23.0449 17.1201ZM16.5649 18.5601C16.5649 18.4534 16.5515 18.3601 16.5249 18.2801C16.4982 18.2001 16.4315 18.1068 16.3249 18.0001L14.1649 15.8401C14.0582 15.7334 13.8982 15.6801 13.6849 15.6801C13.4715 15.6801 13.2982 15.7468 13.1649 15.8801C13.0315 16.0134 12.9649 16.1868 12.9649 16.4001C12.9649 16.6134 13.0449 16.7734 13.2049 16.8801L14.8049 18.5601L13.2049 20.1601C13.0449 20.3201 12.9649 20.5068 12.9649 20.7201C12.9649 20.9334 13.0315 21.1068 13.1649 21.2401C13.2982 21.3734 13.4715 21.4401 13.6849 21.4401C13.8982 21.4401 14.0582 21.3601 14.1649 21.2001L16.3249 19.0401C16.4315 18.9868 16.4982 18.9201 16.5249 18.8401C16.5515 18.7601 16.5649 18.6668 16.5649 18.5601ZM18.3249 15.6801L19.9249 14.0001C20.0849 13.8934 20.1649 13.7334 20.1649 13.5201C20.1649 13.3068 20.0982 13.1334 19.9649 13.0001C19.8315 12.8668 19.6582 12.8001 19.4449 12.8001C19.2315 12.8001 19.0715 12.8534 18.9649 12.9601L16.8049 15.1201C16.6982 15.2268 16.6315 15.3201 16.6049 15.4001C16.5782 15.4801 16.5649 15.5734 16.5649 15.6801C16.5649 15.7868 16.5782 15.8801 16.6049 15.9601C16.6315 16.0401 16.6982 16.1068 16.8049 16.1601L18.9649 18.3201C19.0715 18.4801 19.2315 18.5601 19.4449 18.5601C19.6582 18.5601 19.8315 18.4934 19.9649 18.3601C20.0982 18.2268 20.1649 18.0534 20.1649 17.8401C20.1649 17.6268 20.0849 17.4401 19.9249 17.2801L18.3249 15.6801Z" fill="#868686"/>
</svg>
