<svg width="24" height="24" viewBox="0 0 24 24" fill="none" xmlns="http://www.w3.org/2000/svg">
<path d="M19.84 14L13.2 17.68C12.9333 17.2 12.5333 16.8533 12 16.64L19.12 12.64C19.3867 12.48 19.52 12.2667 19.52 12C19.52 11.7333 19.3867 11.52 19.12 11.36L7.12 4.56C6.85333 4.45333 6.6 4.46667 6.36 4.6C6.12 4.73333 6 4.96 6 5.28V10.48C5.52 10.48 5.01333 10.5867 4.48 10.8V5.28C4.48 4.69333 4.65333 4.2 5 3.8C5.34667 3.4 5.78667 3.14667 6.32 3.04C6.85333 2.93333 7.36 3.01333 7.84 3.28L19.84 10C20.32 10.32 20.6533 10.7333 20.84 11.24C21.0267 11.7467 21.0267 12.2533 20.84 12.76C20.6533 13.2667 20.32 13.68 19.84 14ZM10.48 16.08V18H11.28C11.4933 18 11.6667 18.0667 11.8 18.2C11.9333 18.3333 12 18.5067 12 18.72C12 18.9333 11.9333 19.12 11.8 19.28C11.6667 19.44 11.4933 19.52 11.28 19.52H10.48C10.48 20.0533 10.3733 20.5867 10.16 21.12L11.76 22.72C11.92 22.88 12 23.0667 12 23.28C12 23.4933 11.9333 23.6667 11.8 23.8C11.6667 23.9333 11.4933 24 11.28 24C11.0667 24 10.88 23.92 10.72 23.76L9.36 22.48C8.98667 22.96 8.49333 23.3333 7.88 23.6C7.26667 23.8667 6.64 24 6 24C5.36 24 4.73333 23.8667 4.12 23.6C3.50667 23.3333 3.01333 22.96 2.64 22.48L1.28 23.76C1.12 23.92 0.946667 24 0.76 24C0.573333 24 0.4 23.9333 0.24 23.8C0.08 23.6667 0 23.4933 0 23.28C0 23.0667 0.08 22.88 0.24 22.72L1.84 21.12C1.62667 20.5867 1.52 20.0533 1.52 19.52H0.72C0.506667 19.52 0.333333 19.44 0.2 19.28C0.0666667 19.12 0 18.9333 0 18.72C0 18.5067 0.0666667 18.3333 0.2 18.2C0.333333 18.0667 0.506667 18 0.72 18H1.52V16.08L0.24 14.8C0.08 14.64 0 14.4533 0 14.24C0 14.0267 0.0666667 13.8533 0.2 13.72C0.333333 13.5867 0.506667 13.52 0.72 13.52C0.933333 13.52 1.12 13.5733 1.28 13.68L2.56 14.96H3.04C3.04 14.16 3.32 13.4667 3.88 12.88C4.44 12.2933 5.14667 12 6 12C6.85333 12 7.57333 12.2933 8.16 12.88C8.74667 13.4667 9.04 14.1867 9.04 15.04H9.44L10.72 13.68C10.88 13.5733 11.0667 13.52 11.28 13.52C11.4933 13.52 11.6667 13.5867 11.8 13.72C11.9333 13.8533 12 14.0267 12 14.24C12 14.4533 11.92 14.64 11.76 14.8L10.48 16.08ZM4.48 14.96H7.52C7.52 14.5867 7.37333 14.2533 7.08 13.96C6.78667 13.6667 6.42667 13.52 6 13.52C5.57333 13.52 5.21333 13.6667 4.92 13.96C4.62667 14.2533 4.48 14.6133 4.48 15.04V14.96ZM9.04 16.48H3.04V19.52C3.04 20.32 3.32 21.0133 3.88 21.6C4.44 22.1867 5.14667 22.48 6 22.48C6.85333 22.48 7.57333 22.1867 8.16 21.6C8.74667 21.0133 9.04 20.32 9.04 19.52V16.48Z" fill="#868686"/>
</svg>
