<svg width="24" height="24" viewBox="0 0 24 24" fill="none" xmlns="http://www.w3.org/2000/svg">
<path d="M22.32 21.2L16.08 15.04C16.72 14.2933 17.2 13.4666 17.52 12.56C17.84 11.6533 18 10.72 18 9.75998C18 8.26665 17.6267 6.89331 16.88 5.63998C16.1334 4.38665 15.1334 3.38665 13.88 2.63998C12.6267 1.89331 11.2534 1.51998 9.76002 1.51998C8.26669 1.51998 6.89335 1.89331 5.64002 2.63998C4.38669 3.38665 3.38669 4.38665 2.64002 5.63998C1.89335 6.89331 1.52002 8.26665 1.52002 9.75998C1.52002 11.2533 1.89335 12.6266 2.64002 13.88C3.38669 15.1333 4.38669 16.1333 5.64002 16.88C6.89335 17.6266 8.26669 18 9.76002 18C10.72 18 11.6534 17.8266 12.56 17.48C13.4667 17.1333 14.2934 16.6666 15.04 16.08L21.2 22.32C21.36 22.4266 21.5467 22.48 21.76 22.48C21.9734 22.48 22.1467 22.4133 22.28 22.28C22.4134 22.1466 22.48 21.9733 22.48 21.76C22.48 21.5466 22.4267 21.36 22.32 21.2ZM9.76002 16.48C8.53335 16.48 7.40002 16.1866 6.36002 15.6C5.32002 15.0133 4.50669 14.2 3.92002 13.16C3.33335 12.12 3.04002 10.9866 3.04002 9.75998C3.04002 8.53331 3.33335 7.39998 3.92002 6.35998C4.50669 5.31998 5.32002 4.50665 6.36002 3.91998C7.40002 3.33331 8.53335 3.03998 9.76002 3.03998C10.9867 3.03998 12.12 3.33331 13.16 3.91998C14.2 4.50665 15.0134 5.31998 15.6 6.35998C16.1867 7.39998 16.48 8.53331 16.48 9.75998C16.48 10.9866 16.1867 12.12 15.6 13.16C15.0134 14.2 14.2 15.0133 13.16 15.6C12.12 16.1866 10.9867 16.48 9.76002 16.48Z" fill="#868686"/>
</svg>
