<svg width="24" height="24" viewBox="0 0 24 24" fill="none" xmlns="http://www.w3.org/2000/svg">
<path d="M12.0001 8.95998C11.1468 8.95998 10.4401 9.25331 9.88011 9.83998C9.32011 10.4266 9.04011 11.1466 9.04011 12C9.04011 12.8533 9.32011 13.56 9.88011 14.12C10.4401 14.68 11.1468 14.96 12.0001 14.96C12.8534 14.96 13.5734 14.68 14.1601 14.12C14.7468 13.56 15.0401 12.8533 15.0401 12C15.0401 11.1466 14.7468 10.4266 14.1601 9.83998C13.5734 9.25331 12.8534 8.95998 12.0001 8.95998ZM12.0001 13.52C11.5734 13.52 11.2134 13.3733 10.9201 13.08C10.6268 12.7866 10.4801 12.4266 10.4801 12C10.4801 11.5733 10.6268 11.2133 10.9201 10.92C11.2134 10.6266 11.5734 10.48 12.0001 10.48C12.4268 10.48 12.7868 10.6266 13.0801 10.92C13.3734 11.2133 13.5201 11.5733 13.5201 12C13.5201 12.4266 13.3734 12.7866 13.0801 13.08C12.7868 13.3733 12.4268 13.52 12.0001 13.52ZM21.8401 14.56L19.9201 12.96L19.7601 12.8C19.5468 12.5333 19.4534 12.2266 19.4801 11.88C19.5068 11.5333 19.6534 11.2533 19.9201 11.04L21.8401 9.43998C22.0534 9.27998 22.1068 9.06665 22.0001 8.79998C21.5734 7.35998 20.8534 6.07998 19.8401 4.95998C19.7334 4.79998 19.5734 4.71998 19.3601 4.71998L19.1201 4.79998L16.5601 5.67998H16.4001C16.0801 5.67998 15.8001 5.58665 15.5601 5.39998C15.3201 5.21331 15.1734 4.98665 15.1201 4.71998L14.7201 2.23998C14.6668 1.97331 14.5068 1.81331 14.2401 1.75998C13.4934 1.59998 12.7468 1.51998 12.0001 1.51998C11.2534 1.51998 10.5068 1.59998 9.76011 1.75998C9.49344 1.81331 9.33344 1.97331 9.28011 2.23998L8.80011 4.87998C8.69344 5.14665 8.53344 5.34665 8.32011 5.47998C8.10678 5.61331 7.89344 5.67998 7.68011 5.67998C7.52011 5.67998 7.36011 5.67998 7.20011 5.67998L4.88011 4.79998L4.64011 4.71998C4.42678 4.71998 4.26678 4.79998 4.16011 4.95998C3.14678 6.07998 2.42678 7.35998 2.00011 8.79998C1.89344 9.06665 1.94678 9.27998 2.16011 9.43998L4.24011 11.2C4.45344 11.4666 4.54678 11.7733 4.52011 12.12C4.49344 12.4666 4.34678 12.7466 4.08011 12.96L2.16011 14.56C1.94678 14.7733 1.89344 14.9866 2.00011 15.2C2.42678 16.64 3.14678 17.92 4.16011 19.04C4.26678 19.2 4.42678 19.28 4.64011 19.28L4.88011 19.2L7.44011 18.32H7.68011C7.94678 18.32 8.20011 18.4133 8.44011 18.6C8.68011 18.7866 8.82678 19.0133 8.88011 19.28L9.28011 21.76C9.33344 22.0266 9.49344 22.1866 9.76011 22.24C10.5068 22.4 11.2534 22.48 12.0001 22.48C12.7468 22.48 13.4934 22.4 14.2401 22.24C14.5068 22.1866 14.6668 22.0266 14.7201 21.76L15.2001 19.12C15.3068 18.8533 15.4668 18.6533 15.6801 18.52C15.8934 18.3866 16.1334 18.32 16.4001 18.32C16.5068 18.32 16.6401 18.32 16.8001 18.32L19.1201 19.2L19.3601 19.28C19.5734 19.28 19.7334 19.2 19.8401 19.04C20.8534 17.92 21.5734 16.64 22.0001 15.2C22.1068 14.9866 22.0534 14.7733 21.8401 14.56ZM19.1201 17.6L17.2801 16.96C16.9601 16.8533 16.6668 16.8 16.4001 16.8C15.8134 16.8 15.2801 16.96 14.8001 17.28C14.3201 17.6 13.9734 18.0266 13.7601 18.56L13.6801 19.04L13.3601 20.88C12.8801 20.9333 12.4268 20.96 12.0001 20.96C11.5734 20.96 11.1468 20.9333 10.7201 20.88L10.3201 19.04C10.2134 18.4 9.90678 17.8666 9.40011 17.44C8.89344 17.0133 8.32011 16.8 7.68011 16.8H7.12011L6.72011 16.96L4.88011 17.6C4.34678 16.9066 3.92011 16.16 3.60011 15.36L5.04011 14.08C5.62678 13.6 5.94678 12.9866 6.00011 12.24C6.05344 11.4933 5.84011 10.8266 5.36011 10.24L5.04011 9.91998L3.60011 8.63998C3.92011 7.83998 4.34678 7.09331 4.88011 6.39998L6.72011 7.03998C7.04011 7.14665 7.36011 7.19998 7.68011 7.19998C8.21344 7.19998 8.72011 7.03998 9.20011 6.71998C9.68011 6.39998 10.0268 5.97331 10.2401 5.43998L10.3201 4.95998L10.7201 3.11998C11.1468 3.01331 11.5734 2.95998 12.0001 2.95998C12.4268 2.95998 12.8801 3.01331 13.3601 3.11998L13.6801 4.95998C13.7868 5.59998 14.0934 6.13331 14.6001 6.55998C15.1068 6.98665 15.6801 7.19998 16.3201 7.19998H16.8801L17.2801 7.03998L19.1201 6.39998C19.6534 7.09331 20.0801 7.83998 20.4001 8.63998L18.9601 9.91998C18.3734 10.4 18.0534 11.0133 18.0001 11.76C17.9468 12.5066 18.1601 13.1733 18.6401 13.76L18.9601 14.08L20.4001 15.28C20.0801 16.1333 19.6534 16.9066 19.1201 17.6Z" fill="#868686"/>
</svg>
