<svg width="24" height="24" viewBox="0 0 24 24" fill="none" xmlns="http://www.w3.org/2000/svg">
<path d="M21.0399 8.24C21.0399 7.22667 20.6665 6.34667 19.9199 5.6C19.1732 4.85333 18.2799 4.48 17.2399 4.48C16.1999 4.48 15.3199 4.85333 14.5999 5.6C13.8799 6.34667 13.5199 7.22667 13.5199 8.24C13.5199 9.14667 13.7865 9.93333 14.3199 10.6C14.8532 11.2667 15.5465 11.7067 16.3999 11.92C16.2399 12.3467 15.9732 12.72 15.5999 13.04C15.2265 13.36 14.7732 13.52 14.2399 13.52H9.75987C8.90654 13.52 8.15987 13.76 7.51987 14.24V7.44C8.3732 7.28 9.07987 6.85333 9.63987 6.16C10.1999 5.46667 10.4799 4.66667 10.4799 3.76C10.4799 2.69333 10.1199 1.8 9.39987 1.08C8.67987 0.360001 7.79987 0 6.75987 0C5.71987 0 4.83987 0.360001 4.11987 1.08C3.39987 1.8 3.03987 2.69333 3.03987 3.76C2.98654 4.66667 3.2532 5.46667 3.83987 6.16C4.42654 6.85333 5.14654 7.28 5.99987 7.44V16.56C5.14654 16.72 4.43987 17.1467 3.87987 17.84C3.31987 18.5333 3.03987 19.3333 3.03987 20.24C3.03987 21.2533 3.39987 22.1333 4.11987 22.88C4.83987 23.6267 5.71987 24 6.75987 24C7.79987 24 8.67987 23.6267 9.39987 22.88C10.1199 22.1333 10.4799 21.2533 10.4799 20.24C10.4799 19.3867 10.2132 18.6133 9.67987 17.92C9.14654 17.2267 8.4532 16.8 7.59987 16.64C7.75987 16.16 8.02654 15.76 8.39987 15.44C8.7732 15.12 9.22654 14.96 9.75987 14.96H14.2399C15.1465 14.96 15.9465 14.68 16.6399 14.12C17.3332 13.56 17.7599 12.8267 17.9199 11.92C18.8265 11.76 19.5599 11.3333 20.1199 10.64C20.6799 9.94667 20.9599 9.14667 20.9599 8.24H21.0399ZM4.47987 3.76C4.47987 3.12 4.70654 2.58667 5.15987 2.16C5.6132 1.73333 6.14654 1.52 6.75987 1.52C7.3732 1.52 7.90654 1.73333 8.35987 2.16C8.8132 2.58667 9.03987 3.12 9.03987 3.76C9.03987 4.4 8.8132 4.93333 8.35987 5.36C7.90654 5.78667 7.3732 6 6.75987 6C6.14654 6 5.6132 5.78667 5.15987 5.36C4.70654 4.93333 4.47987 4.4 4.47987 3.76ZM9.03987 20.24C9.03987 20.88 8.8132 21.4133 8.35987 21.84C7.90654 22.2667 7.3732 22.48 6.75987 22.48C6.14654 22.48 5.6132 22.2667 5.15987 21.84C4.70654 21.4133 4.47987 20.88 4.47987 20.24C4.47987 19.6 4.70654 19.0667 5.15987 18.64C5.6132 18.2133 6.14654 18 6.75987 18C7.3732 18 7.90654 18.2133 8.35987 18.64C8.8132 19.0667 9.03987 19.6 9.03987 20.24ZM17.2799 10.48C16.6399 10.48 16.0932 10.2667 15.6399 9.84C15.1865 9.41333 14.9732 8.88 14.9999 8.24C15.0265 7.6 15.2532 7.06667 15.6799 6.64C16.1065 6.21333 16.6265 6 17.2399 6C17.8532 6 18.3865 6.21333 18.8399 6.64C19.2932 7.06667 19.5199 7.6 19.5199 8.24C19.5199 8.88 19.2932 9.41333 18.8399 9.84C18.3865 10.2667 17.8665 10.48 17.2799 10.48Z" fill="#868686"/>
</svg>
